<svg xmlns="http://www.w3.org/2000/svg" xmlns:xlink="http://www.w3.org/1999/xlink" viewBox="0 0 51.07 56.27"><defs><style>.cls-1{fill:url(#linear-gradient);}.cls-2{fill:url(#linear-gradient-2);}.cls-3{fill:url(#linear-gradient-3);}.cls-4{fill:url(#linear-gradient-4);}.cls-5{fill:url(#linear-gradient-5);}.cls-6{fill:url(#linear-gradient-6);}.cls-7{fill:url(#linear-gradient-7);}.cls-8{fill:url(#linear-gradient-8);}.cls-9{fill:url(#linear-gradient-9);}.cls-10{fill:url(#linear-gradient-10);}.cls-11{fill:url(#linear-gradient-11);}</style><linearGradient id="linear-gradient" x1="26.1" y1="55.77" x2="2.37" y2="32.04" gradientUnits="userSpaceOnUse"><stop offset="0" stop-color="#81592c"/><stop offset="1" stop-color="#b06a00"/></linearGradient><linearGradient id="linear-gradient-2" x1="-1.14" y1="26.55" x2="4.98" y2="32.67" gradientUnits="userSpaceOnUse"><stop offset="0" stop-color="#fff"/><stop offset="1" stop-color="#81592c"/></linearGradient><linearGradient id="linear-gradient-3" x1="12.7" y1="12.7" x2="18.83" y2="18.83" xlink:href="#linear-gradient-2"/><linearGradient id="linear-gradient-4" x1="38.33" y1="43.54" x2="14.61" y2="19.81" xlink:href="#linear-gradient"/><linearGradient id="linear-gradient-5" x1="52.18" y1="29.69" x2="28.45" y2="5.96" xlink:href="#linear-gradient"/><linearGradient id="linear-gradient-6" x1="34.35" y1="36.95" x2="16.98" y2="19.58" gradientUnits="userSpaceOnUse"><stop offset="0" stop-color="#fff"/><stop offset="1" stop-color="#b06a00"/></linearGradient><linearGradient id="linear-gradient-7" x1="25.13" y1="11.06" x2="41.75" y2="27.67" xlink:href="#linear-gradient"/><linearGradient id="linear-gradient-8" x1="16.79" y1="19.39" x2="33.41" y2="36.01" xlink:href="#linear-gradient"/><linearGradient id="linear-gradient-9" x1="26.01" y1="45.28" x2="8.64" y2="27.92" xlink:href="#linear-gradient-6"/><linearGradient id="linear-gradient-10" x1="25.57" y1="1.1" x2="50.39" y2="25.92" xlink:href="#linear-gradient-6"/><linearGradient id="linear-gradient-11" x1="19.9" y1="6.39" x2="31.52" y2="51.26" gradientUnits="userSpaceOnUse"><stop offset="0" stop-color="#fffdfb"/><stop offset="1" stop-color="#b06a00"/></linearGradient></defs><g id="Layer_2" data-name="Layer 2"><g id="Artwork"><g id="Recruit"><polygon class="cls-1" points="25.53 54.15 25.53 56.27 0 30.73 1.5 30.11 25.53 54.15"/><polygon class="cls-2" points="1.5 30.11 0 30.73 0 25.53 1.5 26.15 1.5 30.11"/><polygon class="cls-3" points="1.5 26.15 0 25.53 25.53 0 25.53 2.12 1.5 26.15"/><polygon class="cls-4" points="49.57 30.11 51.07 30.73 25.53 56.27 25.53 54.15 49.57 30.11"/><polygon class="cls-5" points="49.57 26.15 51.07 25.53 51.07 30.73 49.57 30.11 49.57 26.15"/><polygon class="cls-6" points="25.53 45.87 25.53 43.75 41.15 28.13 43.27 28.13 25.53 45.87"/><polygon class="cls-7" points="43.27 28.13 41.15 28.13 25.53 12.52 25.53 10.4 43.27 28.13"/><polygon class="cls-8" points="25.53 10.4 25.53 12.52 9.92 28.13 7.8 28.13 25.53 10.4"/><polygon class="cls-9" points="7.8 28.13 9.92 28.13 25.53 43.75 25.53 45.87 7.8 28.13"/><polygon class="cls-10" points="25.53 2.12 25.53 0 51.07 25.53 49.57 26.15 25.53 2.12"/><path class="cls-11" d="M25.53,2.12l24,24v4l-24,24-24-24v-4Zm0,43.75L43.27,28.13,25.53,10.4,7.8,28.13,25.53,45.87"/></g></g></g></svg>