<svg xmlns="http://www.w3.org/2000/svg" xmlns:xlink="http://www.w3.org/1999/xlink" viewBox="0 0 51 46.3"><defs><style>.cls-1{fill:url(#linear-gradient);}.cls-2{fill:url(#linear-gradient-2);}.cls-3{fill:url(#linear-gradient-3);}.cls-4{fill:url(#linear-gradient-4);}.cls-5{fill:url(#linear-gradient-5);}.cls-6{fill:#b0c9d6;}.cls-7{fill:url(#linear-gradient-6);}.cls-8{fill:url(#linear-gradient-7);}.cls-9{fill:url(#linear-gradient-8);}.cls-10{fill:url(#linear-gradient-9);}.cls-11{fill:url(#linear-gradient-10);}.cls-12{fill:url(#linear-gradient-11);}.cls-13{fill:url(#linear-gradient-12);}.cls-14{fill:url(#linear-gradient-13);}.cls-15{fill:url(#linear-gradient-14);}.cls-16{fill:url(#linear-gradient-15);}.cls-17{fill:url(#linear-gradient-16);}.cls-18{fill:url(#linear-gradient-17);}.cls-19{fill:url(#linear-gradient-18);}.cls-20{fill:url(#linear-gradient-19);}.cls-21{fill:url(#linear-gradient-20);}.cls-22{fill:url(#linear-gradient-21);}.cls-23{fill:url(#linear-gradient-22);}.cls-24{fill:url(#linear-gradient-23);}.cls-25{fill:url(#linear-gradient-24);}.cls-26{fill:url(#linear-gradient-25);}.cls-27{fill:url(#linear-gradient-26);}.cls-28{fill:url(#linear-gradient-27);}</style><linearGradient id="linear-gradient" x1="24" y1="0.88" x2="24" y2="12.61" gradientUnits="userSpaceOnUse"><stop offset="0" stop-color="#fafdfe"/><stop offset="1" stop-color="#b0c9d6"/></linearGradient><linearGradient id="linear-gradient-2" x1="25.5" y1="18.74" x2="33.35" y2="18.74" gradientUnits="userSpaceOnUse"><stop offset="0" stop-color="#b8d2e0"/><stop offset="1" stop-color="#b0c9d6"/></linearGradient><linearGradient id="linear-gradient-3" x1="21.58" y1="14.64" x2="21.58" y2="22.72" gradientUnits="userSpaceOnUse"><stop offset="0" stop-color="#b0c9d6"/><stop offset="1" stop-color="#99b1bd"/></linearGradient><linearGradient id="linear-gradient-4" x1="29.42" y1="13.83" x2="29.42" y2="23.13" xlink:href="#linear-gradient-3"/><linearGradient id="linear-gradient-5" x1="36.16" y1="11.28" x2="26.61" y2="11.28" xlink:href="#linear-gradient-2"/><linearGradient id="linear-gradient-6" x1="26.44" y1="12.07" x2="37.34" y2="12.07" gradientUnits="userSpaceOnUse"><stop offset="0" stop-color="#b8d2e0"/><stop offset="1" stop-color="#99b1bd"/></linearGradient><linearGradient id="linear-gradient-7" x1="21.58" y1="24.13" x2="21.58" y2="13.45" gradientUnits="userSpaceOnUse"><stop offset="0" stop-color="#fafdfe"/><stop offset="1" stop-color="#b8d2e0"/></linearGradient><linearGradient id="linear-gradient-8" x1="12.91" y1="12.07" x2="25.48" y2="12.07" gradientUnits="userSpaceOnUse"><stop offset="0" stop-color="#def1fa"/><stop offset="1" stop-color="#99b1bd"/></linearGradient><linearGradient id="linear-gradient-9" x1="14.04" y1="11.28" x2="25.86" y2="11.28" xlink:href="#linear-gradient"/><linearGradient id="linear-gradient-10" x1="11.2" y1="23.04" x2="11.2" y2="34.77" xlink:href="#linear-gradient"/><linearGradient id="linear-gradient-11" x1="12.69" y1="40.91" x2="20.54" y2="40.91" xlink:href="#linear-gradient-2"/><linearGradient id="linear-gradient-12" x1="8.77" y1="36.8" x2="8.77" y2="44.88" xlink:href="#linear-gradient-3"/><linearGradient id="linear-gradient-13" x1="16.62" y1="35.99" x2="16.62" y2="45.29" xlink:href="#linear-gradient-3"/><linearGradient id="linear-gradient-14" x1="23.36" y1="33.44" x2="13.8" y2="33.44" xlink:href="#linear-gradient-2"/><linearGradient id="linear-gradient-15" x1="13.64" y1="34.23" x2="24.53" y2="34.23" xlink:href="#linear-gradient-6"/><linearGradient id="linear-gradient-16" x1="8.77" y1="46.29" x2="8.77" y2="35.61" xlink:href="#linear-gradient-7"/><linearGradient id="linear-gradient-17" x1="0.1" y1="34.23" x2="12.67" y2="34.23" xlink:href="#linear-gradient-8"/><linearGradient id="linear-gradient-18" x1="1.24" y1="33.44" x2="13.05" y2="33.44" xlink:href="#linear-gradient"/><linearGradient id="linear-gradient-19" x1="36.81" y1="23.04" x2="36.81" y2="34.77" xlink:href="#linear-gradient"/><linearGradient id="linear-gradient-20" x1="38.31" y1="40.91" x2="46.16" y2="40.91" xlink:href="#linear-gradient-2"/><linearGradient id="linear-gradient-21" x1="34.39" y1="36.8" x2="34.39" y2="44.88" xlink:href="#linear-gradient-3"/><linearGradient id="linear-gradient-22" x1="42.23" y1="35.99" x2="42.23" y2="45.29" xlink:href="#linear-gradient-3"/><linearGradient id="linear-gradient-23" x1="48.97" y1="33.44" x2="39.42" y2="33.44" xlink:href="#linear-gradient-2"/><linearGradient id="linear-gradient-24" x1="39.25" y1="34.23" x2="50.15" y2="34.23" xlink:href="#linear-gradient-6"/><linearGradient id="linear-gradient-25" x1="34.39" y1="46.29" x2="34.39" y2="35.61" xlink:href="#linear-gradient-7"/><linearGradient id="linear-gradient-26" x1="25.72" y1="34.23" x2="38.29" y2="34.23" xlink:href="#linear-gradient-8"/><linearGradient id="linear-gradient-27" x1="26.85" y1="33.44" x2="38.67" y2="33.44" xlink:href="#linear-gradient"/></defs><g id="Layer_2" data-name="Layer 2"><g id="Artwork"><g id="Colonel"><polygon class="cls-1" points="25.5 13.34 22.5 9.22 25.5 0 25.5 13.33 25.5 13.34"/><polygon class="cls-2" points="25.5 13.34 33.35 24.14 25.5 18.44 25.51 13.35 25.5 13.34"/><polygon class="cls-3" points="25.51 13.35 25.5 18.44 17.66 24.14 25.5 13.35 25.51 13.35"/><polygon class="cls-4" points="25.5 13.35 30.35 14.92 33.35 24.14 25.5 13.34 25.5 13.35"/><polygon class="cls-5" points="25.5 13.34 28.5 9.22 38.2 9.22 25.51 13.34 25.5 13.34"/><polygon class="cls-6" points="25.5 13.33 25.5 0 28.5 9.22 25.5 13.34 25.5 13.33"/><polygon class="cls-7" points="25.51 13.34 38.2 9.22 30.35 14.92 25.5 13.35 25.51 13.34"/><polygon class="cls-8" points="25.5 13.35 17.66 24.14 20.65 14.92 25.5 13.35 25.5 13.35"/><polygon class="cls-9" points="25.5 13.35 20.65 14.92 12.81 9.22 25.5 13.34 25.5 13.35"/><polygon class="cls-10" points="25.5 13.34 12.81 9.22 22.5 9.22 25.5 13.34 25.5 13.34"/><polygon class="cls-11" points="12.69 35.51 9.7 31.38 12.7 22.16 12.69 35.49 12.69 35.51"/><polygon class="cls-12" points="12.7 35.51 20.54 46.3 12.7 40.6 12.7 35.51 12.7 35.51"/><polygon class="cls-13" points="12.7 35.51 12.7 40.6 4.85 46.3 12.69 35.51 12.7 35.51"/><polygon class="cls-14" points="12.7 35.51 17.54 37.08 20.54 46.3 12.7 35.51 12.7 35.51"/><polygon class="cls-15" points="12.7 35.51 15.69 31.38 25.39 31.38 12.7 35.51 12.7 35.51"/><polygon class="cls-6" points="12.69 35.49 12.7 22.16 15.69 31.38 12.7 35.51 12.69 35.49"/><polygon class="cls-16" points="12.7 35.51 25.39 31.38 17.54 37.08 12.7 35.51 12.7 35.51"/><polygon class="cls-17" points="12.69 35.51 4.85 46.3 7.84 37.08 12.69 35.51 12.69 35.51"/><polygon class="cls-18" points="12.69 35.51 7.84 37.08 0 31.38 12.69 35.51 12.69 35.51"/><polygon class="cls-19" points="12.69 35.51 0 31.38 9.7 31.38 12.69 35.51 12.69 35.51"/><polygon class="cls-20" points="38.31 35.51 35.31 31.38 38.31 22.16 38.31 35.49 38.31 35.51"/><polygon class="cls-21" points="38.31 35.51 46.16 46.3 38.31 40.6 38.31 35.51 38.31 35.51"/><polygon class="cls-22" points="38.31 35.51 38.31 40.6 30.47 46.3 38.31 35.51 38.31 35.51"/><polygon class="cls-23" points="38.31 35.51 43.16 37.08 46.16 46.3 38.31 35.51 38.31 35.51"/><polygon class="cls-24" points="38.31 35.51 41.31 31.38 51.01 31.38 38.32 35.51 38.31 35.51"/><polygon class="cls-6" points="38.31 35.49 38.31 22.16 41.31 31.38 38.31 35.51 38.31 35.49"/><polygon class="cls-25" points="38.32 35.51 51.01 31.38 43.16 37.08 38.31 35.51 38.32 35.51"/><polygon class="cls-26" points="38.31 35.51 30.47 46.3 33.46 37.08 38.31 35.51 38.31 35.51"/><polygon class="cls-27" points="38.31 35.51 33.46 37.08 25.62 31.38 38.3 35.51 38.31 35.51"/><polygon class="cls-28" points="38.3 35.51 25.62 31.38 35.31 31.38 38.31 35.51 38.3 35.51"/></g></g></g></svg>