<svg xmlns="http://www.w3.org/2000/svg" xmlns:xlink="http://www.w3.org/1999/xlink" viewBox="0 0 50.01 60.37"><defs><style>.cls-1{fill:url(#linear-gradient);}.cls-2{fill:url(#linear-gradient-2);}.cls-3{fill:url(#linear-gradient-3);}.cls-4{fill:url(#linear-gradient-4);}.cls-5{fill:url(#linear-gradient-5);}.cls-6{fill:#b0c9d6;}.cls-7{fill:url(#linear-gradient-6);}.cls-8{fill:url(#linear-gradient-7);}.cls-9{fill:url(#linear-gradient-8);}.cls-10{fill:url(#linear-gradient-9);}.cls-11{fill:url(#linear-gradient-10);}.cls-12{fill:url(#linear-gradient-11);}.cls-13{fill:url(#linear-gradient-12);}.cls-14{fill:url(#linear-gradient-13);}.cls-15{fill:url(#linear-gradient-14);}.cls-16{fill:url(#linear-gradient-15);}.cls-17{fill:url(#linear-gradient-16);}.cls-18{fill:url(#linear-gradient-17);}.cls-19{fill:url(#linear-gradient-18);}.cls-20{fill:url(#linear-gradient-19);}.cls-21{fill:url(#linear-gradient-20);}.cls-22{fill:url(#linear-gradient-21);}.cls-23{fill:url(#linear-gradient-22);}.cls-24{fill:url(#linear-gradient-23);}.cls-25{fill:url(#linear-gradient-24);}.cls-26{fill:url(#linear-gradient-25);}.cls-27{fill:url(#linear-gradient-26);}.cls-28{fill:url(#linear-gradient-27);}.cls-29{fill:#def1fa;}.cls-30{fill:url(#linear-gradient-28);}.cls-31{fill:url(#linear-gradient-29);}.cls-32{fill:url(#linear-gradient-30);}</style><linearGradient id="linear-gradient" x1="23.56" y1="0.85" x2="23.56" y2="12.16" gradientUnits="userSpaceOnUse"><stop offset="0" stop-color="#fafdfe"/><stop offset="1" stop-color="#b0c9d6"/></linearGradient><linearGradient id="linear-gradient-2" x1="25.01" y1="18.08" x2="32.57" y2="18.08" gradientUnits="userSpaceOnUse"><stop offset="0" stop-color="#b8d2e0"/><stop offset="1" stop-color="#b0c9d6"/></linearGradient><linearGradient id="linear-gradient-3" x1="21.23" y1="14.12" x2="21.23" y2="21.91" gradientUnits="userSpaceOnUse"><stop offset="0" stop-color="#b0c9d6"/><stop offset="1" stop-color="#99b1bd"/></linearGradient><linearGradient id="linear-gradient-4" x1="28.79" y1="13.33" x2="28.79" y2="22.3" xlink:href="#linear-gradient-3"/><linearGradient id="linear-gradient-5" x1="35.29" y1="10.88" x2="26.08" y2="10.88" xlink:href="#linear-gradient-2"/><linearGradient id="linear-gradient-6" x1="25.91" y1="11.64" x2="36.42" y2="11.64" gradientUnits="userSpaceOnUse"><stop offset="0" stop-color="#b8d2e0"/><stop offset="1" stop-color="#99b1bd"/></linearGradient><linearGradient id="linear-gradient-7" x1="21.22" y1="23.27" x2="21.22" y2="12.97" gradientUnits="userSpaceOnUse"><stop offset="0" stop-color="#fafdfe"/><stop offset="1" stop-color="#b8d2e0"/></linearGradient><linearGradient id="linear-gradient-8" x1="12.86" y1="11.64" x2="24.99" y2="11.64" gradientUnits="userSpaceOnUse"><stop offset="0" stop-color="#def1fa"/><stop offset="1" stop-color="#99b1bd"/></linearGradient><linearGradient id="linear-gradient-9" x1="13.95" y1="10.88" x2="25.35" y2="10.88" xlink:href="#linear-gradient"/><linearGradient id="linear-gradient-10" x1="11.21" y1="23.1" x2="11.21" y2="34.41" xlink:href="#linear-gradient"/><linearGradient id="linear-gradient-11" x1="12.65" y1="40.32" x2="20.22" y2="40.32" xlink:href="#linear-gradient-2"/><linearGradient id="linear-gradient-12" x1="8.87" y1="36.36" x2="8.87" y2="44.16" xlink:href="#linear-gradient-3"/><linearGradient id="linear-gradient-13" x1="16.44" y1="35.58" x2="16.44" y2="44.55" xlink:href="#linear-gradient-3"/><linearGradient id="linear-gradient-14" x1="22.93" y1="33.13" x2="13.72" y2="33.13" xlink:href="#linear-gradient-2"/><linearGradient id="linear-gradient-15" x1="13.56" y1="33.89" x2="24.07" y2="33.89" xlink:href="#linear-gradient-6"/><linearGradient id="linear-gradient-16" x1="8.87" y1="45.52" x2="8.87" y2="35.22" xlink:href="#linear-gradient-7"/><linearGradient id="linear-gradient-17" x1="0.51" y1="33.89" x2="12.63" y2="33.89" xlink:href="#linear-gradient-8"/><linearGradient id="linear-gradient-18" x1="1.6" y1="33.13" x2="12.99" y2="33.13" xlink:href="#linear-gradient"/><linearGradient id="linear-gradient-19" x1="35.91" y1="23.1" x2="35.91" y2="34.41" xlink:href="#linear-gradient"/><linearGradient id="linear-gradient-20" x1="37.36" y1="40.32" x2="44.92" y2="40.32" xlink:href="#linear-gradient-2"/><linearGradient id="linear-gradient-21" x1="33.58" y1="36.36" x2="33.58" y2="44.16" xlink:href="#linear-gradient-3"/><linearGradient id="linear-gradient-22" x1="41.14" y1="35.58" x2="41.14" y2="44.55" xlink:href="#linear-gradient-3"/><linearGradient id="linear-gradient-23" x1="47.64" y1="33.13" x2="38.43" y2="33.13" xlink:href="#linear-gradient-2"/><linearGradient id="linear-gradient-24" x1="38.27" y1="33.89" x2="48.77" y2="33.89" xlink:href="#linear-gradient-6"/><linearGradient id="linear-gradient-25" x1="33.58" y1="45.52" x2="33.58" y2="35.22" xlink:href="#linear-gradient-7"/><linearGradient id="linear-gradient-26" x1="25.22" y1="33.89" x2="37.34" y2="33.89" xlink:href="#linear-gradient-8"/><linearGradient id="linear-gradient-27" x1="26.31" y1="33.13" x2="37.7" y2="33.13" xlink:href="#linear-gradient"/><linearGradient id="linear-gradient-28" y1="51.04" x2="50.01" y2="51.04" gradientUnits="userSpaceOnUse"><stop offset="0" stop-color="#fafdfe"/><stop offset="1" stop-color="#def1fa"/></linearGradient><linearGradient id="linear-gradient-29" x1="0" y1="59.66" x2="50.01" y2="59.66" xlink:href="#linear-gradient-3"/><linearGradient id="linear-gradient-30" x1="25.01" y1="51.84" x2="25.01" y2="59.04" gradientUnits="userSpaceOnUse"><stop offset="0" stop-color="#fafdfe"/><stop offset="0.26" stop-color="#dce8ee"/><stop offset="0.54" stop-color="#c4d7e1"/><stop offset="0.79" stop-color="#b5cdd9"/><stop offset="1" stop-color="#b0c9d6"/></linearGradient></defs><g id="Layer_2" data-name="Layer 2"><g id="Artwork"><g id="Colonel_Grade_2_" data-name="Colonel (Grade 2)"><polygon class="cls-1" points="25 12.87 22.11 8.89 25.01 0 25.01 12.86 25 12.87"/><polygon class="cls-2" points="25.01 12.87 32.57 23.28 25.01 17.79 25.01 12.87 25.01 12.87"/><polygon class="cls-3" points="25.01 12.87 25.01 17.79 17.44 23.28 25 12.87 25.01 12.87"/><polygon class="cls-4" points="25.01 12.87 29.68 14.39 32.57 23.28 25.01 12.87 25.01 12.87"/><polygon class="cls-5" points="25.01 12.87 27.9 8.89 37.25 8.89 25.01 12.87 25.01 12.87"/><polygon class="cls-6" points="25.01 12.86 25.01 0 27.9 8.89 25.01 12.87 25.01 12.86"/><polygon class="cls-7" points="25.01 12.87 37.25 8.89 29.68 14.39 25.01 12.87 25.01 12.87"/><polygon class="cls-8" points="25 12.87 17.44 23.28 20.33 14.39 25 12.87 25 12.87"/><polygon class="cls-9" points="25 12.87 20.33 14.39 12.76 8.89 25 12.87 25 12.87"/><polygon class="cls-10" points="25 12.87 12.76 8.89 22.11 8.89 25 12.87 25 12.87"/><polygon class="cls-11" points="12.65 35.12 9.76 31.14 12.65 22.25 12.65 35.1 12.65 35.12"/><polygon class="cls-12" points="12.65 35.12 20.22 45.53 12.65 40.03 12.66 35.12 12.65 35.12"/><polygon class="cls-13" points="12.66 35.12 12.65 40.03 5.09 45.53 12.65 35.12 12.66 35.12"/><polygon class="cls-14" points="12.65 35.12 17.33 36.64 20.22 45.53 12.65 35.12 12.65 35.12"/><polygon class="cls-15" points="12.65 35.12 15.54 31.14 24.89 31.14 12.66 35.12 12.65 35.12"/><polygon class="cls-6" points="12.65 35.1 12.65 22.25 15.54 31.14 12.65 35.12 12.65 35.1"/><polygon class="cls-16" points="12.66 35.12 24.89 31.14 17.33 36.64 12.65 35.12 12.66 35.12"/><polygon class="cls-17" points="12.65 35.12 5.09 45.53 7.98 36.64 12.65 35.12 12.65 35.12"/><polygon class="cls-18" points="12.65 35.12 7.98 36.64 0.41 31.14 12.64 35.12 12.65 35.12"/><polygon class="cls-19" points="12.64 35.12 0.41 31.14 9.76 31.14 12.65 35.12 12.64 35.12"/><polygon class="cls-20" points="37.35 35.12 34.47 31.14 37.36 22.25 37.36 35.1 37.35 35.12"/><polygon class="cls-21" points="37.36 35.12 44.92 45.53 37.36 40.03 37.36 35.12 37.36 35.12"/><polygon class="cls-22" points="37.36 35.12 37.36 40.03 29.79 45.53 37.35 35.12 37.36 35.12"/><polygon class="cls-23" points="37.36 35.12 42.03 36.64 44.92 45.53 37.36 35.12 37.36 35.12"/><polygon class="cls-24" points="37.36 35.12 40.25 31.14 49.6 31.14 37.37 35.12 37.36 35.12"/><polygon class="cls-6" points="37.36 35.1 37.36 22.25 40.25 31.14 37.36 35.12 37.36 35.1"/><polygon class="cls-25" points="37.37 35.12 49.6 31.14 42.03 36.64 37.36 35.12 37.37 35.12"/><polygon class="cls-26" points="37.35 35.12 29.79 45.53 32.68 36.64 37.36 35.12 37.35 35.12"/><polygon class="cls-27" points="37.36 35.12 32.68 36.64 25.12 31.14 37.35 35.12 37.36 35.12"/><polygon class="cls-28" points="37.35 35.12 25.12 31.14 34.47 31.14 37.35 35.12 37.35 35.12"/><polygon class="cls-29" points="1.42 58.94 1.42 51.76 1.43 51.76 0 50.33 0 60.37 1.43 58.94 1.42 58.94"/><polygon class="cls-30" points="48.58 51.76 50.01 50.33 0 50.33 1.43 51.76 48.58 51.76"/><polygon class="cls-31" points="48.58 58.94 1.43 58.94 0 60.37 50.01 60.37 48.58 58.94"/><polygon class="cls-6" points="48.58 51.76 48.59 51.76 48.59 58.94 48.58 58.94 50.01 60.37 50.01 50.33 48.58 51.76"/><rect class="cls-32" x="1.42" y="51.76" width="47.17" height="7.18"/></g></g></g></svg>