<svg xmlns="http://www.w3.org/2000/svg" xmlns:xlink="http://www.w3.org/1999/xlink" viewBox="0 0 51 70.47"><defs><style>.cls-1{fill:url(#linear-gradient);}.cls-2{fill:url(#linear-gradient-2);}.cls-3{fill:url(#linear-gradient-3);}.cls-4{fill:url(#linear-gradient-4);}.cls-5{fill:url(#linear-gradient-5);}.cls-6{fill:#b0c9d6;}.cls-7{fill:url(#linear-gradient-6);}.cls-8{fill:url(#linear-gradient-7);}.cls-9{fill:url(#linear-gradient-8);}.cls-10{fill:url(#linear-gradient-9);}.cls-11{fill:url(#linear-gradient-10);}.cls-12{fill:url(#linear-gradient-11);}.cls-13{fill:url(#linear-gradient-12);}.cls-14{fill:url(#linear-gradient-13);}.cls-15{fill:url(#linear-gradient-14);}.cls-16{fill:url(#linear-gradient-15);}.cls-17{fill:url(#linear-gradient-16);}.cls-18{fill:url(#linear-gradient-17);}.cls-19{fill:url(#linear-gradient-18);}.cls-20{fill:url(#linear-gradient-19);}.cls-21{fill:url(#linear-gradient-20);}.cls-22{fill:url(#linear-gradient-21);}.cls-23{fill:url(#linear-gradient-22);}.cls-24{fill:url(#linear-gradient-23);}.cls-25{fill:url(#linear-gradient-24);}.cls-26{fill:url(#linear-gradient-25);}.cls-27{fill:url(#linear-gradient-26);}.cls-28{fill:url(#linear-gradient-27);}.cls-29{fill:#def1fa;}.cls-30{fill:url(#linear-gradient-28);}.cls-31{fill:url(#linear-gradient-29);}.cls-32{fill:url(#linear-gradient-30);}.cls-33{fill:url(#linear-gradient-31);}.cls-34{fill:url(#linear-gradient-32);}.cls-35{fill:url(#linear-gradient-33);}</style><linearGradient id="linear-gradient" x1="24" y1="0.88" x2="24" y2="12.61" gradientUnits="userSpaceOnUse"><stop offset="0" stop-color="#fafdfe"/><stop offset="1" stop-color="#b0c9d6"/></linearGradient><linearGradient id="linear-gradient-2" x1="25.5" y1="18.74" x2="33.35" y2="18.74" gradientUnits="userSpaceOnUse"><stop offset="0" stop-color="#b8d2e0"/><stop offset="1" stop-color="#b0c9d6"/></linearGradient><linearGradient id="linear-gradient-3" x1="21.58" y1="14.64" x2="21.58" y2="22.72" gradientUnits="userSpaceOnUse"><stop offset="0" stop-color="#b0c9d6"/><stop offset="1" stop-color="#99b1bd"/></linearGradient><linearGradient id="linear-gradient-4" x1="29.42" y1="13.83" x2="29.42" y2="23.13" xlink:href="#linear-gradient-3"/><linearGradient id="linear-gradient-5" x1="36.16" y1="11.28" x2="26.61" y2="11.28" xlink:href="#linear-gradient-2"/><linearGradient id="linear-gradient-6" x1="26.44" y1="12.07" x2="37.34" y2="12.07" gradientUnits="userSpaceOnUse"><stop offset="0" stop-color="#b8d2e0"/><stop offset="1" stop-color="#99b1bd"/></linearGradient><linearGradient id="linear-gradient-7" x1="21.58" y1="24.13" x2="21.58" y2="13.45" gradientUnits="userSpaceOnUse"><stop offset="0" stop-color="#fafdfe"/><stop offset="1" stop-color="#b8d2e0"/></linearGradient><linearGradient id="linear-gradient-8" x1="12.91" y1="12.07" x2="25.48" y2="12.07" gradientUnits="userSpaceOnUse"><stop offset="0" stop-color="#def1fa"/><stop offset="1" stop-color="#99b1bd"/></linearGradient><linearGradient id="linear-gradient-9" x1="14.04" y1="11.28" x2="25.86" y2="11.28" xlink:href="#linear-gradient"/><linearGradient id="linear-gradient-10" x1="11.2" y1="21.55" x2="11.2" y2="33.28" xlink:href="#linear-gradient"/><linearGradient id="linear-gradient-11" x1="12.69" y1="39.41" x2="20.54" y2="39.41" xlink:href="#linear-gradient-2"/><linearGradient id="linear-gradient-12" x1="8.77" y1="35.31" x2="8.77" y2="43.39" xlink:href="#linear-gradient-3"/><linearGradient id="linear-gradient-13" x1="16.62" y1="34.5" x2="16.62" y2="43.8" xlink:href="#linear-gradient-3"/><linearGradient id="linear-gradient-14" x1="23.35" y1="31.95" x2="13.8" y2="31.95" xlink:href="#linear-gradient-2"/><linearGradient id="linear-gradient-15" x1="13.64" y1="32.74" x2="24.53" y2="32.74" xlink:href="#linear-gradient-6"/><linearGradient id="linear-gradient-16" x1="8.77" y1="44.8" x2="8.77" y2="34.12" xlink:href="#linear-gradient-7"/><linearGradient id="linear-gradient-17" x1="0.1" y1="32.74" x2="12.67" y2="32.74" xlink:href="#linear-gradient-8"/><linearGradient id="linear-gradient-18" x1="1.24" y1="31.95" x2="13.05" y2="31.95" xlink:href="#linear-gradient"/><linearGradient id="linear-gradient-19" x1="36.81" y1="21.55" x2="36.81" y2="33.28" xlink:href="#linear-gradient"/><linearGradient id="linear-gradient-20" x1="38.31" y1="39.41" x2="46.15" y2="39.41" xlink:href="#linear-gradient-2"/><linearGradient id="linear-gradient-21" x1="34.39" y1="35.31" x2="34.39" y2="43.39" xlink:href="#linear-gradient-3"/><linearGradient id="linear-gradient-22" x1="42.23" y1="34.5" x2="42.23" y2="43.8" xlink:href="#linear-gradient-3"/><linearGradient id="linear-gradient-23" x1="48.97" y1="31.95" x2="39.42" y2="31.95" xlink:href="#linear-gradient-2"/><linearGradient id="linear-gradient-24" x1="39.25" y1="32.74" x2="50.15" y2="32.74" xlink:href="#linear-gradient-6"/><linearGradient id="linear-gradient-25" x1="34.39" y1="44.8" x2="34.39" y2="34.12" xlink:href="#linear-gradient-7"/><linearGradient id="linear-gradient-26" x1="25.72" y1="32.74" x2="38.29" y2="32.74" xlink:href="#linear-gradient-8"/><linearGradient id="linear-gradient-27" x1="26.85" y1="31.95" x2="38.67" y2="31.95" xlink:href="#linear-gradient"/><linearGradient id="linear-gradient-28" x1="0.7" y1="49.97" x2="50.71" y2="49.97" gradientUnits="userSpaceOnUse"><stop offset="0" stop-color="#fafdfe"/><stop offset="1" stop-color="#def1fa"/></linearGradient><linearGradient id="linear-gradient-29" x1="0.7" y1="58.58" x2="50.71" y2="58.58" xlink:href="#linear-gradient-3"/><linearGradient id="linear-gradient-30" x1="25.7" y1="50.76" x2="25.7" y2="57.97" gradientUnits="userSpaceOnUse"><stop offset="0" stop-color="#fafdfe"/><stop offset="0.26" stop-color="#dce8ee"/><stop offset="0.54" stop-color="#c4d7e1"/><stop offset="0.79" stop-color="#b5cdd9"/><stop offset="1" stop-color="#b0c9d6"/></linearGradient><linearGradient id="linear-gradient-31" x1="0.7" y1="61.14" x2="50.71" y2="61.14" xlink:href="#linear-gradient-28"/><linearGradient id="linear-gradient-32" x1="0.7" y1="69.75" x2="50.71" y2="69.75" xlink:href="#linear-gradient-3"/><linearGradient id="linear-gradient-33" x1="25.7" y1="61.93" x2="25.7" y2="69.13" xlink:href="#linear-gradient-30"/></defs><g id="Layer_2" data-name="Layer 2"><g id="Artwork"><g id="Colonel_Grade_3_" data-name="Colonel (Grade 3)"><polygon class="cls-1" points="25.5 13.34 22.5 9.22 25.5 0 25.5 13.33 25.5 13.34"/><polygon class="cls-2" points="25.5 13.34 33.35 24.14 25.5 18.44 25.51 13.35 25.5 13.34"/><polygon class="cls-3" points="25.51 13.35 25.5 18.44 17.66 24.14 25.5 13.35 25.51 13.35"/><polygon class="cls-4" points="25.5 13.35 30.35 14.92 33.35 24.14 25.5 13.34 25.5 13.35"/><polygon class="cls-5" points="25.5 13.34 28.5 9.22 38.2 9.22 25.51 13.34 25.5 13.34"/><polygon class="cls-6" points="25.5 13.33 25.5 0 28.5 9.22 25.5 13.34 25.5 13.33"/><polygon class="cls-7" points="25.51 13.34 38.2 9.22 30.35 14.92 25.5 13.35 25.51 13.34"/><polygon class="cls-8" points="25.5 13.35 17.66 24.14 20.65 14.92 25.5 13.35 25.5 13.35"/><polygon class="cls-9" points="25.5 13.35 20.65 14.92 12.81 9.22 25.49 13.34 25.5 13.35"/><polygon class="cls-10" points="25.49 13.34 12.81 9.22 22.5 9.22 25.5 13.34 25.49 13.34"/><polygon class="cls-11" points="12.69 34.01 9.7 29.89 12.7 20.67 12.69 34 12.69 34.01"/><polygon class="cls-12" points="12.69 34.01 20.54 44.81 12.7 39.11 12.7 34.02 12.69 34.01"/><polygon class="cls-13" points="12.7 34.02 12.7 39.11 4.85 44.81 12.69 34.02 12.7 34.02"/><polygon class="cls-14" points="12.7 34.02 17.54 35.59 20.54 44.81 12.69 34.01 12.7 34.02"/><polygon class="cls-15" points="12.7 34.01 15.69 29.89 25.39 29.89 12.7 34.01 12.7 34.01"/><polygon class="cls-6" points="12.69 34 12.7 20.67 15.69 29.89 12.7 34.01 12.69 34"/><polygon class="cls-16" points="12.7 34.01 25.39 29.89 17.54 35.59 12.7 34.02 12.7 34.01"/><polygon class="cls-17" points="12.69 34.02 4.85 44.81 7.84 35.59 12.69 34.02 12.69 34.02"/><polygon class="cls-18" points="12.69 34.02 7.84 35.59 0 29.89 12.69 34.01 12.69 34.02"/><polygon class="cls-19" points="12.69 34.01 0 29.89 9.7 29.89 12.69 34.01 12.69 34.01"/><polygon class="cls-20" points="38.31 34.01 35.31 29.89 38.31 20.67 38.31 34 38.31 34.01"/><polygon class="cls-21" points="38.31 34.01 46.15 44.81 38.31 39.11 38.31 34.02 38.31 34.01"/><polygon class="cls-22" points="38.31 34.02 38.31 39.11 30.47 44.81 38.31 34.02 38.31 34.02"/><polygon class="cls-23" points="38.31 34.02 43.16 35.59 46.15 44.81 38.31 34.01 38.31 34.02"/><polygon class="cls-24" points="38.31 34.01 41.31 29.89 51 29.89 38.32 34.01 38.31 34.01"/><polygon class="cls-6" points="38.31 34 38.31 20.67 41.31 29.89 38.31 34.01 38.31 34"/><polygon class="cls-25" points="38.32 34.01 51 29.89 43.16 35.59 38.31 34.02 38.32 34.01"/><polygon class="cls-26" points="38.31 34.02 30.47 44.81 33.46 35.59 38.31 34.02 38.31 34.02"/><polygon class="cls-27" points="38.31 34.02 33.46 35.59 25.62 29.89 38.3 34.01 38.31 34.02"/><polygon class="cls-28" points="38.3 34.01 25.62 29.89 35.31 29.89 38.31 34.01 38.3 34.01"/><polygon class="cls-29" points="2.12 57.87 2.12 50.69 2.13 50.69 0.7 49.25 0.7 59.3 2.13 57.87 2.12 57.87"/><polygon class="cls-30" points="49.27 50.69 50.71 49.25 0.7 49.25 2.13 50.69 49.27 50.69"/><polygon class="cls-31" points="49.27 57.87 2.13 57.87 0.7 59.3 50.71 59.3 49.27 57.87"/><polygon class="cls-6" points="49.27 50.69 49.29 50.69 49.29 57.87 49.27 57.87 50.71 59.3 50.71 49.25 49.27 50.69"/><rect class="cls-32" x="2.12" y="50.69" width="47.17" height="7.18"/><polygon class="cls-29" points="2.12 69.03 2.12 61.85 2.13 61.85 0.7 60.42 0.7 70.47 2.13 69.03 2.12 69.03"/><polygon class="cls-33" points="49.27 61.85 50.71 60.42 0.7 60.42 2.13 61.85 49.27 61.85"/><polygon class="cls-34" points="49.27 69.03 2.13 69.03 0.7 70.47 50.71 70.47 49.27 69.03"/><polygon class="cls-6" points="49.27 61.85 49.29 61.85 49.29 69.03 49.27 69.03 50.71 70.47 50.71 60.42 49.27 61.85"/><rect class="cls-35" x="2.12" y="61.85" width="47.17" height="7.18"/></g></g></g></svg>