<svg xmlns="http://www.w3.org/2000/svg" xmlns:xlink="http://www.w3.org/1999/xlink" viewBox="0 0 50.01 70.51"><defs><style>.cls-1{fill:url(#linear-gradient);}.cls-2{fill:url(#linear-gradient-2);}.cls-3{fill:url(#linear-gradient-3);}.cls-4{fill:url(#linear-gradient-4);}.cls-5{fill:url(#linear-gradient-5);}.cls-6{fill:#b0c9d6;}.cls-7{fill:url(#linear-gradient-6);}.cls-8{fill:url(#linear-gradient-7);}.cls-9{fill:url(#linear-gradient-8);}.cls-10{fill:url(#linear-gradient-9);}.cls-11{fill:url(#linear-gradient-10);}.cls-12{fill:url(#linear-gradient-11);}.cls-13{fill:url(#linear-gradient-12);}.cls-14{fill:url(#linear-gradient-13);}.cls-15{fill:url(#linear-gradient-14);}.cls-16{fill:url(#linear-gradient-15);}.cls-17{fill:url(#linear-gradient-16);}.cls-18{fill:url(#linear-gradient-17);}.cls-19{fill:url(#linear-gradient-18);}.cls-20{fill:url(#linear-gradient-19);}.cls-21{fill:url(#linear-gradient-20);}.cls-22{fill:url(#linear-gradient-21);}.cls-23{fill:url(#linear-gradient-22);}.cls-24{fill:url(#linear-gradient-23);}.cls-25{fill:url(#linear-gradient-24);}.cls-26{fill:url(#linear-gradient-25);}.cls-27{fill:url(#linear-gradient-26);}.cls-28{fill:url(#linear-gradient-27);}.cls-29{fill:url(#linear-gradient-28);}.cls-30{fill:url(#linear-gradient-29);}.cls-31{fill:url(#linear-gradient-30);}.cls-32{fill:#fc0;}.cls-33{fill:url(#linear-gradient-31);}.cls-34{fill:url(#linear-gradient-32);}.cls-35{fill:url(#linear-gradient-33);}.cls-36{fill:url(#linear-gradient-34);}.cls-37{fill:url(#linear-gradient-35);}.cls-38{fill:url(#linear-gradient-36);}.cls-39{fill:url(#linear-gradient-37);}.cls-40{fill:url(#linear-gradient-38);}.cls-41{fill:url(#linear-gradient-39);}</style><linearGradient id="linear-gradient" x1="23.6" y1="0.85" x2="23.6" y2="12.13" gradientUnits="userSpaceOnUse"><stop offset="0" stop-color="#fafdfe"/><stop offset="1" stop-color="#b0c9d6"/></linearGradient><linearGradient id="linear-gradient-2" x1="25.04" y1="18.03" x2="32.58" y2="18.03" gradientUnits="userSpaceOnUse"><stop offset="0" stop-color="#b8d2e0"/><stop offset="1" stop-color="#b0c9d6"/></linearGradient><linearGradient id="linear-gradient-3" x1="21.27" y1="14.08" x2="21.27" y2="21.85" gradientUnits="userSpaceOnUse"><stop offset="0" stop-color="#b0c9d6"/><stop offset="1" stop-color="#99b1bd"/></linearGradient><linearGradient id="linear-gradient-4" x1="28.81" y1="13.3" x2="28.81" y2="22.24" xlink:href="#linear-gradient-3"/><linearGradient id="linear-gradient-5" x1="35.29" y1="10.85" x2="26.1" y2="10.85" xlink:href="#linear-gradient-2"/><linearGradient id="linear-gradient-6" x1="25.94" y1="11.61" x2="36.42" y2="11.61" gradientUnits="userSpaceOnUse"><stop offset="0" stop-color="#b8d2e0"/><stop offset="1" stop-color="#99b1bd"/></linearGradient><linearGradient id="linear-gradient-7" x1="21.26" y1="23.21" x2="21.26" y2="12.93" gradientUnits="userSpaceOnUse"><stop offset="0" stop-color="#fafdfe"/><stop offset="1" stop-color="#b8d2e0"/></linearGradient><linearGradient id="linear-gradient-8" x1="12.93" y1="11.61" x2="25.02" y2="11.61" gradientUnits="userSpaceOnUse"><stop offset="0" stop-color="#def1fa"/><stop offset="1" stop-color="#99b1bd"/></linearGradient><linearGradient id="linear-gradient-9" x1="14.02" y1="10.85" x2="25.38" y2="10.85" xlink:href="#linear-gradient"/><linearGradient id="linear-gradient-10" x1="11.28" y1="18.65" x2="11.28" y2="29.94" xlink:href="#linear-gradient"/><linearGradient id="linear-gradient-11" x1="12.72" y1="35.83" x2="20.26" y2="35.83" xlink:href="#linear-gradient-2"/><linearGradient id="linear-gradient-12" x1="8.95" y1="31.88" x2="8.95" y2="39.66" xlink:href="#linear-gradient-3"/><linearGradient id="linear-gradient-13" x1="16.49" y1="31.1" x2="16.49" y2="40.05" xlink:href="#linear-gradient-3"/><linearGradient id="linear-gradient-14" x1="22.97" y1="28.66" x2="13.79" y2="28.66" xlink:href="#linear-gradient-2"/><linearGradient id="linear-gradient-15" x1="13.62" y1="29.42" x2="24.1" y2="29.42" xlink:href="#linear-gradient-6"/><linearGradient id="linear-gradient-16" x1="8.95" y1="41.02" x2="8.95" y2="30.74" xlink:href="#linear-gradient-7"/><linearGradient id="linear-gradient-17" x1="0.61" y1="29.42" x2="12.7" y2="29.42" xlink:href="#linear-gradient-8"/><linearGradient id="linear-gradient-18" x1="1.7" y1="28.66" x2="13.06" y2="28.66" xlink:href="#linear-gradient"/><linearGradient id="linear-gradient-19" x1="35.92" y1="18.65" x2="35.92" y2="29.94" xlink:href="#linear-gradient"/><linearGradient id="linear-gradient-20" x1="37.36" y1="35.83" x2="44.9" y2="35.83" xlink:href="#linear-gradient-2"/><linearGradient id="linear-gradient-21" x1="33.59" y1="31.88" x2="33.59" y2="39.66" xlink:href="#linear-gradient-3"/><linearGradient id="linear-gradient-22" x1="41.13" y1="31.1" x2="41.13" y2="40.05" xlink:href="#linear-gradient-3"/><linearGradient id="linear-gradient-23" x1="47.61" y1="28.66" x2="38.42" y2="28.66" xlink:href="#linear-gradient-2"/><linearGradient id="linear-gradient-24" x1="38.26" y1="29.42" x2="48.74" y2="29.42" xlink:href="#linear-gradient-6"/><linearGradient id="linear-gradient-25" x1="33.58" y1="41.02" x2="33.58" y2="30.74" xlink:href="#linear-gradient-7"/><linearGradient id="linear-gradient-26" x1="25.25" y1="29.42" x2="37.34" y2="29.42" xlink:href="#linear-gradient-8"/><linearGradient id="linear-gradient-27" x1="26.34" y1="28.66" x2="37.7" y2="28.66" xlink:href="#linear-gradient"/><linearGradient id="linear-gradient-28" x1="0.72" y1="43.32" x2="0.72" y2="50.91" gradientUnits="userSpaceOnUse"><stop offset="0" stop-color="#fefae5"/><stop offset="1" stop-color="#fc0"/></linearGradient><linearGradient id="linear-gradient-29" x1="0" y1="43.68" x2="50.01" y2="43.68" xlink:href="#linear-gradient-28"/><linearGradient id="linear-gradient-30" y1="50.58" x2="50.01" y2="50.58" gradientUnits="userSpaceOnUse"><stop offset="0" stop-color="#fc0"/><stop offset="1" stop-color="#e3b600"/></linearGradient><linearGradient id="linear-gradient-31" x1="25.01" y1="44.45" x2="25.01" y2="49.94" xlink:href="#linear-gradient-28"/><linearGradient id="linear-gradient-32" x1="0.72" y1="52.93" x2="0.72" y2="60.52" xlink:href="#linear-gradient-28"/><linearGradient id="linear-gradient-33" x1="0" y1="53.28" x2="50.01" y2="53.28" xlink:href="#linear-gradient-28"/><linearGradient id="linear-gradient-34" y1="60.19" x2="50.01" y2="60.19" xlink:href="#linear-gradient-30"/><linearGradient id="linear-gradient-35" x1="25.01" y1="54.06" x2="25.01" y2="59.55" xlink:href="#linear-gradient-28"/><linearGradient id="linear-gradient-36" x1="0.72" y1="62.54" x2="0.72" y2="70.13" xlink:href="#linear-gradient-28"/><linearGradient id="linear-gradient-37" x1="0" y1="62.89" x2="50.01" y2="62.89" xlink:href="#linear-gradient-28"/><linearGradient id="linear-gradient-38" y1="69.8" x2="50.01" y2="69.8" xlink:href="#linear-gradient-30"/><linearGradient id="linear-gradient-39" x1="25.01" y1="63.67" x2="25.01" y2="69.16" xlink:href="#linear-gradient-28"/></defs><g id="Layer_2" data-name="Layer 2"><g id="Artwork"><g id="Colonel_Grade_4_-_Force_Colonel" data-name="Colonel (Grade 4) - Force Colonel"><polygon class="cls-1" points="25.03 12.83 22.15 8.87 25.04 0 25.04 12.82 25.03 12.83"/><polygon class="cls-2" points="25.04 12.83 32.58 23.22 25.04 17.74 25.04 12.84 25.04 12.83"/><polygon class="cls-3" points="25.04 12.84 25.04 17.74 17.49 23.22 25.03 12.84 25.04 12.84"/><polygon class="cls-4" points="25.04 12.84 29.7 14.35 32.58 23.22 25.04 12.83 25.04 12.84"/><polygon class="cls-5" points="25.04 12.83 27.92 8.87 37.25 8.87 25.05 12.83 25.04 12.83"/><polygon class="cls-6" points="25.04 12.82 25.04 0 27.92 8.87 25.04 12.83 25.04 12.82"/><polygon class="cls-7" points="25.05 12.83 37.25 8.87 29.7 14.35 25.04 12.84 25.05 12.83"/><polygon class="cls-8" points="25.03 12.84 17.49 23.22 20.37 14.35 25.04 12.84 25.03 12.84"/><polygon class="cls-9" points="25.04 12.84 20.37 14.35 12.83 8.87 25.03 12.83 25.04 12.84"/><polygon class="cls-10" points="25.03 12.83 12.83 8.87 22.15 8.87 25.03 12.83 25.03 12.83"/><polygon class="cls-11" points="12.71 30.64 9.84 26.68 12.72 17.81 12.72 30.63 12.71 30.64"/><polygon class="cls-12" points="12.72 30.64 20.26 41.03 12.72 35.55 12.72 30.64 12.72 30.64"/><polygon class="cls-13" points="12.72 30.64 12.72 35.55 5.17 41.03 12.71 30.65 12.72 30.64"/><polygon class="cls-14" points="12.72 30.64 17.38 32.16 20.26 41.03 12.72 30.64 12.72 30.64"/><polygon class="cls-15" points="12.72 30.64 15.6 26.68 24.93 26.68 12.73 30.64 12.72 30.64"/><polygon class="cls-6" points="12.72 30.63 12.72 17.81 15.6 26.68 12.72 30.64 12.72 30.63"/><polygon class="cls-16" points="12.73 30.64 24.93 26.68 17.38 32.16 12.72 30.64 12.73 30.64"/><polygon class="cls-17" points="12.71 30.65 5.17 41.03 8.05 32.16 12.72 30.64 12.71 30.65"/><polygon class="cls-18" points="12.72 30.64 8.05 32.16 0.51 26.68 12.71 30.64 12.72 30.64"/><polygon class="cls-19" points="12.71 30.64 0.51 26.68 9.84 26.68 12.71 30.64 12.71 30.64"/><polygon class="cls-20" points="37.35 30.64 34.47 26.68 37.36 17.81 37.36 30.63 37.35 30.64"/><polygon class="cls-21" points="37.36 30.64 44.9 41.03 37.36 35.55 37.36 30.64 37.36 30.64"/><polygon class="cls-22" points="37.36 30.64 37.36 35.55 29.81 41.03 37.35 30.65 37.36 30.64"/><polygon class="cls-23" points="37.36 30.64 42.02 32.16 44.9 41.03 37.36 30.64 37.36 30.64"/><polygon class="cls-24" points="37.36 30.64 40.24 26.68 49.56 26.68 37.36 30.64 37.36 30.64"/><polygon class="cls-6" points="37.36 30.63 37.36 17.81 40.24 26.68 37.36 30.64 37.36 30.63"/><polygon class="cls-25" points="37.36 30.64 49.56 26.68 42.02 32.16 37.36 30.64 37.36 30.64"/><polygon class="cls-26" points="37.35 30.65 29.81 41.03 32.69 32.16 37.35 30.64 37.35 30.65"/><polygon class="cls-27" points="37.35 30.64 32.69 32.16 25.15 26.68 37.35 30.64 37.35 30.64"/><polygon class="cls-28" points="37.35 30.64 25.15 26.68 34.47 26.68 37.35 30.64 37.35 30.64"/><polygon class="cls-29" points="1.42 49.86 1.42 44.39 1.43 44.39 0 42.96 0 51.3 1.43 49.86 1.42 49.86"/><polygon class="cls-30" points="48.58 44.39 50.01 42.96 0 42.96 1.43 44.39 48.58 44.39"/><polygon class="cls-31" points="48.58 49.86 1.43 49.86 0 51.3 50.01 51.3 48.58 49.86"/><polygon class="cls-32" points="48.58 44.39 48.59 44.39 48.59 49.86 48.58 49.86 50.01 51.3 50.01 42.96 48.58 44.39"/><rect class="cls-33" x="1.42" y="44.39" width="47.17" height="5.47"/><polygon class="cls-34" points="1.42 59.47 1.42 54 1.43 54 0 52.57 0 60.91 1.43 59.47 1.42 59.47"/><polygon class="cls-35" points="48.58 54 50.01 52.57 0 52.57 1.43 54 48.58 54"/><polygon class="cls-36" points="48.58 59.47 1.43 59.47 0 60.91 50.01 60.91 48.58 59.47"/><polygon class="cls-32" points="48.58 54 48.59 54 48.59 59.47 48.58 59.47 50.01 60.91 50.01 52.57 48.58 54"/><rect class="cls-37" x="1.42" y="54" width="47.17" height="5.47"/><polygon class="cls-38" points="1.42 69.08 1.42 63.61 1.43 63.61 0 62.18 0 70.52 1.43 69.08 1.42 69.08"/><polygon class="cls-39" points="48.58 63.61 50.01 62.18 0 62.18 1.43 63.61 48.58 63.61"/><polygon class="cls-40" points="48.58 69.08 1.43 69.08 0 70.52 50.01 70.52 48.58 69.08"/><polygon class="cls-32" points="48.58 63.61 48.59 63.61 48.59 69.08 48.58 69.08 50.01 70.52 50.01 62.18 48.58 63.61"/><rect class="cls-41" x="1.42" y="63.61" width="47.17" height="5.47"/></g></g></g></svg>