<svg xmlns="http://www.w3.org/2000/svg" xmlns:xlink="http://www.w3.org/1999/xlink" viewBox="0 0 50.01 50.94"><defs><style>.cls-1{fill:url(#linear-gradient);}</style><linearGradient id="linear-gradient" x1="7.8" y1="-2.13" x2="46.59" y2="36.66" gradientUnits="userSpaceOnUse"><stop offset="0" stop-color="#fafdfe"/><stop offset="0.25" stop-color="#def1fa"/><stop offset="0.47" stop-color="#b8d2e0"/><stop offset="0.73" stop-color="#b0c9d6"/><stop offset="0.74" stop-color="#afc8d5"/><stop offset="0.89" stop-color="#9fb7c3"/><stop offset="1" stop-color="#99b1bd"/></linearGradient></defs><g id="Layer_2" data-name="Layer 2"><g id="Artwork"><g id="Brigadier"><path class="cls-1" d="M16.92,19.38,3.17,0a53.47,53.47,0,0,0,.25,7.63c-.87-.5-2.5-1.5-2.5-1.5s.69,4.72,2.14,6.57A6.58,6.58,0,0,1,.32,10.93a17.38,17.38,0,0,0,3.79,7.42A13.39,13.39,0,0,1,.32,17C-1,16,2.26,21.5,5.48,23.68a6.88,6.88,0,0,1-2,.08c0-.08,1.61,2.17,2.58,2.66a7,7,0,0,1-2,.48c0-.08,1,1.94,2.86,2.18a2.44,2.44,0,0,1-1.75,1.19,9,9,0,0,0,5.06,2.12s-.79,1.27-1.84,1.27a10.1,10.1,0,0,0,4.34,1.15s.49,1.29-.32,1.85c0,0,4.44.73,7.1-2.34,0,3.23,2,3.47,2,4.68s-1.45,2.43-1.45,3.4A16.85,16.85,0,0,1,19,46s6,3,6,4.93C25,49,31,46,31,46a16.85,16.85,0,0,1-1.05-3.61c0-1-1.46-2.19-1.46-3.4s2-1.45,2-4.68c2.67,3.07,7.1,2.34,7.1,2.34-.8-.56-.32-1.85-.32-1.85a10.1,10.1,0,0,0,4.34-1.15c-1,0-1.84-1.27-1.84-1.27a9,9,0,0,0,5.07-2.12,2.47,2.47,0,0,1-1.76-1.19c1.85-.24,2.86-2.26,2.86-2.18a6.91,6.91,0,0,1-2-.48c1-.49,2.57-2.74,2.57-2.66a6.91,6.91,0,0,1-2-.08C47.76,21.5,51.07,16,49.69,17a13.39,13.39,0,0,1-3.79,1.37,17.24,17.24,0,0,0,3.79-7.42A6.58,6.58,0,0,1,47,12.7c1.45-1.85,2.14-6.57,2.14-6.57s-1.63,1-2.5,1.5A53.47,53.47,0,0,0,46.84,0L33.09,19.38A3.21,3.21,0,0,1,34,21.29c0,1-.82,5.19-3.13,5.19S28.69,25.41,28.69,25s.58-.56,1-.56.87-.67.87-1.61-1.17-3.25-4.87-3.25a12.86,12.86,0,0,0-2.8.3c-1.17.34-.54,1-1.59,1.06-1.3.11-2.23.92-2.23,1.83A2.14,2.14,0,0,0,20.49,25c-.14-.44-.25-.84,0-1.06a1.27,1.27,0,0,1,1.89,1c0,1-.7,1.32-1.48,1.32-1.68,0-2.7,0-3.7-.88a5.42,5.42,0,0,1-1.43-3.87A2.73,2.73,0,0,1,16.92,19.38Z"/></g></g></g></svg>