<svg xmlns="http://www.w3.org/2000/svg" xmlns:xlink="http://www.w3.org/1999/xlink" viewBox="0 0 50.01 57.96"><defs><style>.cls-1{fill:url(#linear-gradient);}.cls-2{fill:#def1fa;}.cls-3{fill:url(#linear-gradient-2);}.cls-4{fill:url(#linear-gradient-3);}.cls-5{fill:#b0c9d6;}.cls-6{fill:url(#linear-gradient-4);}</style><linearGradient id="linear-gradient" x1="9.15" y1="-1.96" x2="44.9" y2="33.79" gradientUnits="userSpaceOnUse"><stop offset="0" stop-color="#fafdfe"/><stop offset="0.25" stop-color="#def1fa"/><stop offset="0.47" stop-color="#b8d2e0"/><stop offset="0.73" stop-color="#b0c9d6"/><stop offset="0.74" stop-color="#afc8d5"/><stop offset="0.89" stop-color="#9fb7c3"/><stop offset="1" stop-color="#99b1bd"/></linearGradient><linearGradient id="linear-gradient-2" y1="48.63" x2="50.01" y2="48.63" gradientUnits="userSpaceOnUse"><stop offset="0" stop-color="#fafdfe"/><stop offset="1" stop-color="#def1fa"/></linearGradient><linearGradient id="linear-gradient-3" y1="57.24" x2="50.01" y2="57.24" gradientUnits="userSpaceOnUse"><stop offset="0" stop-color="#b0c9d6"/><stop offset="1" stop-color="#99b1bd"/></linearGradient><linearGradient id="linear-gradient-4" x1="25.01" y1="49.42" x2="25.01" y2="56.63" gradientUnits="userSpaceOnUse"><stop offset="0" stop-color="#fafdfe"/><stop offset="0.26" stop-color="#dce8ee"/><stop offset="0.54" stop-color="#c4d7e1"/><stop offset="0.79" stop-color="#b5cdd9"/><stop offset="1" stop-color="#b0c9d6"/></linearGradient></defs><g id="Layer_2" data-name="Layer 2"><g id="Artwork"><g id="Brigadier_Grade_2_" data-name="Brigadier (Grade 2)"><path class="cls-1" d="M17.56,17.86,4.89,0a48.38,48.38,0,0,0,.23,7c-.81-.46-2.31-1.39-2.31-1.39s.63,4.36,2,6.07a6.06,6.06,0,0,1-2.53-1.64,16,16,0,0,0,3.5,6.84,12.4,12.4,0,0,1-3.5-1.26C1,14.76,4,19.81,7,21.82a6.3,6.3,0,0,1-1.85.07,13.28,13.28,0,0,0,2.37,2.46,6.23,6.23,0,0,1-1.81.44,4.17,4.17,0,0,0,2.63,2,2.26,2.26,0,0,1-1.62,1.1,8.33,8.33,0,0,0,4.67,2S10.67,31,9.71,31a9.37,9.37,0,0,0,4,1.06s.45,1.19-.29,1.71c0,0,4.09.67,6.54-2.16,0,3,1.87,3.2,1.87,4.31s-1.35,2.24-1.35,3.13a15.74,15.74,0,0,1-1,3.34S25,45.15,25,46.94c0-1.79,5.5-4.53,5.5-4.53a15.74,15.74,0,0,1-1-3.34c0-.89-1.34-2-1.34-3.13s1.86-1.33,1.86-4.31c2.46,2.83,6.55,2.16,6.55,2.16-.75-.52-.3-1.71-.3-1.71a9.44,9.44,0,0,0,4-1.06c-1,0-1.7-1.17-1.7-1.17a8.33,8.33,0,0,0,4.67-2,2.26,2.26,0,0,1-1.62-1.1,4.2,4.2,0,0,0,2.64-2,6.23,6.23,0,0,1-1.82-.44,13.28,13.28,0,0,0,2.37-2.46A6.3,6.3,0,0,1,43,21.82c3-2,6-7.06,4.76-6.17a12.4,12.4,0,0,1-3.5,1.26,16,16,0,0,0,3.5-6.84,6.06,6.06,0,0,1-2.53,1.64c1.34-1.71,2-6.07,2-6.07S45.7,6.57,44.9,7a50.26,50.26,0,0,0,.23-7L32.45,17.86a3,3,0,0,1,.89,1.76c0,.91-.76,4.79-2.89,4.79s-2.05-1-2.05-1.37.54-.52,1-.52.8-.62.8-1.48-1.07-3-4.49-3a12.26,12.26,0,0,0-2.57.27c-1.08.31-.5.89-1.47,1-1.2.1-2.06.85-2.06,1.68a2,2,0,0,0,1.29,2c-.14-.4-.23-.77,0-1a1.17,1.17,0,0,1,1.75.94c0,.92-.65,1.22-1.37,1.22-1.55,0-2.49.05-3.41-.81a5,5,0,0,1-1.32-3.57A2.51,2.51,0,0,1,17.56,17.86Z"/><polygon class="cls-2" points="1.42 56.53 1.42 49.35 1.43 49.35 0 47.91 0 57.96 1.43 56.53 1.42 56.53"/><polygon class="cls-3" points="48.58 49.35 50.01 47.91 0 47.91 1.43 49.35 48.58 49.35"/><polygon class="cls-4" points="48.58 56.53 1.43 56.53 0 57.96 50.01 57.96 48.58 56.53"/><polygon class="cls-5" points="48.58 49.35 48.59 49.35 48.59 56.53 48.58 56.53 50.01 57.96 50.01 47.91 48.58 49.35"/><rect class="cls-6" x="1.42" y="49.35" width="47.17" height="7.18"/></g></g></g></svg>