<svg xmlns="http://www.w3.org/2000/svg" xmlns:xlink="http://www.w3.org/1999/xlink" viewBox="0 0 50.01 66.69"><defs><style>.cls-1{fill:url(#linear-gradient);}.cls-2{fill:#def1fa;}.cls-3{fill:url(#linear-gradient-2);}.cls-4{fill:url(#linear-gradient-3);}.cls-5{fill:#b0c9d6;}.cls-6{fill:url(#linear-gradient-4);}.cls-7{fill:url(#linear-gradient-5);}.cls-8{fill:url(#linear-gradient-6);}.cls-9{fill:url(#linear-gradient-7);}</style><linearGradient id="linear-gradient" x1="9.84" y1="-1.88" x2="44.03" y2="32.31" gradientUnits="userSpaceOnUse"><stop offset="0" stop-color="#fafdfe"/><stop offset="0.25" stop-color="#def1fa"/><stop offset="0.47" stop-color="#b8d2e0"/><stop offset="0.73" stop-color="#b0c9d6"/><stop offset="0.74" stop-color="#afc8d5"/><stop offset="0.89" stop-color="#9fb7c3"/><stop offset="1" stop-color="#99b1bd"/></linearGradient><linearGradient id="linear-gradient-2" y1="46.49" x2="50.01" y2="46.49" gradientUnits="userSpaceOnUse"><stop offset="0" stop-color="#fafdfe"/><stop offset="1" stop-color="#def1fa"/></linearGradient><linearGradient id="linear-gradient-3" y1="55.1" x2="50.01" y2="55.1" gradientUnits="userSpaceOnUse"><stop offset="0" stop-color="#b0c9d6"/><stop offset="1" stop-color="#99b1bd"/></linearGradient><linearGradient id="linear-gradient-4" x1="25.01" y1="47.28" x2="25.01" y2="54.49" gradientUnits="userSpaceOnUse"><stop offset="0" stop-color="#fafdfe"/><stop offset="0.26" stop-color="#dce8ee"/><stop offset="0.54" stop-color="#c4d7e1"/><stop offset="0.79" stop-color="#b5cdd9"/><stop offset="1" stop-color="#b0c9d6"/></linearGradient><linearGradient id="linear-gradient-5" y1="57.36" x2="50.01" y2="57.36" xlink:href="#linear-gradient-2"/><linearGradient id="linear-gradient-6" y1="65.98" x2="50.01" y2="65.98" xlink:href="#linear-gradient-3"/><linearGradient id="linear-gradient-7" x1="25.01" y1="58.16" x2="25.01" y2="65.36" xlink:href="#linear-gradient-4"/></defs><g id="Layer_2" data-name="Layer 2"><g id="Artwork"><g id="Brigadier_Grade_3_" data-name="Brigadier (Grade 3)"><path class="cls-1" d="M17.88,17.07,5.77,0A46.61,46.61,0,0,0,6,6.72C5.21,6.28,3.78,5.4,3.78,5.4s.61,4.16,1.89,5.8A5.89,5.89,0,0,1,3.25,9.63a15.28,15.28,0,0,0,3.34,6.54A11.67,11.67,0,0,1,3.25,15C2,14.11,5,19,7.8,20.87A6.11,6.11,0,0,1,6,20.94,12.58,12.58,0,0,0,8.3,23.28a6.12,6.12,0,0,1-1.74.43,4,4,0,0,0,2.52,1.92,2.16,2.16,0,0,1-1.55,1.05A7.92,7.92,0,0,0,12,28.54s-.69,1.13-1.62,1.13a9.09,9.09,0,0,0,3.83,1s.42,1.13-.29,1.63c0,0,3.91.64,6.26-2.06,0,2.84,1.78,3,1.78,4.12s-1.28,2.14-1.28,3a14.93,14.93,0,0,1-.92,3.19S25,43.17,25,44.89c0-1.72,5.26-4.34,5.26-4.34a14.81,14.81,0,0,1-.93-3.19c0-.85-1.28-1.92-1.28-3s1.78-1.28,1.78-4.12c2.35,2.7,6.26,2.06,6.26,2.06-.71-.5-.29-1.63-.29-1.63a9.09,9.09,0,0,0,3.83-1c-.93,0-1.62-1.13-1.62-1.13a7.92,7.92,0,0,0,4.46-1.86,2.19,2.19,0,0,1-1.55-1.05,4,4,0,0,0,2.52-1.92,6.21,6.21,0,0,1-1.74-.43A12.58,12.58,0,0,0,44,20.94a6.13,6.13,0,0,1-1.77-.07C45.06,19,48,14.11,46.76,15a11.67,11.67,0,0,1-3.34,1.21,15.28,15.28,0,0,0,3.34-6.54,5.89,5.89,0,0,1-2.42,1.57c1.28-1.64,1.89-5.8,1.89-5.8S44.8,6.28,44,6.72A45.94,45.94,0,0,0,44.25,0L32.13,17.07A2.86,2.86,0,0,1,33,18.76c0,.87-.73,4.58-2.76,4.58s-2-.94-2-1.31.51-.49.91-.49.77-.6.77-1.42-1-2.86-4.3-2.86a11.43,11.43,0,0,0-2.46.26c-1,.3-.48.85-1.4.93-1.15.1-2,.82-2,1.61A1.87,1.87,0,0,0,21,22c-.13-.38-.22-.73,0-.93a1.12,1.12,0,0,1,1.67.91c0,.88-.62,1.16-1.31,1.16-1.48,0-2.38.05-3.26-.78A4.77,4.77,0,0,1,16.9,19,2.43,2.43,0,0,1,17.88,17.07Z"/><polygon class="cls-2" points="1.42 54.39 1.42 47.21 1.43 47.21 0 45.77 0 55.82 1.43 54.39 1.42 54.39"/><polygon class="cls-3" points="48.58 47.21 50.01 45.77 0 45.77 1.43 47.21 48.58 47.21"/><polygon class="cls-4" points="48.58 54.39 1.43 54.39 0 55.82 50.01 55.82 48.58 54.39"/><polygon class="cls-5" points="48.58 47.21 48.59 47.21 48.59 54.39 48.58 54.39 50.01 55.82 50.01 45.77 48.58 47.21"/><rect class="cls-6" x="1.42" y="47.21" width="47.17" height="7.18"/><polygon class="cls-2" points="1.42 65.26 1.42 58.08 1.43 58.08 0 56.65 0 66.69 1.43 65.26 1.42 65.26"/><polygon class="cls-7" points="48.58 58.08 50.01 56.65 0 56.65 1.43 58.08 48.58 58.08"/><polygon class="cls-8" points="48.58 65.26 1.43 65.26 0 66.69 50.01 66.69 48.58 65.26"/><polygon class="cls-5" points="48.58 58.08 48.59 58.08 48.59 65.26 48.58 65.26 50.01 66.69 50.01 56.65 48.58 58.08"/><rect class="cls-9" x="1.42" y="58.08" width="47.17" height="7.18"/></g></g></g></svg>