<svg xmlns="http://www.w3.org/2000/svg" xmlns:xlink="http://www.w3.org/1999/xlink" viewBox="0 0 48.57 67.52"><defs><style>.cls-1{fill:url(#linear-gradient);}.cls-2{fill:url(#linear-gradient-2);}.cls-3{fill:url(#linear-gradient-3);}.cls-4{fill:#fc0;}.cls-5{fill:url(#linear-gradient-4);}.cls-6{fill:url(#linear-gradient-5);}.cls-7{fill:url(#linear-gradient-6);}.cls-8{fill:url(#linear-gradient-7);}.cls-9{fill:url(#linear-gradient-8);}.cls-10{fill:url(#linear-gradient-9);}.cls-11{fill:url(#linear-gradient-10);}.cls-12{fill:url(#linear-gradient-11);}.cls-13{fill:url(#linear-gradient-12);}.cls-14{fill:url(#linear-gradient-13);}</style><linearGradient id="linear-gradient" x1="0.72" y1="40.33" x2="0.72" y2="47.91" gradientUnits="userSpaceOnUse"><stop offset="0" stop-color="#fefae5"/><stop offset="1" stop-color="#fc0"/></linearGradient><linearGradient id="linear-gradient-2" x1="0" y1="40.68" x2="48.57" y2="40.68" xlink:href="#linear-gradient"/><linearGradient id="linear-gradient-3" y1="47.58" x2="48.57" y2="47.58" gradientUnits="userSpaceOnUse"><stop offset="0" stop-color="#fc0"/><stop offset="1" stop-color="#e3b600"/></linearGradient><linearGradient id="linear-gradient-4" x1="24.29" y1="41.45" x2="24.29" y2="46.94" xlink:href="#linear-gradient"/><linearGradient id="linear-gradient-5" x1="0.72" y1="49.94" x2="0.72" y2="57.52" xlink:href="#linear-gradient"/><linearGradient id="linear-gradient-6" x1="0" y1="50.29" x2="48.57" y2="50.29" xlink:href="#linear-gradient"/><linearGradient id="linear-gradient-7" y1="57.19" x2="48.57" y2="57.19" xlink:href="#linear-gradient-3"/><linearGradient id="linear-gradient-8" x1="24.29" y1="51.06" x2="24.29" y2="56.55" xlink:href="#linear-gradient"/><linearGradient id="linear-gradient-9" x1="0.72" y1="59.55" x2="0.72" y2="67.13" xlink:href="#linear-gradient"/><linearGradient id="linear-gradient-10" x1="0" y1="59.9" x2="48.57" y2="59.9" xlink:href="#linear-gradient"/><linearGradient id="linear-gradient-11" y1="66.8" x2="48.57" y2="66.8" xlink:href="#linear-gradient-3"/><linearGradient id="linear-gradient-12" x1="24.29" y1="60.67" x2="24.29" y2="66.16" xlink:href="#linear-gradient"/><linearGradient id="linear-gradient-13" x1="11.12" y1="-1.63" x2="40.8" y2="28.05" gradientUnits="userSpaceOnUse"><stop offset="0" stop-color="#fafdfe"/><stop offset="0.25" stop-color="#def1fa"/><stop offset="0.47" stop-color="#b8d2e0"/><stop offset="0.73" stop-color="#b0c9d6"/><stop offset="0.74" stop-color="#afc8d5"/><stop offset="0.89" stop-color="#9fb7c3"/><stop offset="1" stop-color="#99b1bd"/></linearGradient></defs><g id="Layer_2" data-name="Layer 2"><g id="Artwork"><g id="Brigadier_Grade_4_-_Brigadier_General" data-name="Brigadier (Grade 4) - Brigadier General"><polygon class="cls-1" points="1.42 46.87 1.42 41.4 1.43 41.4 0 39.96 0 48.3 1.43 46.87 1.42 46.87"/><polygon class="cls-2" points="47.14 41.4 48.57 39.96 0 39.96 1.43 41.4 47.14 41.4"/><polygon class="cls-3" points="47.14 46.87 1.43 46.87 0 48.3 48.57 48.3 47.14 46.87"/><polygon class="cls-4" points="47.14 41.4 47.15 41.4 47.15 46.87 47.14 46.87 48.57 48.3 48.57 39.96 47.14 41.4"/><rect class="cls-5" x="1.42" y="41.4" width="45.73" height="5.47"/><polygon class="cls-6" points="1.42 56.48 1.42 51.01 1.43 51.01 0 49.57 0 57.91 1.43 56.48 1.42 56.48"/><polygon class="cls-7" points="47.14 51.01 48.57 49.57 0 49.57 1.43 51.01 47.14 51.01"/><polygon class="cls-8" points="47.14 56.48 1.43 56.48 0 57.91 48.57 57.91 47.14 56.48"/><polygon class="cls-4" points="47.14 51.01 47.15 51.01 47.15 56.48 47.14 56.48 48.57 57.91 48.57 49.57 47.14 51.01"/><rect class="cls-9" x="1.42" y="51" width="45.73" height="5.47"/><polygon class="cls-10" points="1.42 66.09 1.42 60.61 1.43 60.61 0 59.18 0 67.52 1.43 66.09 1.42 66.09"/><polygon class="cls-11" points="47.14 60.61 48.57 59.18 0 59.18 1.43 60.61 47.14 60.61"/><polygon class="cls-12" points="47.14 66.09 1.43 66.09 0 67.52 48.57 67.52 47.14 66.09"/><polygon class="cls-4" points="47.14 60.61 47.15 60.61 47.15 66.09 47.14 66.09 48.57 67.52 48.57 59.18 47.14 60.61"/><rect class="cls-13" x="1.42" y="60.61" width="45.73" height="5.47"/><path class="cls-14" d="M18.1,14.82,7.58,0a40,40,0,0,0,.19,5.83C7.1,5.45,5.86,4.69,5.86,4.69s.52,3.61,1.64,5A5,5,0,0,1,5.4,8.36,13.07,13.07,0,0,0,8.3,14a10.32,10.32,0,0,1-2.9-1c-1.05-.74,1.48,3.46,3.95,5.13a5.41,5.41,0,0,1-1.54.06,11,11,0,0,0,2,2,5.05,5.05,0,0,1-1.51.37,3.48,3.48,0,0,0,2.19,1.67,1.88,1.88,0,0,1-1.35.91A6.84,6.84,0,0,0,13,24.78s-.6,1-1.41,1a7.8,7.8,0,0,0,3.32.87s.37,1-.24,1.42c0,0,3.39.56,5.43-1.79,0,2.47,1.55,2.66,1.55,3.58s-1.12,1.86-1.12,2.6a13.08,13.08,0,0,1-.8,2.77s4.57,2.27,4.57,3.76c0-1.49,4.56-3.76,4.56-3.76a13.08,13.08,0,0,1-.8-2.77c0-.74-1.12-1.67-1.12-2.6s1.55-1.11,1.55-3.58c2,2.35,5.44,1.79,5.44,1.79-.62-.43-.25-1.42-.25-1.42A7.8,7.8,0,0,0,37,25.76c-.8,0-1.41-1-1.41-1a6.84,6.84,0,0,0,3.88-1.62,1.88,1.88,0,0,1-1.35-.91,3.48,3.48,0,0,0,2.19-1.67,5.05,5.05,0,0,1-1.51-.37,11,11,0,0,0,2-2,5.41,5.41,0,0,1-1.54-.06c2.47-1.67,5-5.87,4-5.13a10.22,10.22,0,0,1-2.9,1,13.07,13.07,0,0,0,2.9-5.68,5,5,0,0,1-2.1,1.36c1.12-1.42,1.64-5,1.64-5s-1.24.76-1.91,1.14A40,40,0,0,0,41,0L30.47,14.82a2.48,2.48,0,0,1,.73,1.47c0,.76-.63,4-2.4,4s-1.7-.82-1.7-1.13.45-.43.8-.43.66-.52.66-1.23S27.67,15,24.83,15a10.05,10.05,0,0,0-2.14.23c-.9.26-.41.74-1.21.81-1,.09-1.72.71-1.72,1.4a1.63,1.63,0,0,0,1.07,1.68c-.11-.33-.19-.63,0-.8a1,1,0,0,1,1.45.78c0,.77-.54,1-1.14,1-1.28,0-2.06,0-2.83-.67a4.16,4.16,0,0,1-1.09-3A2.11,2.11,0,0,1,18.1,14.82Z"/></g></g></g></svg>