<svg xmlns="http://www.w3.org/2000/svg" xmlns:xlink="http://www.w3.org/1999/xlink" viewBox="0 0 50.49 51.49"><defs><style>.cls-1{fill:url(#linear-gradient);}.cls-2{fill:url(#linear-gradient-2);}.cls-3{fill:url(#linear-gradient-3);}.cls-4{fill:url(#linear-gradient-4);}.cls-5{fill:url(#linear-gradient-5);}.cls-6{fill:url(#linear-gradient-6);}.cls-7{fill:url(#linear-gradient-7);}.cls-8{fill:url(#linear-gradient-8);}.cls-9{fill:url(#linear-gradient-9);}.cls-10{fill:url(#linear-gradient-10);}.cls-11{fill:url(#linear-gradient-11);}.cls-12{fill:url(#linear-gradient-12);}.cls-13{fill:url(#linear-gradient-13);}.cls-14{fill:url(#linear-gradient-14);}.cls-15{fill:#fefae5;}.cls-16{fill:url(#linear-gradient-15);}.cls-17{fill:url(#linear-gradient-16);}.cls-18{fill:url(#linear-gradient-17);}.cls-19{fill:url(#linear-gradient-18);}.cls-20{fill:url(#linear-gradient-19);}.cls-21{fill:url(#linear-gradient-20);}.cls-22{fill:url(#linear-gradient-21);}.cls-23{fill:url(#linear-gradient-22);}.cls-24{fill:url(#linear-gradient-23);}.cls-25{fill:url(#linear-gradient-24);}.cls-26{fill:url(#linear-gradient-25);}.cls-27{fill:url(#linear-gradient-26);}.cls-28{fill:url(#linear-gradient-27);}.cls-29{fill:url(#linear-gradient-28);}.cls-30{fill:#fc0;}.cls-31{fill:url(#linear-gradient-29);}.cls-32{fill:url(#linear-gradient-30);}.cls-33{fill:url(#linear-gradient-31);}.cls-34{fill:url(#linear-gradient-32);}.cls-35{fill:url(#linear-gradient-33);}.cls-36{fill:url(#linear-gradient-34);}.cls-37{fill:url(#linear-gradient-35);}.cls-38{fill:url(#linear-gradient-36);}.cls-39{fill:url(#linear-gradient-37);}.cls-40{fill:url(#linear-gradient-38);}.cls-41{fill:url(#linear-gradient-39);}.cls-42{fill:url(#linear-gradient-40);}.cls-43{fill:url(#linear-gradient-41);}.cls-44{fill:url(#linear-gradient-42);}.cls-45{fill:url(#linear-gradient-43);}.cls-46{fill:url(#linear-gradient-44);}.cls-47{fill:url(#linear-gradient-45);}.cls-48{fill:url(#linear-gradient-46);}.cls-49{fill:url(#linear-gradient-47);}.cls-50{fill:url(#linear-gradient-48);}</style><linearGradient id="linear-gradient" x1="18.09" y1="47.58" x2="30.96" y2="47.58" gradientUnits="userSpaceOnUse"><stop offset="0" stop-color="#fc0"/><stop offset="1" stop-color="#e3b600"/></linearGradient><linearGradient id="linear-gradient-2" x1="46.06" y1="21.96" x2="41.94" y2="17.84" gradientUnits="userSpaceOnUse"><stop offset="0" stop-color="#e3b600"/><stop offset="1" stop-color="#bf872b"/></linearGradient><linearGradient id="linear-gradient-3" x1="46.62" y1="21.51" x2="50.45" y2="17.68" gradientUnits="userSpaceOnUse"><stop offset="0" stop-color="#e3b600"/><stop offset="1" stop-color="#fefae5"/></linearGradient><linearGradient id="linear-gradient-4" x1="41.75" y1="21.65" x2="50.49" y2="21.65" gradientUnits="userSpaceOnUse"><stop offset="0" stop-color="#fefae5"/><stop offset="0.48" stop-color="#fc0"/><stop offset="1" stop-color="#e3b600"/></linearGradient><linearGradient id="linear-gradient-5" x1="42.58" y1="28.38" x2="44.95" y2="28.38" xlink:href="#linear-gradient-2"/><linearGradient id="linear-gradient-6" x1="43.94" y1="29.91" x2="50.28" y2="29.91" xlink:href="#linear-gradient-3"/><linearGradient id="linear-gradient-7" x1="40.31" y1="29.8" x2="44.31" y2="29.8" gradientUnits="userSpaceOnUse"><stop offset="0" stop-color="#fefae5"/><stop offset="1" stop-color="#fc0"/></linearGradient><linearGradient id="linear-gradient-8" x1="38.29" y1="34.76" x2="40.61" y2="34.76" xlink:href="#linear-gradient-2"/><linearGradient id="linear-gradient-9" x1="38.29" y1="37.51" x2="46.01" y2="37.51" xlink:href="#linear-gradient-3"/><linearGradient id="linear-gradient-10" x1="36.08" y1="34.57" x2="38.46" y2="35.95" xlink:href="#linear-gradient-7"/><linearGradient id="linear-gradient-11" x1="33.42" y1="36.88" x2="33.42" y2="42.63" xlink:href="#linear-gradient-2"/><linearGradient id="linear-gradient-12" x1="33.26" y1="42.06" x2="39.39" y2="43.34" gradientUnits="userSpaceOnUse"><stop offset="0" stop-color="#e3b600"/><stop offset="1" stop-color="#fc0"/></linearGradient><linearGradient id="linear-gradient-13" x1="30.73" y1="37.64" x2="33.98" y2="42.89" xlink:href="#linear-gradient-7"/><linearGradient id="linear-gradient-14" x1="38.67" y1="11.48" x2="44.75" y2="13.68" gradientUnits="userSpaceOnUse"><stop offset="0" stop-color="#fc0"/><stop offset="1" stop-color="#fefae5"/></linearGradient><linearGradient id="linear-gradient-15" x1="39.32" y1="12.45" x2="47.73" y2="12.45" xlink:href="#linear-gradient-7"/><linearGradient id="linear-gradient-16" x1="33.57" y1="6.71" x2="41.26" y2="6.71" xlink:href="#linear-gradient-14"/><linearGradient id="linear-gradient-17" x1="40.26" y1="9.14" x2="40.01" y2="0.22" gradientUnits="userSpaceOnUse"><stop offset="0" stop-color="#fc0"/><stop offset="0.02" stop-color="#ffce09"/><stop offset="0.12" stop-color="#ffd83c"/><stop offset="0.23" stop-color="#ffe169"/><stop offset="0.34" stop-color="#fee98f"/><stop offset="0.45" stop-color="#feefae"/><stop offset="0.57" stop-color="#fef4c7"/><stop offset="0.7" stop-color="#fef7d8"/><stop offset="0.83" stop-color="#fef9e2"/><stop offset="1" stop-color="#fefae5"/></linearGradient><linearGradient id="linear-gradient-18" x1="35.33" y1="6.99" x2="43.66" y2="4.41" xlink:href="#linear-gradient-7"/><linearGradient id="linear-gradient-19" x1="20.99" y1="44.64" x2="32.97" y2="50.66" xlink:href="#linear-gradient"/><linearGradient id="linear-gradient-20" x1="-483.04" y1="21.96" x2="-487.17" y2="17.84" gradientTransform="matrix(-1, 0, 0, 1, -478.62, 0)" xlink:href="#linear-gradient-3"/><linearGradient id="linear-gradient-21" x1="0.48" y1="17.36" x2="4.32" y2="22.19" xlink:href="#linear-gradient"/><linearGradient id="linear-gradient-22" x1="-0.7" y1="21.65" x2="5.63" y2="21.65" xlink:href="#linear-gradient-7"/><linearGradient id="linear-gradient-23" x1="6.43" y1="30.56" x2="7.1" y2="24.81" xlink:href="#linear-gradient-14"/><linearGradient id="linear-gradient-24" x1="5.61" y1="30.78" x2="0.36" y2="27.95" xlink:href="#linear-gradient"/><linearGradient id="linear-gradient-25" x1="3.54" y1="31.03" x2="10.46" y2="28.86" xlink:href="#linear-gradient"/><linearGradient id="linear-gradient-26" x1="10.99" y1="36.9" x2="11.24" y2="30.56" xlink:href="#linear-gradient"/><linearGradient id="linear-gradient-27" x1="3.4" y1="36.15" x2="11.9" y2="37.98" xlink:href="#linear-gradient-7"/><linearGradient id="linear-gradient-28" x1="6.78" y1="38.67" x2="13.86" y2="35" xlink:href="#linear-gradient"/><linearGradient id="linear-gradient-29" x1="-495.85" y1="42.06" x2="-489.72" y2="43.34" gradientTransform="matrix(-1, 0, 0, 1, -478.62, 0)" xlink:href="#linear-gradient-14"/><linearGradient id="linear-gradient-30" x1="14.43" y1="44.6" x2="19.6" y2="38.6" gradientUnits="userSpaceOnUse"><stop offset="0" stop-color="#e3b600"/><stop offset="0.9" stop-color="#fc0"/><stop offset="1" stop-color="#fefae5"/></linearGradient><linearGradient id="linear-gradient-31" x1="5.86" y1="13.7" x2="11.94" y2="10.87" xlink:href="#linear-gradient-3"/><linearGradient id="linear-gradient-32" x1="3.75" y1="10.39" x2="6.58" y2="12.56" xlink:href="#linear-gradient"/><linearGradient id="linear-gradient-33" x1="2.03" y1="11.25" x2="8.19" y2="14.66" xlink:href="#linear-gradient-7"/><linearGradient id="linear-gradient-34" x1="10.07" y1="6.71" x2="17.15" y2="6.71" xlink:href="#linear-gradient-14"/><linearGradient id="linear-gradient-35" x1="10.34" y1="1.04" x2="10.34" y2="7.21" xlink:href="#linear-gradient"/><linearGradient id="linear-gradient-36" x1="7.71" y1="1.9" x2="13.63" y2="10.15" xlink:href="#linear-gradient-7"/><linearGradient id="linear-gradient-37" x1="13.68" y1="25.53" x2="18.94" y2="20.26" gradientUnits="userSpaceOnUse"><stop offset="0" stop-color="#b8d2e0"/><stop offset="1" stop-color="#b0c9d6"/></linearGradient><linearGradient id="linear-gradient-38" x1="16.02" y1="23.41" x2="18.21" y2="25.6" gradientUnits="userSpaceOnUse"><stop offset="0" stop-color="#b0c9d6"/><stop offset="1" stop-color="#99b1bd"/></linearGradient><linearGradient id="linear-gradient-39" x1="13.94" y1="19.29" x2="17.12" y2="22.48" gradientUnits="userSpaceOnUse"><stop offset="0" stop-color="#fafdfe"/><stop offset="1" stop-color="#def1fa"/></linearGradient><linearGradient id="linear-gradient-40" x1="31.41" y1="25.53" x2="36.67" y2="20.26" xlink:href="#linear-gradient-37"/><linearGradient id="linear-gradient-41" x1="33.75" y1="23.41" x2="35.94" y2="25.6" xlink:href="#linear-gradient-38"/><linearGradient id="linear-gradient-42" x1="31.67" y1="19.29" x2="34.85" y2="22.48" xlink:href="#linear-gradient-39"/><linearGradient id="linear-gradient-43" x1="22.54" y1="14.27" x2="27.8" y2="9" xlink:href="#linear-gradient-37"/><linearGradient id="linear-gradient-44" x1="24.88" y1="12.15" x2="27.07" y2="14.34" xlink:href="#linear-gradient-38"/><linearGradient id="linear-gradient-45" x1="22.8" y1="8.03" x2="25.99" y2="11.22" xlink:href="#linear-gradient-39"/><linearGradient id="linear-gradient-46" x1="22.54" y1="35.14" x2="27.8" y2="29.88" xlink:href="#linear-gradient-37"/><linearGradient id="linear-gradient-47" x1="24.88" y1="33.03" x2="27.07" y2="35.22" xlink:href="#linear-gradient-38"/><linearGradient id="linear-gradient-48" x1="22.8" y1="28.91" x2="25.99" y2="32.09" xlink:href="#linear-gradient-39"/></defs><g id="Layer_2" data-name="Layer 2"><g id="Artwork"><g id="General_Grade_3_" data-name="General (Grade 3)"><path class="cls-1" d="M29.42,44.27l.26.64c-.2.06-.31,0-.5,0-4.58,1.93-8.36,4.63-9.25,6.49a2.22,2.22,0,0,1-2.6-1.94A27.09,27.09,0,0,1,28.7,44c.17,0,0-.31.2-.35Z"/><path class="cls-2" d="M46.09,20.88l0,0h0V23.6c-2.07-2.6-3.58-4.5-4.1-6.78C43.75,17.5,45.28,20,46.09,20.88Z"/><path class="cls-3" d="M46.12,20.91l0,0c.82-.9,2.35-3.38,4.07-4.06-.51,2.28-2,4.18-4.09,6.78V20.91Z"/><path class="cls-4" d="M41.88,16.76a.84.84,0,0,0,.14.06c.52,2.28,2,4.18,4.1,6.78,2.06-2.6,3.57-4.5,4.09-6.78l.15-.06c0,4.28,1.18,6.47-3.57,9.75-.15.11-.41-.18-.66-.18s-.54.29-.68.18C40.7,23.23,41.88,21,41.88,16.76Z"/><path class="cls-5" d="M44.94,29.75s0,0,0,0h0l-1,2.5c-.94-3.19-1.63-5.52-1.25-7.83C44,25.74,44.52,28.61,44.94,29.75Z"/><path class="cls-6" d="M45,29.79l0,0c1.1-.52,3.45-2.25,5.3-2.23-1.33,1.91-3.46,3.1-6.34,4.75l1-2.5Z"/><path class="cls-7" d="M42.58,24.35l.11.11c-.38,2.31.31,4.64,1.25,7.83,2.89-1.64,5-2.83,6.34-4.75h.16c-1.61,4-1.34,6.44-7,7.7-.16,0-.3-.33-.54-.42s-.6.06-.69-.09C39.05,29.91,41,28.32,42.58,24.35Z"/><path class="cls-8" d="M40.22,36.67v0h0l-1.93,1.88c.43-3.29.73-5.7,2-7.66C41,32.63,40.3,35.46,40.22,36.67Z"/><path class="cls-9" d="M40.22,36.71h0c1.21,0,4.06-.68,5.75.09-2,1.21-4.42,1.44-7.72,1.79l1.93-1.88Z"/><path class="cls-10" d="M40.23,30.78l.06.15c-1.27,2-1.57,4.37-2,7.66C41.6,38.25,44,38,46,36.8l.14.05c-3.07,3-3.81,5.36-9.48,4.25-.17,0-.15-.42-.33-.6s-.58-.18-.6-.36C34.77,34.45,37.17,33.77,40.23,30.78Z"/><path class="cls-11" d="M33.9,41.34s0,0,0,0h0l-2.28,1.43c1.1-3.13,1.9-5.42,3.55-7.08C35.51,37.55,34.23,40.17,33.9,41.34Z"/><path class="cls-12" d="M33.89,41.38h0c1.19.21,4.11.18,5.6,1.28-2.2.78-4.62.5-7.92.15l2.28-1.43Z"/><path class="cls-13" d="M35.14,35.58c0,.05,0,.1,0,.15-1.65,1.66-2.45,4-3.55,7.08,3.31.36,5.72.63,7.92-.15l.13.09C36,45,34.82,47.2,29.51,44.93c-.16-.07-.06-.44-.2-.66s-.53-.3-.52-.47C29,38,31.52,37.86,35.14,35.58Z"/><path class="cls-14" d="M44.35,12.65l0,0h0L45.68,15c-3.06-1.29-5.3-2.23-6.85-4C40.66,10.82,43.2,12.26,44.35,12.65Z"/><path class="cls-15" d="M44.39,12.67v0c.29-1.18.43-4.1,1.62-5.51.64,2.24.22,4.63-.33,7.91l-1.29-2.36Z"/><path class="cls-16" d="M38.67,11.07h.16c1.55,1.74,3.79,2.68,6.85,4,.56-3.28,1-5.67.33-7.91,0,0,.06-.09.1-.13,2.06,3.76,4.14,5.1,1.56,10.27-.08.16-.44,0-.67.16s-.33.5-.5.48C40.75,17.31,40.73,14.82,38.67,11.07Z"/><path class="cls-17" d="M39.32,5.92h0l1.9,1.91c-3.3-.39-5.71-.67-7.69-1.92C35.27,5.18,38.11,5.87,39.32,5.92Z"/><path class="cls-18" d="M39.36,5.93a.08.08,0,0,0,0,0c-.05-1.21-.72-4,0-5.75,1.24,2,1.5,4.4,1.88,7.7l-1.9-1.91Z"/><path class="cls-19" d="M33.43,6l.14-.06c2,1.25,4.39,1.53,7.69,1.92-.38-3.3-.64-5.71-1.88-7.7L39.44,0c3,3,5.4,3.75,4.35,9.43,0,.17-.42.16-.6.34s-.18.58-.35.61C37.15,11.4,36.45,9,33.43,6Z"/><path class="cls-20" d="M21.07,44.27l-.27.64c.21.06.32,0,.51,0,4.57,1.93,8.35,4.63,9.25,6.49a2.21,2.21,0,0,0,2.59-1.94A27,27,0,0,0,21.79,44c-.18,0,0-.31-.2-.35Z"/><path class="cls-21" d="M4.39,20.88l0,0h0V23.6C6.43,21,8,19.1,8.47,16.82,6.74,17.5,5.21,20,4.39,20.88Z"/><path class="cls-22" d="M4.37,20.91s0,0,0,0C3.53,20,2,17.5.27,16.82c.52,2.28,2,4.18,4.1,6.78V20.91Z"/><path class="cls-23" d="M8.61,16.76a.84.84,0,0,1-.14.06C8,19.1,6.43,21,4.37,23.6,2.31,21,.79,19.1.27,16.82a.84.84,0,0,1-.14-.06C.13,21-1,23.23,3.7,26.51c.14.11.4-.18.66-.18s.54.29.68.18C9.79,23.23,8.61,21,8.61,16.76Z"/><path class="cls-24" d="M5.55,29.75a.06.06,0,0,0,0,0h0l1,2.5c.93-3.19,1.62-5.52,1.25-7.83C6.45,25.74,6,28.61,5.55,29.75Z"/><path class="cls-25" d="M5.54,29.79s0,0,0,0c-1.09-.52-3.44-2.25-5.3-2.23,1.34,1.91,3.46,3.1,6.35,4.75l-1-2.5Z"/><path class="cls-26" d="M7.91,24.35l-.11.11c.37,2.31-.32,4.64-1.25,7.83-2.89-1.64-5-2.83-6.35-4.75H.05c1.61,4,1.33,6.44,7,7.7.17,0,.31-.33.54-.42s.61.06.7-.09C11.43,29.91,9.52,28.32,7.91,24.35Z"/><path class="cls-27" d="M10.26,36.67s0,0,0,0h0l1.93,1.88c-.43-3.29-.73-5.7-2-7.66C9.48,32.63,10.19,35.46,10.26,36.67Z"/><path class="cls-28" d="M10.27,36.71h0c-1.21,0-4.06-.68-5.75.09,2,1.21,4.41,1.44,7.72,1.79l-1.93-1.88Z"/><path class="cls-29" d="M10.25,30.78s0,.1-.05.15c1.27,2,1.57,4.37,2,7.66C8.89,38.25,6.48,38,4.48,36.8l-.14.05c3.06,3,3.81,5.36,9.48,4.25.17,0,.14-.42.32-.6s.58-.18.61-.36C15.71,34.45,13.32,33.77,10.25,30.78Z"/><path class="cls-30" d="M16.58,41.34l0,0h0l2.27,1.43c-1.1-3.13-1.89-5.42-3.54-7.08C15,37.55,16.26,40.17,16.58,41.34Z"/><path class="cls-31" d="M16.6,41.38h0c-1.2.21-4.12.18-5.61,1.28,2.21.78,4.62.5,7.92.15L16.6,41.38Z"/><path class="cls-32" d="M15.35,35.58c0,.05,0,.1,0,.15,1.65,1.66,2.44,4,3.54,7.08-3.3.36-5.71.63-7.92-.15l-.12.09C14.45,45,15.67,47.2,21,44.93c.16-.07.06-.44.2-.66s.52-.3.51-.47C21.45,38,19,37.86,15.35,35.58Z"/><path class="cls-33" d="M6.14,12.65l0,0h0L4.81,15c3.06-1.29,5.3-2.23,6.85-4C9.82,10.82,7.28,12.26,6.14,12.65Z"/><path class="cls-34" d="M6.1,12.67a.06.06,0,0,0,0,0c-.28-1.18-.43-4.1-1.62-5.51-.63,2.24-.21,4.63.34,7.91L6.1,12.67Z"/><path class="cls-35" d="M11.81,11.07h-.15c-1.55,1.74-3.79,2.68-6.85,4-.56-3.28-1-5.67-.34-7.91L4.38,7C2.32,10.75.23,12.09,2.82,17.26c.07.16.44,0,.67.16s.33.5.5.48C9.74,17.31,9.75,14.82,11.81,11.07Z"/><path class="cls-36" d="M11.17,5.92h-.05L9.23,7.84c3.3-.39,5.71-.67,7.68-1.92C15.22,5.18,12.38,5.87,11.17,5.92Z"/><path class="cls-37" d="M11.13,5.93v0c.06-1.21.72-4,0-5.75-1.23,2-1.49,4.4-1.87,7.7l1.89-1.91Z"/><path class="cls-38" d="M17.06,6l-.15-.06c-2,1.25-4.38,1.53-7.68,1.92.37-3.3.63-5.71,1.87-7.7,0,0,0-.09,0-.14C8,3,5.65,3.75,6.7,9.43c0,.17.42.16.6.34s.18.58.35.61C13.33,11.4,14,9,17.06,6Z"/></g><g id="General_Grade_2_" data-name="General (Grade 2)"><path class="cls-39" d="M23.38,23c-2.88-.13-6.84-6.22-6.84-9.47,0,0,0,.07,0,.1V23H9.38l-.13,0c2.93,0,7.27,5.95,7.29,8.8V23Z"/><path class="cls-40" d="M23.51,23l-.13,0H16.54v8.82h0C16.54,28.89,20.71,23,23.51,23Z"/><path class="cls-41" d="M16.53,13.62c-.07,3.45-4.16,9.22-7.15,9.37h7.15Z"/><path class="cls-42" d="M41.11,23c-2.88-.13-6.84-6.22-6.84-9.47,0,0,0,.07,0,.1V23H27.11L27,23c2.93,0,7.27,5.95,7.29,8.8V23Z"/><path class="cls-43" d="M41.24,23l-.13,0H34.27v8.82h0C34.27,28.89,38.44,23,41.24,23Z"/><path class="cls-44" d="M34.26,13.62c-.07,3.45-4.16,9.22-7.15,9.37h7.15Z"/><path class="cls-45" d="M32.24,11.73c-2.88-.13-6.84-6.22-6.84-9.47v9.47H18.24l-.12,0c2.92,0,7.27,5.95,7.28,8.8V11.73Z"/><path class="cls-46" d="M32.37,11.75l-.13,0H25.4v8.82h0C25.4,17.63,29.57,11.75,32.37,11.75Z"/><path class="cls-47" d="M25.4,2.36c-.08,3.45-4.17,9.22-7.16,9.37H25.4Z"/><path class="cls-48" d="M32.24,32.61c-2.88-.13-6.84-6.22-6.84-9.47v9.47H18.24l-.12,0c2.92,0,7.27,5.95,7.28,8.79V32.61Z"/><path class="cls-49" d="M32.37,32.63l-.13,0H25.4v8.83C25.4,38.51,29.57,32.63,32.37,32.63Z"/><path class="cls-50" d="M25.4,23.24c-.08,3.44-4.17,9.22-7.16,9.37H25.4Z"/></g></g></g></svg>