<svg xmlns="http://www.w3.org/2000/svg" xmlns:xlink="http://www.w3.org/1999/xlink" viewBox="0 0 51.12 34.08"><defs><style>.cls-1{fill:#999;}.cls-2{fill:#838383;}.cls-3{fill:url(#linear-gradient);}.cls-4{fill:url(#linear-gradient-2);}.cls-5{fill:url(#linear-gradient-3);}.cls-6{fill:url(#linear-gradient-5);}.cls-7{fill:url(#linear-gradient-6);}.cls-8{fill:url(#linear-gradient-7);}.cls-9{fill:url(#linear-gradient-8);}.cls-10{fill:url(#linear-gradient-9);}.cls-11{fill:url(#linear-gradient-10);}.cls-12{fill:url(#linear-gradient-12);}.cls-13{fill:url(#linear-gradient-13);}.cls-14{fill:url(#linear-gradient-14);}</style><linearGradient id="linear-gradient" x1="-0.03" y1="15.19" x2="50.97" y2="15.19" gradientUnits="userSpaceOnUse"><stop offset="0" stop-color="#fefae5"/><stop offset="0.1" stop-color="#feeea7"/><stop offset="0.2" stop-color="#ffe26c"/><stop offset="0.3" stop-color="#ffd83d"/><stop offset="0.39" stop-color="#ffd21c"/><stop offset="0.46" stop-color="#ffcd07"/><stop offset="0.51" stop-color="#fc0"/><stop offset="0.61" stop-color="#f8c505"/><stop offset="0.77" stop-color="#e6b111"/><stop offset="0.95" stop-color="#c89025"/><stop offset="1" stop-color="#bf872b"/></linearGradient><linearGradient id="linear-gradient-2" x1="31.35" y1="-2.28" x2="35.19" y2="7.88" gradientUnits="userSpaceOnUse"><stop offset="0" stop-color="#fefae5"/><stop offset="0.51" stop-color="#fc0"/><stop offset="1" stop-color="#bf872b"/></linearGradient><linearGradient id="linear-gradient-3" x1="-0.03" y1="10.2" x2="50.97" y2="10.2" xlink:href="#linear-gradient"/><linearGradient id="linear-gradient-5" x1="12.78" y1="4.72" x2="16.61" y2="14.88" xlink:href="#linear-gradient-2"/><linearGradient id="linear-gradient-6" x1="9.24" y1="6.05" x2="13.07" y2="16.22" xlink:href="#linear-gradient-2"/><linearGradient id="linear-gradient-7" x1="34.9" y1="-3.62" x2="38.73" y2="6.55" gradientUnits="userSpaceOnUse"><stop offset="0" stop-color="#fefae5"/><stop offset="1" stop-color="#fc0"/></linearGradient><linearGradient id="linear-gradient-8" x1="-0.03" y1="28.31" x2="50.97" y2="28.31" xlink:href="#linear-gradient"/><linearGradient id="linear-gradient-9" x1="31.35" y1="10.84" x2="35.19" y2="21.01" xlink:href="#linear-gradient-2"/><linearGradient id="linear-gradient-10" x1="-0.03" y1="23.33" x2="50.97" y2="23.33" xlink:href="#linear-gradient"/><linearGradient id="linear-gradient-12" x1="12.78" y1="17.84" x2="16.61" y2="28.01" xlink:href="#linear-gradient-2"/><linearGradient id="linear-gradient-13" x1="9.24" y1="19.18" x2="13.07" y2="29.35" xlink:href="#linear-gradient-2"/><linearGradient id="linear-gradient-14" x1="34.9" y1="9.51" x2="38.73" y2="19.67" xlink:href="#linear-gradient-7"/></defs><g id="Layer_2" data-name="Layer 2"><g id="Artwork"><g id="Corporal"><path class="cls-1" d="M25.56,0,51.12,9.42Z"/><path class="cls-2" d="M0,9.42,25.56,0Z"/><polygon class="cls-3" points="49.62 10.47 51.12 9.42 51.12 20.95 49.62 18.8 49.62 10.47"/><polygon class="cls-4" points="49.62 18.8 51.12 20.95 25.56 11.54 25.56 9.94 49.62 18.8"/><polygon class="cls-5" points="25.56 1.6 49.62 10.47 49.62 18.8 25.56 9.94 1.5 18.8 1.5 10.47 25.56 1.6"/><polygon class="cls-3" points="1.5 18.8 0 20.95 0 9.42 1.5 10.47 1.5 18.8"/><polygon class="cls-6" points="1.5 10.47 0 9.42 25.56 0 25.56 1.6 1.5 10.47"/><polygon class="cls-7" points="25.56 9.94 25.56 11.54 0 20.95 1.5 18.8 25.56 9.94"/><polygon class="cls-8" points="25.56 1.6 25.56 0 51.12 9.42 49.62 10.47 25.56 1.6"/><path class="cls-1" d="M25.56,13.13l25.56,9.42Z"/><path class="cls-2" d="M0,22.55l25.56-9.42Z"/><polygon class="cls-9" points="49.62 23.59 51.12 22.55 51.12 34.08 49.62 31.93 49.62 23.59"/><polygon class="cls-10" points="49.62 31.93 51.12 34.08 25.56 24.66 25.56 23.06 49.62 31.93"/><polygon class="cls-11" points="25.56 14.72 49.62 23.59 49.62 31.93 25.56 23.06 1.5 31.93 1.5 23.59 25.56 14.72"/><polygon class="cls-9" points="1.5 31.93 0 34.08 0 22.55 1.5 23.59 1.5 31.93"/><polygon class="cls-12" points="1.5 23.59 0 22.55 25.56 13.13 25.56 14.72 1.5 23.59"/><polygon class="cls-13" points="25.56 23.06 25.56 24.66 0 34.08 1.5 31.93 25.56 23.06"/><polygon class="cls-14" points="25.56 14.72 25.56 13.13 51.12 22.55 49.62 23.59 25.56 14.72"/></g></g></g></svg>