<svg xmlns="http://www.w3.org/2000/svg" xmlns:xlink="http://www.w3.org/1999/xlink" viewBox="0 0 51.12 58.35"><defs><style>.cls-1{fill:#999;}.cls-2{fill:#838383;}.cls-3{fill:url(#linear-gradient);}.cls-4{fill:url(#linear-gradient-2);}.cls-5{fill:url(#linear-gradient-3);}.cls-6{fill:url(#linear-gradient-4);}.cls-7{fill:url(#linear-gradient-5);}.cls-8{fill:url(#linear-gradient-6);}.cls-9{fill:url(#linear-gradient-7);}.cls-10{fill:url(#linear-gradient-8);}.cls-11{fill:url(#linear-gradient-9);}.cls-12{fill:url(#linear-gradient-10);}.cls-13{fill:url(#linear-gradient-11);}.cls-14{fill:url(#linear-gradient-12);}.cls-15{fill:url(#linear-gradient-13);}.cls-16{fill:url(#linear-gradient-14);}.cls-17{fill:url(#linear-gradient-15);}.cls-18{fill:url(#linear-gradient-16);}.cls-19{fill:url(#linear-gradient-17);}.cls-20{fill:url(#linear-gradient-18);}.cls-21{fill:url(#linear-gradient-19);}.cls-22{fill:url(#linear-gradient-20);}.cls-23{fill:url(#linear-gradient-21);}.cls-24{fill:#bf872b;}.cls-25{fill:url(#linear-gradient-22);}.cls-26{fill:url(#linear-gradient-23);}.cls-27{fill:url(#linear-gradient-24);}.cls-28{fill:url(#linear-gradient-25);}.cls-29{fill:url(#linear-gradient-26);}.cls-30{fill:url(#linear-gradient-27);}</style><linearGradient id="linear-gradient" x1="-0.03" y1="15.19" x2="50.97" y2="15.19" gradientUnits="userSpaceOnUse"><stop offset="0" stop-color="#fefae5"/><stop offset="0.1" stop-color="#feeea7"/><stop offset="0.2" stop-color="#ffe26c"/><stop offset="0.3" stop-color="#ffd83d"/><stop offset="0.39" stop-color="#ffd21c"/><stop offset="0.46" stop-color="#ffcd07"/><stop offset="0.51" stop-color="#fc0"/><stop offset="0.61" stop-color="#f8c505"/><stop offset="0.77" stop-color="#e6b111"/><stop offset="0.95" stop-color="#c89025"/><stop offset="1" stop-color="#bf872b"/></linearGradient><linearGradient id="linear-gradient-2" x1="31.36" y1="-2.28" x2="35.19" y2="7.88" gradientUnits="userSpaceOnUse"><stop offset="0" stop-color="#fefae5"/><stop offset="0.51" stop-color="#fc0"/><stop offset="1" stop-color="#bf872b"/></linearGradient><linearGradient id="linear-gradient-3" x1="-0.03" y1="10.2" x2="50.97" y2="10.2" xlink:href="#linear-gradient"/><linearGradient id="linear-gradient-4" x1="-0.03" y1="15.19" x2="50.97" y2="15.19" xlink:href="#linear-gradient"/><linearGradient id="linear-gradient-5" x1="12.78" y1="4.72" x2="16.61" y2="14.88" xlink:href="#linear-gradient-2"/><linearGradient id="linear-gradient-6" x1="9.24" y1="6.05" x2="13.07" y2="16.22" xlink:href="#linear-gradient-2"/><linearGradient id="linear-gradient-7" x1="34.9" y1="-3.62" x2="38.73" y2="6.55" gradientUnits="userSpaceOnUse"><stop offset="0" stop-color="#fefae5"/><stop offset="1" stop-color="#fc0"/></linearGradient><linearGradient id="linear-gradient-8" x1="-0.03" y1="28.17" x2="50.97" y2="28.17" xlink:href="#linear-gradient"/><linearGradient id="linear-gradient-9" x1="31.36" y1="10.7" x2="35.19" y2="20.87" xlink:href="#linear-gradient-2"/><linearGradient id="linear-gradient-10" x1="-0.03" y1="23.18" x2="50.97" y2="23.18" xlink:href="#linear-gradient"/><linearGradient id="linear-gradient-11" x1="-0.03" y1="28.17" x2="50.97" y2="28.17" xlink:href="#linear-gradient"/><linearGradient id="linear-gradient-12" x1="12.78" y1="17.7" x2="16.62" y2="27.87" xlink:href="#linear-gradient-2"/><linearGradient id="linear-gradient-13" x1="9.24" y1="19.04" x2="13.07" y2="29.2" xlink:href="#linear-gradient-2"/><linearGradient id="linear-gradient-14" x1="34.9" y1="9.36" x2="38.73" y2="19.53" xlink:href="#linear-gradient-7"/><linearGradient id="linear-gradient-15" x1="-0.03" y1="41.16" x2="50.97" y2="41.16" xlink:href="#linear-gradient"/><linearGradient id="linear-gradient-16" x1="31.36" y1="23.69" x2="35.19" y2="33.85" xlink:href="#linear-gradient-2"/><linearGradient id="linear-gradient-17" x1="-0.03" y1="36.17" x2="50.97" y2="36.17" xlink:href="#linear-gradient"/><linearGradient id="linear-gradient-18" x1="-0.03" y1="41.16" x2="50.97" y2="41.16" xlink:href="#linear-gradient"/><linearGradient id="linear-gradient-19" x1="12.78" y1="30.69" x2="16.62" y2="40.85" xlink:href="#linear-gradient-2"/><linearGradient id="linear-gradient-20" x1="9.24" y1="32.02" x2="13.07" y2="42.19" xlink:href="#linear-gradient-2"/><linearGradient id="linear-gradient-21" x1="34.9" y1="22.35" x2="38.73" y2="32.52" xlink:href="#linear-gradient-7"/><linearGradient id="linear-gradient-22" x1="21.05" y1="41.87" x2="24.64" y2="44.52" xlink:href="#linear-gradient-7"/><linearGradient id="linear-gradient-23" x1="25.24" y1="38.22" x2="20.24" y2="45.22" gradientUnits="userSpaceOnUse"><stop offset="0" stop-color="#fc0"/><stop offset="1" stop-color="#bf872b"/></linearGradient><linearGradient id="linear-gradient-24" x1="30.43" y1="41.93" x2="25.43" y2="48.94" xlink:href="#linear-gradient-23"/><linearGradient id="linear-gradient-25" x1="21.05" y1="52.93" x2="24.64" y2="55.57" xlink:href="#linear-gradient-7"/><linearGradient id="linear-gradient-26" x1="25.24" y1="49.28" x2="20.24" y2="56.28" xlink:href="#linear-gradient-23"/><linearGradient id="linear-gradient-27" x1="30.43" y1="52.99" x2="25.43" y2="59.99" xlink:href="#linear-gradient-23"/></defs><g id="Layer_2" data-name="Layer 2"><g id="Artwork"><g id="Sergeant_Grade_3_" data-name="Sergeant (Grade 3)"><path class="cls-1" d="M25.56,0,51.12,9.42Z"/><path class="cls-2" d="M0,9.42,25.56,0Z"/><polygon class="cls-3" points="49.62 10.47 51.12 9.42 51.12 20.95 49.62 18.8 49.62 10.47"/><polygon class="cls-4" points="49.62 18.8 51.12 20.95 25.56 11.54 25.56 9.94 49.62 18.8"/><polygon class="cls-5" points="25.56 1.6 49.62 10.47 49.62 18.8 25.56 9.94 1.5 18.8 1.5 10.47 25.56 1.6"/><polygon class="cls-6" points="1.5 18.8 0 20.95 0 9.42 1.5 10.47 1.5 18.8"/><polygon class="cls-7" points="1.5 10.47 0 9.42 25.56 0 25.56 1.6 1.5 10.47"/><polygon class="cls-8" points="25.56 9.94 25.56 11.54 0 20.95 1.5 18.8 25.56 9.94"/><polygon class="cls-9" points="25.56 1.6 25.56 0 51.12 9.42 49.62 10.47 25.56 1.6"/><path class="cls-1" d="M25.56,13l25.56,9.43Z"/><path class="cls-2" d="M0,22.41,25.56,13Z"/><polygon class="cls-10" points="49.62 23.45 51.12 22.41 51.12 33.94 49.62 31.79 49.62 23.45"/><polygon class="cls-11" points="49.62 31.79 51.12 33.94 25.56 24.52 25.56 22.92 49.62 31.79"/><polygon class="cls-12" points="25.56 14.58 49.62 23.45 49.62 31.79 25.56 22.92 1.5 31.79 1.5 23.45 25.56 14.58"/><polygon class="cls-13" points="1.5 31.79 0 33.94 0 22.41 1.5 23.45 1.5 31.79"/><polygon class="cls-14" points="1.5 23.45 0 22.41 25.56 12.98 25.56 14.58 1.5 23.45"/><polygon class="cls-15" points="25.56 22.92 25.56 24.52 0 33.94 1.5 31.79 25.56 22.92"/><polygon class="cls-16" points="25.56 14.58 25.56 12.98 51.12 22.41 49.62 23.45 25.56 14.58"/><path class="cls-1" d="M25.56,26l25.56,9.42Z"/><path class="cls-2" d="M0,35.39,25.56,26Z"/><polygon class="cls-17" points="49.62 36.44 51.12 35.39 51.12 46.92 49.62 44.77 49.62 36.44"/><polygon class="cls-18" points="49.62 44.77 51.12 46.92 25.56 37.51 25.56 35.91 49.62 44.77"/><polygon class="cls-19" points="25.56 27.57 49.62 36.44 49.62 44.77 25.56 35.91 1.5 44.77 1.5 36.44 25.56 27.57"/><polygon class="cls-20" points="1.5 44.77 0 46.92 0 35.39 1.5 36.44 1.5 44.77"/><polygon class="cls-21" points="1.5 36.44 0 35.39 25.56 25.97 25.56 27.57 1.5 36.44"/><polygon class="cls-22" points="25.56 35.91 25.56 37.51 0 46.92 1.5 44.77 25.56 35.91"/><polygon class="cls-23" points="25.56 27.57 25.56 25.97 51.12 35.39 49.62 36.44 25.56 27.57"/><polygon class="cls-24" points="25.57 43.26 36.29 43.26 25.56 47.3 25.56 43.27 25.57 43.26"/><polygon class="cls-25" points="25.55 43.26 14.83 43.26 25.56 39.23 25.56 43.26 25.55 43.26"/><polygon class="cls-26" points="25.56 43.27 25.56 47.3 14.83 43.26 25.55 43.26 25.56 43.27"/><polygon class="cls-27" points="25.56 43.26 25.56 39.23 36.29 43.26 25.57 43.26 25.56 43.26"/><polygon class="cls-24" points="25.57 54.32 36.29 54.32 25.56 58.35 25.56 54.32 25.57 54.32"/><polygon class="cls-28" points="25.55 54.32 14.83 54.32 25.56 50.29 25.56 54.31 25.55 54.32"/><polygon class="cls-29" points="25.56 54.32 25.56 58.35 14.83 54.32 25.55 54.32 25.56 54.32"/><polygon class="cls-30" points="25.56 54.31 25.56 50.29 36.29 54.32 25.57 54.32 25.56 54.31"/></g></g></g></svg>