<svg xmlns="http://www.w3.org/2000/svg" xmlns:xlink="http://www.w3.org/1999/xlink" viewBox="0 0 51.12 60.11"><defs><style>.cls-1{fill:#999;}.cls-2{fill:#838383;}.cls-3{fill:url(#linear-gradient);}.cls-4{fill:url(#linear-gradient-2);}.cls-5{fill:url(#linear-gradient-3);}.cls-6{fill:url(#linear-gradient-5);}.cls-7{fill:url(#linear-gradient-6);}.cls-8{fill:url(#linear-gradient-7);}.cls-9{fill:url(#linear-gradient-8);}.cls-10{fill:url(#linear-gradient-9);}.cls-11{fill:url(#linear-gradient-10);}.cls-12{fill:url(#linear-gradient-12);}.cls-13{fill:url(#linear-gradient-13);}.cls-14{fill:url(#linear-gradient-14);}.cls-15{fill:url(#linear-gradient-15);}.cls-16{fill:url(#linear-gradient-16);}.cls-17{fill:url(#linear-gradient-17);}.cls-18{fill:url(#linear-gradient-19);}.cls-19{fill:url(#linear-gradient-20);}.cls-20{fill:url(#linear-gradient-21);}.cls-21{fill:url(#linear-gradient-22);}.cls-22{fill:url(#linear-gradient-23);}.cls-23{fill:url(#linear-gradient-24);}.cls-24{fill:url(#linear-gradient-26);}.cls-25{fill:url(#linear-gradient-27);}.cls-26{fill:url(#linear-gradient-28);}</style><linearGradient id="linear-gradient" x1="-0.03" y1="15.19" x2="50.97" y2="15.19" gradientUnits="userSpaceOnUse"><stop offset="0" stop-color="#fefae5"/><stop offset="0.1" stop-color="#feeea7"/><stop offset="0.2" stop-color="#ffe26c"/><stop offset="0.3" stop-color="#ffd83d"/><stop offset="0.39" stop-color="#ffd21c"/><stop offset="0.46" stop-color="#ffcd07"/><stop offset="0.51" stop-color="#fc0"/><stop offset="0.61" stop-color="#f8c505"/><stop offset="0.77" stop-color="#e6b111"/><stop offset="0.95" stop-color="#c89025"/><stop offset="1" stop-color="#bf872b"/></linearGradient><linearGradient id="linear-gradient-2" x1="31.35" y1="-2.28" x2="35.19" y2="7.88" gradientUnits="userSpaceOnUse"><stop offset="0" stop-color="#fefae5"/><stop offset="0.51" stop-color="#fc0"/><stop offset="1" stop-color="#bf872b"/></linearGradient><linearGradient id="linear-gradient-3" x1="-0.03" y1="10.2" x2="50.97" y2="10.2" xlink:href="#linear-gradient"/><linearGradient id="linear-gradient-5" x1="12.78" y1="4.72" x2="16.61" y2="14.88" xlink:href="#linear-gradient-2"/><linearGradient id="linear-gradient-6" x1="9.24" y1="6.05" x2="13.07" y2="16.22" xlink:href="#linear-gradient-2"/><linearGradient id="linear-gradient-7" x1="34.9" y1="-3.62" x2="38.73" y2="6.55" gradientUnits="userSpaceOnUse"><stop offset="0" stop-color="#fefae5"/><stop offset="1" stop-color="#fc0"/></linearGradient><linearGradient id="linear-gradient-8" x1="-0.03" y1="28.24" x2="50.97" y2="28.24" xlink:href="#linear-gradient"/><linearGradient id="linear-gradient-9" x1="31.35" y1="10.77" x2="35.19" y2="20.94" xlink:href="#linear-gradient-2"/><linearGradient id="linear-gradient-10" x1="-0.03" y1="23.25" x2="50.97" y2="23.25" xlink:href="#linear-gradient"/><linearGradient id="linear-gradient-12" x1="12.78" y1="17.77" x2="16.61" y2="27.94" xlink:href="#linear-gradient-2"/><linearGradient id="linear-gradient-13" x1="9.24" y1="19.11" x2="13.07" y2="29.27" xlink:href="#linear-gradient-2"/><linearGradient id="linear-gradient-14" x1="34.9" y1="9.43" x2="38.73" y2="19.6" xlink:href="#linear-gradient-7"/><linearGradient id="linear-gradient-15" x1="-0.03" y1="41.29" x2="50.97" y2="41.29" xlink:href="#linear-gradient"/><linearGradient id="linear-gradient-16" x1="31.35" y1="23.82" x2="35.19" y2="33.99" xlink:href="#linear-gradient-2"/><linearGradient id="linear-gradient-17" x1="-0.03" y1="36.31" x2="50.97" y2="36.31" xlink:href="#linear-gradient"/><linearGradient id="linear-gradient-19" x1="12.78" y1="30.82" x2="16.61" y2="40.99" xlink:href="#linear-gradient-2"/><linearGradient id="linear-gradient-20" x1="9.24" y1="32.16" x2="13.07" y2="42.33" xlink:href="#linear-gradient-2"/><linearGradient id="linear-gradient-21" x1="34.9" y1="22.49" x2="38.73" y2="32.65" xlink:href="#linear-gradient-7"/><linearGradient id="linear-gradient-22" x1="-0.03" y1="54.35" x2="50.97" y2="54.35" xlink:href="#linear-gradient"/><linearGradient id="linear-gradient-23" x1="31.35" y1="36.88" x2="35.19" y2="47.04" xlink:href="#linear-gradient-2"/><linearGradient id="linear-gradient-24" x1="-0.03" y1="49.36" x2="50.97" y2="49.36" xlink:href="#linear-gradient"/><linearGradient id="linear-gradient-26" x1="12.78" y1="43.88" x2="16.61" y2="54.04" xlink:href="#linear-gradient-2"/><linearGradient id="linear-gradient-27" x1="9.24" y1="45.21" x2="13.07" y2="55.38" xlink:href="#linear-gradient-2"/><linearGradient id="linear-gradient-28" x1="34.9" y1="35.54" x2="38.73" y2="45.71" xlink:href="#linear-gradient-7"/></defs><g id="Layer_2" data-name="Layer 2"><g id="Artwork"><g id="Gunnery_Sergeant" data-name="Gunnery Sergeant"><path class="cls-1" d="M25.56,0,51.12,9.42Z"/><path class="cls-2" d="M0,9.42,25.56,0Z"/><polygon class="cls-3" points="49.62 10.47 51.12 9.42 51.12 20.95 49.62 18.8 49.62 10.47"/><polygon class="cls-4" points="49.62 18.8 51.12 20.95 25.56 11.54 25.56 9.94 49.62 18.8"/><polygon class="cls-5" points="25.56 1.6 49.62 10.47 49.62 18.8 25.56 9.94 1.5 18.8 1.5 10.47 25.56 1.6"/><polygon class="cls-3" points="1.5 18.8 0 20.95 0 9.42 1.5 10.47 1.5 18.8"/><polygon class="cls-6" points="1.5 10.47 0 9.42 25.56 0 25.56 1.6 1.5 10.47"/><polygon class="cls-7" points="25.56 9.94 25.56 11.54 0 20.95 1.5 18.8 25.56 9.94"/><polygon class="cls-8" points="25.56 1.6 25.56 0 51.12 9.42 49.62 10.47 25.56 1.6"/><path class="cls-1" d="M25.56,13.05l25.56,9.43Z"/><path class="cls-2" d="M0,22.48l25.56-9.43Z"/><polygon class="cls-9" points="49.62 23.52 51.12 22.48 51.12 34.01 49.62 31.86 49.62 23.52"/><polygon class="cls-10" points="49.62 31.86 51.12 34.01 25.56 24.59 25.56 22.99 49.62 31.86"/><polygon class="cls-11" points="25.56 14.65 49.62 23.52 49.62 31.86 25.56 22.99 1.5 31.86 1.5 23.52 25.56 14.65"/><polygon class="cls-9" points="1.5 31.86 0 34.01 0 22.48 1.5 23.52 1.5 31.86"/><polygon class="cls-12" points="1.5 23.52 0 22.48 25.56 13.05 25.56 14.65 1.5 23.52"/><polygon class="cls-13" points="25.56 22.99 25.56 24.59 0 34.01 1.5 31.86 25.56 22.99"/><polygon class="cls-14" points="25.56 14.65 25.56 13.05 51.12 22.48 49.62 23.52 25.56 14.65"/><path class="cls-1" d="M25.56,26.11l25.56,9.42Z"/><path class="cls-2" d="M0,35.53l25.56-9.42Z"/><polygon class="cls-15" points="49.62 36.58 51.12 35.53 51.12 47.06 49.62 44.91 49.62 36.58"/><polygon class="cls-16" points="49.62 44.91 51.12 47.06 25.56 37.65 25.56 36.05 49.62 44.91"/><polygon class="cls-17" points="25.56 27.7 49.62 36.58 49.62 44.91 25.56 36.05 1.5 44.91 1.5 36.58 25.56 27.7"/><polygon class="cls-15" points="1.5 44.91 0 47.06 0 35.53 1.5 36.58 1.5 44.91"/><polygon class="cls-18" points="1.5 36.58 0 35.53 25.56 26.11 25.56 27.7 1.5 36.58"/><polygon class="cls-19" points="25.56 36.05 25.56 37.65 0 47.06 1.5 44.91 25.56 36.05"/><polygon class="cls-20" points="25.56 27.7 25.56 26.11 51.12 35.53 49.62 36.58 25.56 27.7"/><path class="cls-1" d="M25.56,39.16l25.56,9.42Z"/><path class="cls-2" d="M0,48.58l25.56-9.42Z"/><polygon class="cls-21" points="49.62 49.63 51.12 48.58 51.12 60.11 49.62 57.96 49.62 49.63"/><polygon class="cls-22" points="49.62 57.96 51.12 60.11 25.56 50.7 25.56 49.1 49.62 57.96"/><polygon class="cls-23" points="25.56 40.76 49.62 49.63 49.62 57.96 25.56 49.1 1.5 57.96 1.5 49.63 25.56 40.76"/><polygon class="cls-21" points="1.5 57.96 0 60.11 0 48.58 1.5 49.63 1.5 57.96"/><polygon class="cls-24" points="1.5 49.63 0 48.58 25.56 39.16 25.56 40.76 1.5 49.63"/><polygon class="cls-25" points="25.56 49.1 25.56 50.7 0 60.11 1.5 57.96 25.56 49.1"/><polygon class="cls-26" points="25.56 40.76 25.56 39.16 51.12 48.58 49.62 49.63 25.56 40.76"/></g></g></g></svg>