<svg xmlns="http://www.w3.org/2000/svg" xmlns:xlink="http://www.w3.org/1999/xlink" viewBox="0 0 44.59 69.55"><defs><style>.cls-1{fill:url(#linear-gradient);}.cls-2{fill:#def1fa;}.cls-3{fill:#b0c9d6;}.cls-4{fill:#99b1bd;}.cls-5{fill:url(#linear-gradient-2);}</style><linearGradient id="linear-gradient" x1="1.16" y1="1.41" x2="43.58" y2="68.41" gradientUnits="userSpaceOnUse"><stop offset="0" stop-color="#fafdfe"/><stop offset="0.5" stop-color="#b0c9d6"/><stop offset="1" stop-color="#99b1bd"/></linearGradient><linearGradient id="linear-gradient-2" x1="3.8" y1="4.32" x2="41.18" y2="65.87" gradientUnits="userSpaceOnUse"><stop offset="0" stop-color="#def1fa"/><stop offset="1" stop-color="#b0c9d6"/></linearGradient></defs><g id="Layer_2" data-name="Layer 2"><g id="Artwork"><g id="Lieutenant"><path class="cls-1" d="M44.59,3.69A4,4,0,0,0,40.69,0H3.9A4,4,0,0,0,0,4V65.59a3.94,3.94,0,0,0,3.9,4H40.69a4,4,0,0,0,3.9-4V3.69M22.29,48l-9.62-13.2,9.62-13.22,9.63,13.22Z"/><polygon class="cls-2" points="22.29 47.98 22.29 42.94 28.24 34.78 31.92 34.78 22.29 47.98"/><polygon class="cls-3" points="31.92 34.78 28.24 34.78 22.29 26.6 22.29 21.56 31.92 34.78"/><polygon class="cls-4" points="22.29 21.56 22.29 26.6 16.34 34.78 12.67 34.78 22.29 21.56"/><polygon class="cls-3" points="12.67 34.78 16.34 34.78 22.29 42.94 22.29 47.98 12.67 34.78"/><path class="cls-5" d="M40.69,3a1,1,0,0,1,1,1V65.59a1,1,0,0,1-1,1H3.9a1,1,0,0,1-.94-1V4A1,1,0,0,1,3.9,3ZM22.29,48l9.63-13.2L22.29,21.56,12.67,34.78,22.29,48"/></g></g></g></svg>