<svg xmlns="http://www.w3.org/2000/svg" xmlns:xlink="http://www.w3.org/1999/xlink" viewBox="0 0 38.55 69.79"><defs><style>.cls-1{fill:url(#linear-gradient);}.cls-2{fill:#def1fa;}.cls-3{fill:#b0c9d6;}.cls-4{fill:#99b1bd;}.cls-5{fill:url(#linear-gradient-2);}.cls-6{fill:url(#linear-gradient-3);}.cls-7{fill:url(#linear-gradient-4);}.cls-8{fill:url(#linear-gradient-5);}</style><linearGradient id="linear-gradient" x1="2.13" y1="0.35" x2="36.54" y2="54.71" gradientUnits="userSpaceOnUse"><stop offset="0" stop-color="#fafdfe"/><stop offset="0.5" stop-color="#b0c9d6"/><stop offset="1" stop-color="#99b1bd"/></linearGradient><linearGradient id="linear-gradient-2" x1="4.25" y1="2.68" x2="34.62" y2="52.68" gradientUnits="userSpaceOnUse"><stop offset="0" stop-color="#def1fa"/><stop offset="1" stop-color="#b0c9d6"/></linearGradient><linearGradient id="linear-gradient-3" x1="0.02" y1="57.67" x2="38.53" y2="57.67" gradientUnits="userSpaceOnUse"><stop offset="0" stop-color="#fafdfe"/><stop offset="1" stop-color="#def1fa"/></linearGradient><linearGradient id="linear-gradient-4" x1="0.02" y1="68.93" x2="38.53" y2="68.93" gradientUnits="userSpaceOnUse"><stop offset="0" stop-color="#b0c9d6"/><stop offset="1" stop-color="#99b1bd"/></linearGradient><linearGradient id="linear-gradient-5" x1="19.28" y1="58.63" x2="19.28" y2="68.2" gradientUnits="userSpaceOnUse"><stop offset="0" stop-color="#fafdfe"/><stop offset="0.26" stop-color="#dce8ee"/><stop offset="0.54" stop-color="#c4d7e1"/><stop offset="0.79" stop-color="#b5cdd9"/><stop offset="1" stop-color="#b0c9d6"/></linearGradient></defs><g id="Layer_2" data-name="Layer 2"><g id="Artwork"><g id="Lieutenant_Grade_2_" data-name="Lieutenant (Grade 2)"><path class="cls-1" d="M38.54,2.91A3.15,3.15,0,0,0,35.47,0H3.08A3.14,3.14,0,0,0,0,3.12v48.6a3.1,3.1,0,0,0,3.08,3.12H35.47a3.14,3.14,0,0,0,3.08-3.12V3.12a1.48,1.48,0,0,0,0-.21M19.28,37.85,11.69,27.44,19.28,17l7.59,10.43Z"/><polygon class="cls-2" points="19.28 37.85 19.28 33.87 23.97 27.44 26.87 27.44 19.28 37.85"/><polygon class="cls-3" points="26.87 27.44 23.97 27.44 19.28 20.99 19.28 17.01 26.87 27.44"/><polygon class="cls-4" points="19.28 17.01 19.28 20.99 14.59 27.44 11.69 27.44 19.28 17.01"/><polygon class="cls-3" points="11.69 27.44 14.59 27.44 19.28 33.87 19.28 37.85 11.69 27.44"/><path class="cls-5" d="M35.47,2.37a.76.76,0,0,1,.75.75v48.6a.77.77,0,0,1-.75.76H3.08a.77.77,0,0,1-.75-.76V3.12a.76.76,0,0,1,.75-.75ZM19.28,37.85l7.59-10.41L19.28,17,11.69,27.44l7.59,10.41"/><polygon class="cls-2" points="1.72 68.07 1.72 58.53 1.74 58.53 0.02 56.82 0.02 69.79 1.74 68.07 1.72 68.07"/><polygon class="cls-6" points="36.82 58.53 38.53 56.82 0.02 56.82 1.74 58.53 36.82 58.53"/><polygon class="cls-7" points="36.82 68.07 1.74 68.07 0.02 69.79 38.53 69.79 36.82 68.07"/><polygon class="cls-3" points="36.82 58.53 36.83 58.53 36.83 68.07 36.82 68.07 38.53 69.79 38.53 56.82 36.82 58.53"/><rect class="cls-8" x="1.72" y="58.53" width="35.11" height="9.54"/></g></g></g></svg>