<svg xmlns="http://www.w3.org/2000/svg" xmlns:xlink="http://www.w3.org/1999/xlink" viewBox="0 0 35.93 69.79"><defs><style>.cls-1{fill:url(#linear-gradient);}.cls-2{fill:#def1fa;}.cls-3{fill:#b0c9d6;}.cls-4{fill:#99b1bd;}.cls-5{fill:url(#linear-gradient-2);}.cls-6{fill:url(#linear-gradient-3);}.cls-7{fill:url(#linear-gradient-4);}.cls-8{fill:url(#linear-gradient-5);}.cls-9{fill:url(#linear-gradient-6);}.cls-10{fill:url(#linear-gradient-7);}.cls-11{fill:url(#linear-gradient-8);}</style><linearGradient id="linear-gradient" x1="3.33" y1="-0.55" x2="32.7" y2="45.84" gradientUnits="userSpaceOnUse"><stop offset="0" stop-color="#fafdfe"/><stop offset="0.5" stop-color="#b0c9d6"/><stop offset="1" stop-color="#99b1bd"/></linearGradient><linearGradient id="linear-gradient-2" x1="5.25" y1="1.62" x2="30.95" y2="43.93" gradientUnits="userSpaceOnUse"><stop offset="0" stop-color="#def1fa"/><stop offset="1" stop-color="#b0c9d6"/></linearGradient><linearGradient id="linear-gradient-3" x1="0.02" y1="47.32" x2="35.91" y2="47.32" gradientUnits="userSpaceOnUse"><stop offset="0" stop-color="#fafdfe"/><stop offset="1" stop-color="#def1fa"/></linearGradient><linearGradient id="linear-gradient-4" x1="0.02" y1="56.65" x2="35.91" y2="56.65" gradientUnits="userSpaceOnUse"><stop offset="0" stop-color="#b0c9d6"/><stop offset="1" stop-color="#99b1bd"/></linearGradient><linearGradient id="linear-gradient-5" x1="17.97" y1="48.2" x2="17.97" y2="55.96" gradientUnits="userSpaceOnUse"><stop offset="0" stop-color="#fafdfe"/><stop offset="0.26" stop-color="#dce8ee"/><stop offset="0.54" stop-color="#c4d7e1"/><stop offset="0.79" stop-color="#b5cdd9"/><stop offset="1" stop-color="#b0c9d6"/></linearGradient><linearGradient id="linear-gradient-6" x1="0.02" y1="59.66" x2="35.91" y2="59.66" xlink:href="#linear-gradient-3"/><linearGradient id="linear-gradient-7" x1="0.02" y1="68.99" x2="35.91" y2="68.99" xlink:href="#linear-gradient-4"/><linearGradient id="linear-gradient-8" x1="17.97" y1="60.54" x2="17.97" y2="68.3" xlink:href="#linear-gradient-5"/></defs><g id="Layer_2" data-name="Layer 2"><g id="Artwork"><g id="Lieutenant_Grade_3_" data-name="Lieutenant (Grade 3)"><path class="cls-1" d="M35.93,2.71A3,3,0,0,0,33.06,0H2.87A2.93,2.93,0,0,0,0,2.91V42.2a2.9,2.9,0,0,0,2.87,2.91H33.06a2.92,2.92,0,0,0,2.87-2.91V2.71M18,30.91l-6.08-8.35L18,14.21l6.08,8.35Z"/><polygon class="cls-2" points="17.97 30.91 17.97 27.72 21.73 22.56 24.05 22.56 17.97 30.91"/><polygon class="cls-3" points="24.05 22.56 21.73 22.56 17.97 17.4 17.97 14.21 24.05 22.56"/><polygon class="cls-4" points="17.97 14.21 17.97 17.4 14.21 22.56 11.89 22.56 17.97 14.21"/><polygon class="cls-3" points="11.89 22.56 14.21 22.56 17.97 27.72 17.97 30.91 11.89 22.56"/><path class="cls-5" d="M33.06,2.21a.7.7,0,0,1,.7.7V42.2a.71.71,0,0,1-.7.71H2.87a.72.72,0,0,1-.7-.71V2.91a.7.7,0,0,1,.7-.7ZM18,30.91l6.08-8.35L18,14.21l-6.08,8.35L18,30.91"/><polygon class="cls-2" points="1.6 55.85 1.6 48.12 1.61 48.12 0.02 46.52 0.02 57.45 1.61 55.85 1.6 55.85"/><polygon class="cls-6" points="34.32 48.12 35.91 46.52 0.02 46.52 1.61 48.12 34.32 48.12"/><polygon class="cls-7" points="34.32 55.85 1.61 55.85 0.02 57.45 35.91 57.45 34.32 55.85"/><polygon class="cls-3" points="34.32 48.12 34.33 48.12 34.33 55.85 34.32 55.85 35.91 57.45 35.91 46.52 34.32 48.12"/><rect class="cls-8" x="1.6" y="48.12" width="32.73" height="7.73"/><polygon class="cls-2" points="1.6 68.19 1.6 60.46 1.61 60.46 0.02 58.86 0.02 69.79 1.61 68.19 1.6 68.19"/><polygon class="cls-9" points="34.32 60.46 35.91 58.86 0.02 58.86 1.61 60.46 34.32 60.46"/><polygon class="cls-10" points="34.32 68.19 1.61 68.19 0.02 69.79 35.91 69.79 34.32 68.19"/><polygon class="cls-3" points="34.32 60.46 34.33 60.46 34.33 68.19 34.32 68.19 35.91 69.79 35.91 58.86 34.32 60.46"/><rect class="cls-11" x="1.6" y="60.46" width="32.73" height="7.73"/></g></g></g></svg>