<svg xmlns="http://www.w3.org/2000/svg" xmlns:xlink="http://www.w3.org/1999/xlink" viewBox="0 0 33.3 69.96"><defs><style>.cls-1{fill:url(#linear-gradient);}.cls-2{fill:#def1fa;}.cls-3{fill:#b0c9d6;}.cls-4{fill:#99b1bd;}.cls-5{fill:url(#linear-gradient-2);}.cls-6{fill:url(#linear-gradient-3);}.cls-7{fill:url(#linear-gradient-4);}.cls-8{fill:url(#linear-gradient-5);}.cls-9{fill:#fc0;}.cls-10{fill:url(#linear-gradient-6);}.cls-11{fill:url(#linear-gradient-7);}.cls-12{fill:url(#linear-gradient-8);}.cls-13{fill:url(#linear-gradient-9);}.cls-14{fill:url(#linear-gradient-10);}.cls-15{fill:url(#linear-gradient-11);}.cls-16{fill:url(#linear-gradient-12);}.cls-17{fill:url(#linear-gradient-13);}.cls-18{fill:url(#linear-gradient-14);}</style><linearGradient id="linear-gradient" x1="3.75" y1="-0.94" x2="29.64" y2="39.94" gradientUnits="userSpaceOnUse"><stop offset="0" stop-color="#fafdfe"/><stop offset="0.5" stop-color="#b0c9d6"/><stop offset="1" stop-color="#99b1bd"/></linearGradient><linearGradient id="linear-gradient-2" x1="5.5" y1="1.06" x2="28.04" y2="38.16" gradientUnits="userSpaceOnUse"><stop offset="0" stop-color="#def1fa"/><stop offset="1" stop-color="#b0c9d6"/></linearGradient><linearGradient id="linear-gradient-3" x1="0.76" y1="40.56" x2="0.76" y2="48.02" gradientUnits="userSpaceOnUse"><stop offset="0" stop-color="#fefae5"/><stop offset="1" stop-color="#fc0"/></linearGradient><linearGradient id="linear-gradient-4" x1="0.02" y1="41" x2="33.29" y2="41" xlink:href="#linear-gradient-3"/><linearGradient id="linear-gradient-5" x1="0.02" y1="48.47" x2="33.29" y2="48.47" gradientUnits="userSpaceOnUse"><stop offset="0" stop-color="#fc0"/><stop offset="1" stop-color="#e3b600"/></linearGradient><linearGradient id="linear-gradient-6" x1="16.65" y1="41.81" x2="16.65" y2="47.81" xlink:href="#linear-gradient-3"/><linearGradient id="linear-gradient-7" x1="0.76" y1="50.57" x2="0.76" y2="59.4" xlink:href="#linear-gradient-3"/><linearGradient id="linear-gradient-8" x1="0.02" y1="51.37" x2="33.29" y2="51.37" xlink:href="#linear-gradient-3"/><linearGradient id="linear-gradient-9" x1="0.02" y1="58.84" x2="33.29" y2="58.84" xlink:href="#linear-gradient-5"/><linearGradient id="linear-gradient-10" x1="16.65" y1="52.18" x2="16.65" y2="58.18" xlink:href="#linear-gradient-3"/><linearGradient id="linear-gradient-11" x1="0.76" y1="61.36" x2="0.76" y2="69.6" xlink:href="#linear-gradient-3"/><linearGradient id="linear-gradient-12" x1="0.02" y1="61.75" x2="33.29" y2="61.75" xlink:href="#linear-gradient-3"/><linearGradient id="linear-gradient-13" x1="0.02" y1="69.21" x2="33.29" y2="69.21" xlink:href="#linear-gradient-5"/><linearGradient id="linear-gradient-14" x1="16.65" y1="62.55" x2="16.65" y2="68.56" xlink:href="#linear-gradient-3"/></defs><g id="Layer_2" data-name="Layer 2"><g id="Artwork"><g id="Lieutenant_Grade_4_-_First_Lieutenant" data-name="Lieutenant (Grade 4) - First Lieutenant"><path class="cls-1" d="M33.3,2.51A2.74,2.74,0,0,0,30.64,0h-28A2.72,2.72,0,0,0,0,2.7V36.14a2.69,2.69,0,0,0,2.66,2.7h28a2.71,2.71,0,0,0,2.66-2.7V2.51M16.66,26.6l-5.24-7.18,5.24-7.18,5.23,7.18Z"/><polygon class="cls-2" points="16.66 26.6 16.66 23.86 19.89 19.42 21.89 19.42 16.66 26.6"/><polygon class="cls-3" points="21.89 19.42 19.89 19.42 16.66 14.98 16.66 12.23 21.89 19.42"/><polygon class="cls-4" points="16.66 12.23 16.66 14.98 13.42 19.42 11.42 19.42 16.66 12.23"/><polygon class="cls-3" points="11.42 19.42 13.42 19.42 16.66 23.86 16.66 26.6 11.42 19.42"/><path class="cls-5" d="M30.64,2a.67.67,0,0,1,.65.66V36.14a.67.67,0,0,1-.65.66h-28A.67.67,0,0,1,2,36.14V2.7A.67.67,0,0,1,2.66,2Zm-14,24.56,5.23-7.18-5.23-7.18-5.24,7.18,5.24,7.18"/><polygon class="cls-6" points="1.49 47.73 1.49 41.74 1.5 41.74 0.02 40.26 0.02 49.21 1.5 47.73 1.49 47.73"/><polygon class="cls-7" points="31.81 41.74 33.29 40.26 0.02 40.26 1.5 41.74 31.81 41.74"/><polygon class="cls-8" points="31.81 47.73 1.5 47.73 0.02 49.21 33.29 49.21 31.81 47.73"/><polygon class="cls-9" points="31.81 41.74 31.82 41.74 31.82 47.73 31.81 47.73 33.29 49.21 33.29 40.26 31.81 41.74"/><rect class="cls-10" x="1.49" y="41.74" width="30.33" height="5.99"/><polygon class="cls-11" points="1.49 58.1 1.49 52.12 1.5 52.12 0.02 50.63 0.02 59.58 1.5 58.1 1.49 58.1"/><polygon class="cls-12" points="31.81 52.12 33.29 50.63 0.02 50.63 1.5 52.12 31.81 52.12"/><polygon class="cls-13" points="31.81 58.1 1.5 58.1 0.02 59.58 33.29 59.58 31.81 58.1"/><polygon class="cls-9" points="31.81 52.12 31.82 52.12 31.82 58.1 31.81 58.1 33.29 59.58 33.29 50.63 31.81 52.12"/><rect class="cls-14" x="1.49" y="52.12" width="30.33" height="5.99"/><polygon class="cls-15" points="1.49 68.47 1.49 62.49 1.5 62.49 0.02 61.01 0.02 69.96 1.5 68.47 1.49 68.47"/><polygon class="cls-16" points="31.81 62.49 33.29 61.01 0.02 61.01 1.5 62.49 31.81 62.49"/><polygon class="cls-17" points="31.81 68.47 1.5 68.47 0.02 69.96 33.29 69.96 31.81 68.47"/><polygon class="cls-9" points="31.81 62.49 31.82 62.49 31.82 68.47 31.81 68.47 33.29 69.96 33.29 61.01 31.81 62.49"/><rect class="cls-18" x="1.49" y="62.49" width="30.33" height="5.99"/></g></g></g></svg>