<svg xmlns="http://www.w3.org/2000/svg" xmlns:xlink="http://www.w3.org/1999/xlink" viewBox="0 0 50.45 46.77"><defs><style>.cls-1{fill:url(#linear-gradient);}.cls-2{fill:#def1fa;}.cls-3{fill:#b0c9d6;}.cls-4{fill:#99b1bd;}.cls-5{fill:url(#linear-gradient-2);}.cls-6{fill:url(#linear-gradient-3);}.cls-7{fill:url(#linear-gradient-4);}</style><linearGradient id="linear-gradient" x1="24.57" y1="1.99" x2="51.77" y2="44.95" gradientUnits="userSpaceOnUse"><stop offset="0" stop-color="#fafdfe"/><stop offset="0.5" stop-color="#b0c9d6"/><stop offset="1" stop-color="#99b1bd"/></linearGradient><linearGradient id="linear-gradient-2" x1="26.11" y1="3.61" x2="50.38" y2="43.57" gradientUnits="userSpaceOnUse"><stop offset="0" stop-color="#def1fa"/><stop offset="1" stop-color="#b0c9d6"/></linearGradient><linearGradient id="linear-gradient-3" x1="-1.23" y1="1.98" x2="25.98" y2="44.95" xlink:href="#linear-gradient"/><linearGradient id="linear-gradient-4" x1="0.32" y1="3.61" x2="24.59" y2="43.57" xlink:href="#linear-gradient-2"/></defs><g id="Layer_2" data-name="Layer 2"><g id="Artwork"><g id="Captain"><path class="cls-1" d="M50.44,2a2.2,2.2,0,0,0-2.15-2H28a2.2,2.2,0,0,0-2.16,2.19V44.58A2.18,2.18,0,0,0,28,46.77H48.29a2.2,2.2,0,0,0,2.16-2.19V2.19a.76.76,0,0,0,0-.15M38.12,30.69l-5.32-7.3,5.32-7.31,5.32,7.31Z"/><polygon class="cls-2" points="38.12 30.69 38.12 27.9 41.41 23.39 43.44 23.39 38.12 30.69"/><polygon class="cls-3" points="43.44 23.39 41.41 23.39 38.12 18.87 38.12 16.08 43.44 23.39"/><polygon class="cls-4" points="38.12 16.08 38.12 18.87 34.83 23.39 32.8 23.39 38.12 16.08"/><polygon class="cls-3" points="32.8 23.39 34.83 23.39 38.12 27.9 38.12 30.69 32.8 23.39"/><path class="cls-5" d="M48.29,1.66a.53.53,0,0,1,.52.53V44.58a.53.53,0,0,1-.52.53H28a.53.53,0,0,1-.52-.53V2.19A.53.53,0,0,1,28,1.66Zm-10.17,29,5.32-7.3-5.32-7.31L32.8,23.39l5.32,7.3"/><path class="cls-6" d="M24.65,2a.91.91,0,0,0,0-.23.08.08,0,0,0,0,0s0,0,0-.06a.75.75,0,0,0,0-.16.61.61,0,0,0,0-.12,1.66,1.66,0,0,0-.06-.16l0-.08-.06-.08A2.13,2.13,0,0,0,24.2.86L24.09.72a2.09,2.09,0,0,0-.22-.2.6.6,0,0,0-.08-.08l-.05,0L23.6.32,23.46.23l-.08,0-.09,0-.08,0L23,.06h-.08l-.12,0L22.6,0H2.06L1.87,0,1.74,0H1.69L1.51.1,1.32.17l-.2.1L1,.36s0,0,0,0h0L.69.59l0,0L.55.74.43.88.4.93.33,1a1.27,1.27,0,0,0-.12.23L.15,1.4a2.58,2.58,0,0,0-.08.26l0,.12a2.71,2.71,0,0,0,0,.41V44.58a2.18,2.18,0,0,0,2.16,2.19H22.5a2.58,2.58,0,0,0,.39,0l.07,0a1.42,1.42,0,0,0,.35-.11l.06,0,.12,0,.12-.08.14-.09.06,0,.21-.2h0l.16-.18a1,1,0,0,1,.08-.11l0,0,0,0,.1-.18.06-.12v-.06l.06-.18a1.21,1.21,0,0,0,.05-.18h0l0-.17a1.21,1.21,0,0,0,0-.19.2.2,0,0,0,0-.07V2.19S24.65,2.09,24.65,2ZM12.33,30.69,7,23.39l5.32-7.31,5.32,7.31Z"/><polygon class="cls-2" points="12.33 30.69 12.33 27.9 15.62 23.39 17.65 23.39 12.33 30.69"/><polygon class="cls-3" points="17.65 23.39 15.62 23.39 12.33 18.87 12.33 16.08 17.65 23.39"/><polygon class="cls-4" points="12.33 16.08 12.33 18.87 9.04 23.39 7.01 23.39 12.33 16.08"/><polygon class="cls-3" points="7.01 23.39 9.04 23.39 12.33 27.9 12.33 30.69 7.01 23.39"/><path class="cls-7" d="M22.5,1.66a.53.53,0,0,1,.52.53V44.58a.53.53,0,0,1-.52.53H2.16a.55.55,0,0,1-.53-.53V2.19a.55.55,0,0,1,.53-.53Zm-10.17,29,5.32-7.3-5.32-7.31L7,23.39l5.32,7.3"/></g></g></g></svg>