<svg xmlns="http://www.w3.org/2000/svg" xmlns:xlink="http://www.w3.org/1999/xlink" viewBox="0 0 50.5 62.56"><defs><style>.cls-1{fill:#def1fa;}.cls-2{fill:url(#linear-gradient);}.cls-3{fill:url(#linear-gradient-2);}.cls-4{fill:#b0c9d6;}.cls-5{fill:url(#linear-gradient-3);}.cls-6{fill:url(#linear-gradient-4);}.cls-7{fill:url(#linear-gradient-5);}.cls-8{fill:url(#linear-gradient-6);}.cls-9{fill:url(#linear-gradient-7);}.cls-10{fill:url(#linear-gradient-8);}.cls-11{fill:url(#linear-gradient-9);}.cls-12{fill:url(#linear-gradient-10);}.cls-13{fill:url(#linear-gradient-11);}.cls-14{fill:url(#linear-gradient-12);}</style><linearGradient id="linear-gradient" x1="0.01" y1="51.39" x2="50.49" y2="51.39" gradientUnits="userSpaceOnUse"><stop offset="0" stop-color="#fafdfe"/><stop offset="1" stop-color="#def1fa"/></linearGradient><linearGradient id="linear-gradient-2" x1="0.01" y1="61.71" x2="50.49" y2="61.71" gradientUnits="userSpaceOnUse"><stop offset="0" stop-color="#b0c9d6"/><stop offset="1" stop-color="#99b1bd"/></linearGradient><linearGradient id="linear-gradient-3" x1="25.25" y1="52.34" x2="25.25" y2="60.97" gradientUnits="userSpaceOnUse"><stop offset="0" stop-color="#fafdfe"/><stop offset="0.26" stop-color="#dce8ee"/><stop offset="0.54" stop-color="#c4d7e1"/><stop offset="0.79" stop-color="#b5cdd9"/><stop offset="1" stop-color="#b0c9d6"/></linearGradient><linearGradient id="linear-gradient-4" x1="22.27" y1="1.75" x2="22.27" y2="25.08" gradientUnits="userSpaceOnUse"><stop offset="0" stop-color="#fafdfe"/><stop offset="1" stop-color="#b0c9d6"/></linearGradient><linearGradient id="linear-gradient-5" x1="25.25" y1="37.28" x2="40.85" y2="37.28" gradientUnits="userSpaceOnUse"><stop offset="0" stop-color="#b8d2e0"/><stop offset="1" stop-color="#b0c9d6"/></linearGradient><linearGradient id="linear-gradient-6" x1="17.45" y1="29.12" x2="17.45" y2="45.19" xlink:href="#linear-gradient-2"/><linearGradient id="linear-gradient-7" x1="33.05" y1="27.5" x2="33.05" y2="46" xlink:href="#linear-gradient-2"/><linearGradient id="linear-gradient-8" x1="46.46" y1="22.44" x2="27.46" y2="22.44" xlink:href="#linear-gradient-5"/><linearGradient id="linear-gradient-9" x1="27.12" y1="24.01" x2="48.79" y2="24.01" gradientUnits="userSpaceOnUse"><stop offset="0" stop-color="#b8d2e0"/><stop offset="1" stop-color="#99b1bd"/></linearGradient><linearGradient id="linear-gradient-10" x1="17.45" y1="48" x2="17.45" y2="26.75" gradientUnits="userSpaceOnUse"><stop offset="0" stop-color="#fafdfe"/><stop offset="1" stop-color="#b8d2e0"/></linearGradient><linearGradient id="linear-gradient-11" x1="0.21" y1="24.01" x2="25.21" y2="24.01" gradientUnits="userSpaceOnUse"><stop offset="0" stop-color="#def1fa"/><stop offset="1" stop-color="#99b1bd"/></linearGradient><linearGradient id="linear-gradient-12" x1="2.46" y1="22.44" x2="25.96" y2="22.44" xlink:href="#linear-gradient-4"/></defs><g id="Layer_2" data-name="Layer 2"><g id="Artwork"><g id="Major_Grade_2_" data-name="Major (Grade 2)"><polygon class="cls-1" points="1.71 60.85 1.71 52.25 1.73 52.25 0.01 50.53 0.01 62.56 1.73 60.85 1.71 60.85"/><polygon class="cls-2" points="48.77 52.25 50.49 50.53 0.01 50.53 1.73 52.25 48.77 52.25"/><polygon class="cls-3" points="48.77 60.85 1.73 60.85 0.01 62.56 50.49 62.56 48.77 60.85"/><polygon class="cls-4" points="48.77 52.25 48.79 52.25 48.79 60.85 48.77 60.85 50.49 62.56 50.49 50.53 48.77 52.25"/><rect class="cls-5" x="1.71" y="52.25" width="47.08" height="8.6"/><polygon class="cls-6" points="25.24 26.54 19.29 18.34 25.25 0 25.25 26.52 25.24 26.54"/><polygon class="cls-7" points="25.25 26.54 40.85 48.02 25.25 36.68 25.26 26.55 25.25 26.54"/><polygon class="cls-8" points="25.26 26.55 25.25 36.68 9.65 48.02 25.24 26.55 25.26 26.55"/><polygon class="cls-9" points="25.25 26.55 34.89 29.68 40.85 48.02 25.25 26.54 25.25 26.55"/><polygon class="cls-10" points="25.25 26.54 31.21 18.34 50.5 18.34 25.27 26.54 25.25 26.54"/><polygon class="cls-4" points="25.25 26.52 25.25 0 31.21 18.34 25.25 26.54 25.25 26.52"/><polygon class="cls-11" points="25.27 26.54 50.5 18.34 34.89 29.68 25.25 26.55 25.27 26.54"/><polygon class="cls-12" points="25.24 26.55 9.65 48.02 15.61 29.68 25.25 26.55 25.24 26.55"/><polygon class="cls-13" points="25.25 26.55 15.61 29.68 0 18.34 25.23 26.54 25.25 26.55"/><polygon class="cls-14" points="25.23 26.54 0 18.34 19.29 18.34 25.24 26.54 25.23 26.54"/></g></g></g></svg>