<svg xmlns="http://www.w3.org/2000/svg" xmlns:xlink="http://www.w3.org/1999/xlink" viewBox="0 0 49.64 69.83"><defs><style>.cls-1{fill:#def1fa;}.cls-2{fill:url(#linear-gradient);}.cls-3{fill:url(#linear-gradient-2);}.cls-4{fill:#b0c9d6;}.cls-5{fill:url(#linear-gradient-3);}.cls-6{fill:url(#linear-gradient-4);}.cls-7{fill:url(#linear-gradient-5);}.cls-8{fill:url(#linear-gradient-6);}.cls-9{fill:url(#linear-gradient-7);}.cls-10{fill:url(#linear-gradient-8);}.cls-11{fill:url(#linear-gradient-9);}.cls-12{fill:url(#linear-gradient-10);}.cls-13{fill:url(#linear-gradient-11);}.cls-14{fill:url(#linear-gradient-12);}.cls-15{fill:url(#linear-gradient-13);}.cls-16{fill:url(#linear-gradient-14);}.cls-17{fill:url(#linear-gradient-15);}</style><linearGradient id="linear-gradient" y1="49.29" x2="49.64" y2="49.29" gradientUnits="userSpaceOnUse"><stop offset="0" stop-color="#fafdfe"/><stop offset="1" stop-color="#def1fa"/></linearGradient><linearGradient id="linear-gradient-2" y1="57.9" x2="49.64" y2="57.9" gradientUnits="userSpaceOnUse"><stop offset="0" stop-color="#b0c9d6"/><stop offset="1" stop-color="#99b1bd"/></linearGradient><linearGradient id="linear-gradient-3" x1="24.82" y1="50.08" x2="24.82" y2="57.29" gradientUnits="userSpaceOnUse"><stop offset="0" stop-color="#fafdfe"/><stop offset="0.26" stop-color="#dce8ee"/><stop offset="0.54" stop-color="#c4d7e1"/><stop offset="0.79" stop-color="#b5cdd9"/><stop offset="1" stop-color="#b0c9d6"/></linearGradient><linearGradient id="linear-gradient-4" y1="60.5" x2="49.64" y2="60.5" xlink:href="#linear-gradient"/><linearGradient id="linear-gradient-5" y1="69.12" x2="49.64" y2="69.12" xlink:href="#linear-gradient-2"/><linearGradient id="linear-gradient-6" x1="24.82" y1="61.3" x2="24.82" y2="68.5" xlink:href="#linear-gradient-3"/><linearGradient id="linear-gradient-7" x1="21.96" y1="1.68" x2="21.96" y2="24.09" gradientUnits="userSpaceOnUse"><stop offset="0" stop-color="#fafdfe"/><stop offset="1" stop-color="#b0c9d6"/></linearGradient><linearGradient id="linear-gradient-8" x1="24.82" y1="35.81" x2="39.81" y2="35.81" gradientUnits="userSpaceOnUse"><stop offset="0" stop-color="#b8d2e0"/><stop offset="1" stop-color="#b0c9d6"/></linearGradient><linearGradient id="linear-gradient-9" x1="17.33" y1="27.96" x2="17.33" y2="43.4" xlink:href="#linear-gradient-2"/><linearGradient id="linear-gradient-10" x1="32.31" y1="26.41" x2="32.31" y2="44.18" xlink:href="#linear-gradient-2"/><linearGradient id="linear-gradient-11" x1="45.19" y1="21.55" x2="26.94" y2="21.55" xlink:href="#linear-gradient-8"/><linearGradient id="linear-gradient-12" x1="26.62" y1="23.06" x2="47.43" y2="23.06" gradientUnits="userSpaceOnUse"><stop offset="0" stop-color="#b8d2e0"/><stop offset="1" stop-color="#99b1bd"/></linearGradient><linearGradient id="linear-gradient-13" x1="17.33" y1="46.1" x2="17.33" y2="25.69" gradientUnits="userSpaceOnUse"><stop offset="0" stop-color="#fafdfe"/><stop offset="1" stop-color="#b8d2e0"/></linearGradient><linearGradient id="linear-gradient-14" x1="0.77" y1="23.06" x2="24.78" y2="23.06" gradientUnits="userSpaceOnUse"><stop offset="0" stop-color="#def1fa"/><stop offset="1" stop-color="#99b1bd"/></linearGradient><linearGradient id="linear-gradient-15" x1="2.93" y1="21.55" x2="25.5" y2="21.55" xlink:href="#linear-gradient-7"/></defs><g id="Layer_2" data-name="Layer 2"><g id="Artwork"><g id="Major_Grade_3_" data-name="Major (Grade 3)"><polygon class="cls-1" points="1.42 57.19 1.42 50.01 1.43 50.01 0 48.57 0 58.62 1.43 57.19 1.42 57.19"/><polygon class="cls-2" points="48.21 50.01 49.64 48.57 0 48.57 1.43 50.01 48.21 50.01"/><polygon class="cls-3" points="48.21 57.19 1.43 57.19 0 58.62 49.64 58.62 48.21 57.19"/><polygon class="cls-4" points="48.21 50.01 48.22 50.01 48.22 57.19 48.21 57.19 49.64 58.62 49.64 48.57 48.21 50.01"/><rect class="cls-5" x="1.42" y="50.01" width="46.8" height="7.18"/><polygon class="cls-1" points="1.42 68.4 1.42 61.22 1.43 61.22 0 59.79 0 69.83 1.43 68.4 1.42 68.4"/><polygon class="cls-6" points="48.21 61.22 49.64 59.79 0 59.79 1.43 61.22 48.21 61.22"/><polygon class="cls-7" points="48.21 68.4 1.43 68.4 0 69.83 49.64 69.83 48.21 68.4"/><polygon class="cls-4" points="48.21 61.22 48.22 61.22 48.22 68.4 48.21 68.4 49.64 69.83 49.64 59.79 48.21 61.22"/><rect class="cls-8" x="1.42" y="61.22" width="46.8" height="7.18"/><polygon class="cls-9" points="24.81 25.49 19.1 17.61 24.83 0 24.82 25.47 24.81 25.49"/><polygon class="cls-10" points="24.82 25.49 39.81 46.12 24.83 35.23 24.83 25.49 24.82 25.49"/><polygon class="cls-11" points="24.83 25.49 24.83 35.23 9.84 46.12 24.82 25.5 24.83 25.49"/><polygon class="cls-12" points="24.83 25.5 34.08 28.51 39.81 46.12 24.82 25.49 24.83 25.5"/><polygon class="cls-13" points="24.83 25.49 30.55 17.61 49.07 17.61 24.84 25.49 24.83 25.49"/><polygon class="cls-4" points="24.82 25.47 24.83 0 30.55 17.61 24.83 25.49 24.82 25.47"/><polygon class="cls-14" points="24.84 25.49 49.07 17.61 34.08 28.51 24.83 25.5 24.84 25.49"/><polygon class="cls-15" points="24.82 25.5 9.84 46.12 15.56 28.51 24.82 25.5 24.82 25.5"/><polygon class="cls-16" points="24.82 25.5 15.56 28.51 0.57 17.61 24.81 25.49 24.82 25.5"/><polygon class="cls-17" points="24.81 25.49 0.57 17.61 19.1 17.61 24.81 25.49 24.81 25.49"/></g></g></g></svg>