<svg xmlns="http://www.w3.org/2000/svg" xmlns:xlink="http://www.w3.org/1999/xlink" viewBox="0 0 44.94 70.17"><defs><style>.cls-1{fill:url(#linear-gradient);}.cls-2{fill:url(#linear-gradient-2);}.cls-3{fill:url(#linear-gradient-3);}.cls-4{fill:url(#linear-gradient-4);}.cls-5{fill:url(#linear-gradient-5);}.cls-6{fill:#b0c9d6;}.cls-7{fill:url(#linear-gradient-6);}.cls-8{fill:url(#linear-gradient-7);}.cls-9{fill:url(#linear-gradient-8);}.cls-10{fill:url(#linear-gradient-9);}.cls-11{fill:url(#linear-gradient-10);}.cls-12{fill:url(#linear-gradient-11);}.cls-13{fill:url(#linear-gradient-12);}.cls-14{fill:#fc0;}.cls-15{fill:url(#linear-gradient-13);}.cls-16{fill:url(#linear-gradient-14);}.cls-17{fill:url(#linear-gradient-15);}.cls-18{fill:url(#linear-gradient-16);}.cls-19{fill:url(#linear-gradient-17);}.cls-20{fill:url(#linear-gradient-18);}.cls-21{fill:url(#linear-gradient-19);}.cls-22{fill:url(#linear-gradient-20);}.cls-23{fill:url(#linear-gradient-21);}</style><linearGradient id="linear-gradient" x1="19.86" y1="1.53" x2="19.86" y2="21.96" gradientUnits="userSpaceOnUse"><stop offset="0" stop-color="#fafdfe"/><stop offset="1" stop-color="#b0c9d6"/></linearGradient><linearGradient id="linear-gradient-2" x1="22.47" y1="32.65" x2="36.13" y2="32.65" gradientUnits="userSpaceOnUse"><stop offset="0" stop-color="#b8d2e0"/><stop offset="1" stop-color="#b0c9d6"/></linearGradient><linearGradient id="linear-gradient-3" x1="15.65" y1="25.49" x2="15.65" y2="39.57" gradientUnits="userSpaceOnUse"><stop offset="0" stop-color="#b0c9d6"/><stop offset="1" stop-color="#99b1bd"/></linearGradient><linearGradient id="linear-gradient-4" x1="29.3" y1="24.08" x2="29.3" y2="40.28" xlink:href="#linear-gradient-3"/><linearGradient id="linear-gradient-5" x1="41.04" y1="19.65" x2="24.4" y2="19.65" xlink:href="#linear-gradient-2"/><linearGradient id="linear-gradient-6" x1="24.11" y1="21.02" x2="43.08" y2="21.02" gradientUnits="userSpaceOnUse"><stop offset="0" stop-color="#b8d2e0"/><stop offset="1" stop-color="#99b1bd"/></linearGradient><linearGradient id="linear-gradient-7" x1="15.64" y1="42.03" x2="15.64" y2="23.42" gradientUnits="userSpaceOnUse"><stop offset="0" stop-color="#fafdfe"/><stop offset="1" stop-color="#b8d2e0"/></linearGradient><linearGradient id="linear-gradient-8" x1="0.54" y1="21.02" x2="22.43" y2="21.02" gradientUnits="userSpaceOnUse"><stop offset="0" stop-color="#def1fa"/><stop offset="1" stop-color="#99b1bd"/></linearGradient><linearGradient id="linear-gradient-9" x1="2.51" y1="19.65" x2="23.09" y2="19.65" xlink:href="#linear-gradient"/><linearGradient id="linear-gradient-10" x1="0.86" y1="43.65" x2="0.86" y2="50.91" gradientUnits="userSpaceOnUse"><stop offset="0" stop-color="#fefae5"/><stop offset="1" stop-color="#fc0"/></linearGradient><linearGradient id="linear-gradient-11" x1="0" y1="44.45" x2="44.94" y2="44.45" xlink:href="#linear-gradient-10"/><linearGradient id="linear-gradient-12" y1="50.57" x2="44.94" y2="50.57" gradientUnits="userSpaceOnUse"><stop offset="0" stop-color="#fc0"/><stop offset="1" stop-color="#e3b600"/></linearGradient><linearGradient id="linear-gradient-13" x1="22.47" y1="45.36" x2="22.47" y2="49.77" xlink:href="#linear-gradient-10"/><linearGradient id="linear-gradient-14" x1="0.86" y1="53.26" x2="0.86" y2="60.52" xlink:href="#linear-gradient-10"/><linearGradient id="linear-gradient-15" x1="0" y1="53.83" x2="44.94" y2="53.83" xlink:href="#linear-gradient-10"/><linearGradient id="linear-gradient-16" y1="59.94" x2="44.94" y2="59.94" xlink:href="#linear-gradient-12"/><linearGradient id="linear-gradient-17" x1="22.47" y1="54.73" x2="22.47" y2="59.14" xlink:href="#linear-gradient-10"/><linearGradient id="linear-gradient-18" x1="0.86" y1="62.48" x2="0.86" y2="70.33" xlink:href="#linear-gradient-10"/><linearGradient id="linear-gradient-19" x1="0" y1="63.2" x2="44.94" y2="63.2" xlink:href="#linear-gradient-10"/><linearGradient id="linear-gradient-20" y1="69.31" x2="44.94" y2="69.31" xlink:href="#linear-gradient-12"/><linearGradient id="linear-gradient-21" x1="22.47" y1="64.1" x2="22.47" y2="68.52" xlink:href="#linear-gradient-10"/></defs><g id="Layer_2" data-name="Layer 2"><g id="Artwork"><g id="Major_Grade_4_-_Field_Major" data-name="Major (Grade 4) - Field Major"><polygon class="cls-1" points="22.46 23.24 17.25 16.06 22.48 0 22.47 23.22 22.46 23.24"/><polygon class="cls-2" points="22.47 23.24 36.13 42.05 22.48 32.12 22.48 23.24 22.47 23.24"/><polygon class="cls-3" points="22.48 23.24 22.48 32.12 8.81 42.05 22.47 23.25 22.48 23.24"/><polygon class="cls-4" points="22.48 23.25 30.92 25.99 36.13 42.05 22.47 23.24 22.48 23.25"/><polygon class="cls-5" points="22.48 23.24 27.69 16.06 44.58 16.06 22.48 23.24 22.48 23.24"/><polygon class="cls-6" points="22.47 23.22 22.48 0 27.69 16.06 22.48 23.24 22.47 23.22"/><polygon class="cls-7" points="22.48 23.24 44.58 16.06 30.92 25.99 22.48 23.25 22.48 23.24"/><polygon class="cls-8" points="22.47 23.25 8.81 42.05 14.03 25.99 22.47 23.25 22.47 23.25"/><polygon class="cls-9" points="22.47 23.25 14.03 25.99 0.36 16.06 22.46 23.24 22.47 23.25"/><polygon class="cls-10" points="22.46 23.24 0.36 16.06 17.25 16.06 22.46 23.24 22.46 23.24"/><polygon class="cls-11" points="1.7 49.71 1.7 45.31 1.72 45.31 0 43.59 0 51.42 1.72 49.71 1.7 49.71"/><polygon class="cls-12" points="43.22 45.31 44.94 43.59 0 43.59 1.72 45.31 43.22 45.31"/><polygon class="cls-13" points="43.22 49.71 1.72 49.71 0 51.42 44.94 51.42 43.22 49.71"/><polygon class="cls-14" points="43.22 45.31 43.24 45.31 43.24 49.71 43.22 49.71 44.94 51.42 44.94 43.59 43.22 45.31"/><rect class="cls-15" x="1.7" y="45.31" width="41.54" height="4.4"/><polygon class="cls-16" points="1.7 59.08 1.7 54.68 1.72 54.68 0 52.97 0 60.8 1.72 59.08 1.7 59.08"/><polygon class="cls-17" points="43.22 54.68 44.94 52.97 0 52.97 1.72 54.68 43.22 54.68"/><polygon class="cls-18" points="43.22 59.08 1.72 59.08 0 60.8 44.94 60.8 43.22 59.08"/><polygon class="cls-14" points="43.22 54.68 43.24 54.68 43.24 59.08 43.22 59.08 44.94 60.8 44.94 52.97 43.22 54.68"/><rect class="cls-19" x="1.7" y="54.68" width="41.54" height="4.4"/><polygon class="cls-20" points="1.7 68.46 1.7 64.06 1.72 64.06 0 62.34 0 70.17 1.72 68.46 1.7 68.46"/><polygon class="cls-21" points="43.22 64.06 44.94 62.34 0 62.34 1.72 64.06 43.22 64.06"/><polygon class="cls-22" points="43.22 68.46 1.72 68.46 0 70.17 44.94 70.17 43.22 68.46"/><polygon class="cls-14" points="43.22 64.06 43.24 64.06 43.24 68.46 43.22 68.46 44.94 70.17 44.94 62.34 43.22 64.06"/><rect class="cls-23" x="1.7" y="64.06" width="41.54" height="4.4"/></g></g></g></svg>