<svg xmlns="http://www.w3.org/2000/svg" xmlns:xlink="http://www.w3.org/1999/xlink" viewBox="0 0 39.39 70.48"><defs><style>.cls-1{fill:url(#linear-gradient);}.cls-2{fill:url(#linear-gradient-2);}.cls-3{fill:url(#linear-gradient-3);}.cls-4{fill:url(#linear-gradient-4);}.cls-5{fill:url(#linear-gradient-5);}.cls-6{fill:#b0c9d6;}.cls-7{fill:url(#linear-gradient-6);}.cls-8{fill:url(#linear-gradient-7);}.cls-9{fill:url(#linear-gradient-8);}.cls-10{fill:url(#linear-gradient-9);}.cls-11{fill:url(#linear-gradient-10);}.cls-12{fill:url(#linear-gradient-11);}.cls-13{fill:url(#linear-gradient-12);}.cls-14{fill:url(#linear-gradient-13);}.cls-15{fill:url(#linear-gradient-14);}.cls-16{fill:url(#linear-gradient-15);}.cls-17{fill:url(#linear-gradient-16);}.cls-18{fill:url(#linear-gradient-17);}.cls-19{fill:url(#linear-gradient-18);}</style><linearGradient id="linear-gradient" x1="17.37" y1="1.37" x2="17.37" y2="19.57" gradientUnits="userSpaceOnUse"><stop offset="0" stop-color="#fafdfe"/><stop offset="1" stop-color="#b0c9d6"/></linearGradient><linearGradient id="linear-gradient-2" x1="19.7" y1="29.08" x2="31.87" y2="29.08" gradientUnits="userSpaceOnUse"><stop offset="0" stop-color="#b8d2e0"/><stop offset="1" stop-color="#b0c9d6"/></linearGradient><linearGradient id="linear-gradient-3" x1="13.61" y1="22.71" x2="13.61" y2="35.25" gradientUnits="userSpaceOnUse"><stop offset="0" stop-color="#b0c9d6"/><stop offset="1" stop-color="#99b1bd"/></linearGradient><linearGradient id="linear-gradient-4" x1="25.78" y1="21.45" x2="25.78" y2="35.88" xlink:href="#linear-gradient-3"/><linearGradient id="linear-gradient-5" x1="36.24" y1="17.51" x2="21.42" y2="17.51" xlink:href="#linear-gradient-2"/><linearGradient id="linear-gradient-6" x1="21.16" y1="18.73" x2="38.06" y2="18.73" gradientUnits="userSpaceOnUse"><stop offset="0" stop-color="#b8d2e0"/><stop offset="1" stop-color="#99b1bd"/></linearGradient><linearGradient id="linear-gradient-7" x1="13.61" y1="37.44" x2="13.61" y2="20.87" gradientUnits="userSpaceOnUse"><stop offset="0" stop-color="#fafdfe"/><stop offset="1" stop-color="#b8d2e0"/></linearGradient><linearGradient id="linear-gradient-8" x1="0.16" y1="18.73" x2="19.66" y2="18.73" gradientUnits="userSpaceOnUse"><stop offset="0" stop-color="#def1fa"/><stop offset="1" stop-color="#99b1bd"/></linearGradient><linearGradient id="linear-gradient-9" x1="1.92" y1="17.51" x2="20.25" y2="17.51" xlink:href="#linear-gradient"/><linearGradient id="linear-gradient-10" x1="17.37" y1="34.39" x2="17.37" y2="52.59" xlink:href="#linear-gradient"/><linearGradient id="linear-gradient-11" x1="19.7" y1="62.1" x2="31.87" y2="62.1" xlink:href="#linear-gradient-2"/><linearGradient id="linear-gradient-12" x1="13.61" y1="55.73" x2="13.61" y2="68.27" xlink:href="#linear-gradient-3"/><linearGradient id="linear-gradient-13" x1="25.78" y1="54.47" x2="25.78" y2="68.9" xlink:href="#linear-gradient-3"/><linearGradient id="linear-gradient-14" x1="36.24" y1="50.53" x2="21.42" y2="50.53" xlink:href="#linear-gradient-2"/><linearGradient id="linear-gradient-15" x1="21.16" y1="51.75" x2="38.06" y2="51.75" xlink:href="#linear-gradient-6"/><linearGradient id="linear-gradient-16" x1="13.61" y1="70.46" x2="13.61" y2="53.89" xlink:href="#linear-gradient-7"/><linearGradient id="linear-gradient-17" x1="0.16" y1="51.75" x2="19.66" y2="51.75" xlink:href="#linear-gradient-8"/><linearGradient id="linear-gradient-18" x1="1.92" y1="50.53" x2="20.25" y2="50.53" xlink:href="#linear-gradient"/></defs><g id="Layer_2" data-name="Layer 2"><g id="Artwork"><g id="Commander"><polygon class="cls-1" points="19.69 20.7 15.04 14.31 19.7 0 19.7 20.69 19.69 20.7"/><polygon class="cls-2" points="19.7 20.7 31.87 37.46 19.7 28.61 19.7 20.71 19.7 20.7"/><polygon class="cls-3" points="19.7 20.71 19.7 28.61 7.53 37.46 19.69 20.71 19.7 20.71"/><polygon class="cls-4" points="19.7 20.71 27.22 23.15 31.87 37.46 19.7 20.7 19.7 20.71"/><polygon class="cls-5" points="19.7 20.7 24.35 14.31 39.39 14.31 19.71 20.7 19.7 20.7"/><polygon class="cls-6" points="19.7 20.69 19.7 0 24.35 14.31 19.7 20.7 19.7 20.69"/><polygon class="cls-7" points="19.71 20.7 39.39 14.31 27.22 23.15 19.7 20.71 19.71 20.7"/><polygon class="cls-8" points="19.69 20.71 7.53 37.46 12.17 23.15 19.69 20.71 19.69 20.71"/><polygon class="cls-9" points="19.69 20.71 12.17 23.15 0 14.31 19.69 20.7 19.69 20.71"/><polygon class="cls-10" points="19.69 20.7 0 14.31 15.04 14.31 19.69 20.7 19.69 20.7"/><polygon class="cls-11" points="19.69 53.72 15.04 47.33 19.7 33.02 19.7 53.71 19.69 53.72"/><polygon class="cls-12" points="19.7 53.72 31.87 70.48 19.7 61.63 19.7 53.73 19.7 53.72"/><polygon class="cls-13" points="19.7 53.73 19.7 61.63 7.53 70.48 19.69 53.73 19.7 53.73"/><polygon class="cls-14" points="19.7 53.73 27.22 56.17 31.87 70.48 19.7 53.72 19.7 53.73"/><polygon class="cls-15" points="19.7 53.72 24.35 47.33 39.39 47.33 19.71 53.72 19.7 53.72"/><polygon class="cls-6" points="19.7 53.71 19.7 33.02 24.35 47.33 19.7 53.72 19.7 53.71"/><polygon class="cls-16" points="19.71 53.72 39.39 47.33 27.22 56.17 19.7 53.73 19.71 53.72"/><polygon class="cls-17" points="19.69 53.73 7.53 70.48 12.17 56.17 19.69 53.73 19.69 53.73"/><polygon class="cls-18" points="19.69 53.73 12.17 56.17 0 47.33 19.69 53.72 19.69 53.73"/><polygon class="cls-19" points="19.69 53.72 0 47.33 15.04 47.33 19.69 53.72 19.69 53.72"/></g></g></g></svg>