<svg xmlns="http://www.w3.org/2000/svg" xmlns:xlink="http://www.w3.org/1999/xlink" viewBox="0 0 41.96 70.64"><defs><style>.cls-1{fill:url(#linear-gradient);}.cls-2{fill:url(#linear-gradient-2);}.cls-3{fill:url(#linear-gradient-3);}.cls-4{fill:url(#linear-gradient-4);}.cls-5{fill:url(#linear-gradient-5);}.cls-6{fill:#b0c9d6;}.cls-7{fill:url(#linear-gradient-6);}.cls-8{fill:url(#linear-gradient-7);}.cls-9{fill:url(#linear-gradient-8);}.cls-10{fill:url(#linear-gradient-9);}.cls-11{fill:url(#linear-gradient-10);}.cls-12{fill:url(#linear-gradient-11);}.cls-13{fill:url(#linear-gradient-12);}.cls-14{fill:url(#linear-gradient-13);}.cls-15{fill:url(#linear-gradient-14);}.cls-16{fill:url(#linear-gradient-15);}.cls-17{fill:url(#linear-gradient-16);}.cls-18{fill:url(#linear-gradient-17);}.cls-19{fill:url(#linear-gradient-18);}.cls-20{fill:#def1fa;}.cls-21{fill:url(#linear-gradient-19);}.cls-22{fill:url(#linear-gradient-20);}.cls-23{fill:url(#linear-gradient-21);}</style><linearGradient id="linear-gradient" x1="19.06" y1="1.13" x2="19.06" y2="16.17" gradientUnits="userSpaceOnUse"><stop offset="0" stop-color="#fafdfe"/><stop offset="1" stop-color="#b0c9d6"/></linearGradient><linearGradient id="linear-gradient-2" x1="20.98" y1="24.04" x2="31.04" y2="24.04" gradientUnits="userSpaceOnUse"><stop offset="0" stop-color="#b8d2e0"/><stop offset="1" stop-color="#b0c9d6"/></linearGradient><linearGradient id="linear-gradient-3" x1="15.96" y1="18.77" x2="15.96" y2="29.14" gradientUnits="userSpaceOnUse"><stop offset="0" stop-color="#b0c9d6"/><stop offset="1" stop-color="#99b1bd"/></linearGradient><linearGradient id="linear-gradient-4" x1="26.01" y1="17.73" x2="26.01" y2="29.66" xlink:href="#linear-gradient-3"/><linearGradient id="linear-gradient-5" x1="34.66" y1="14.47" x2="22.41" y2="14.47" xlink:href="#linear-gradient-2"/><linearGradient id="linear-gradient-6" x1="22.19" y1="15.48" x2="36.16" y2="15.48" gradientUnits="userSpaceOnUse"><stop offset="0" stop-color="#b8d2e0"/><stop offset="1" stop-color="#99b1bd"/></linearGradient><linearGradient id="linear-gradient-7" x1="15.95" y1="30.95" x2="15.95" y2="17.25" gradientUnits="userSpaceOnUse"><stop offset="0" stop-color="#fafdfe"/><stop offset="1" stop-color="#b8d2e0"/></linearGradient><linearGradient id="linear-gradient-8" x1="4.84" y1="15.48" x2="20.95" y2="15.48" gradientUnits="userSpaceOnUse"><stop offset="0" stop-color="#def1fa"/><stop offset="1" stop-color="#99b1bd"/></linearGradient><linearGradient id="linear-gradient-9" x1="6.29" y1="14.47" x2="21.44" y2="14.47" xlink:href="#linear-gradient"/><linearGradient id="linear-gradient-10" x1="19.06" y1="28.42" x2="19.06" y2="43.46" xlink:href="#linear-gradient"/><linearGradient id="linear-gradient-11" x1="20.98" y1="51.33" x2="31.04" y2="51.33" xlink:href="#linear-gradient-2"/><linearGradient id="linear-gradient-12" x1="15.96" y1="46.06" x2="15.96" y2="56.43" xlink:href="#linear-gradient-3"/><linearGradient id="linear-gradient-13" x1="26.01" y1="45.02" x2="26.01" y2="56.95" xlink:href="#linear-gradient-3"/><linearGradient id="linear-gradient-14" x1="34.66" y1="41.76" x2="22.41" y2="41.76" xlink:href="#linear-gradient-2"/><linearGradient id="linear-gradient-15" x1="22.19" y1="42.77" x2="36.16" y2="42.77" xlink:href="#linear-gradient-6"/><linearGradient id="linear-gradient-16" x1="15.95" y1="58.24" x2="15.95" y2="44.54" xlink:href="#linear-gradient-7"/><linearGradient id="linear-gradient-17" x1="4.84" y1="42.77" x2="20.95" y2="42.77" xlink:href="#linear-gradient-8"/><linearGradient id="linear-gradient-18" x1="6.29" y1="41.76" x2="21.44" y2="41.76" xlink:href="#linear-gradient"/><linearGradient id="linear-gradient-19" y1="61.31" x2="41.96" y2="61.31" gradientUnits="userSpaceOnUse"><stop offset="0" stop-color="#fafdfe"/><stop offset="1" stop-color="#def1fa"/></linearGradient><linearGradient id="linear-gradient-20" x1="0" y1="69.93" x2="41.96" y2="69.93" xlink:href="#linear-gradient-3"/><linearGradient id="linear-gradient-21" x1="20.98" y1="62.11" x2="20.98" y2="69.31" gradientUnits="userSpaceOnUse"><stop offset="0" stop-color="#fafdfe"/><stop offset="0.26" stop-color="#dce8ee"/><stop offset="0.54" stop-color="#c4d7e1"/><stop offset="0.79" stop-color="#b5cdd9"/><stop offset="1" stop-color="#b0c9d6"/></linearGradient></defs><g id="Layer_2" data-name="Layer 2"><g id="Artwork"><g id="Commander_Grade_2_" data-name="Commander (Grade 2)"><polygon class="cls-1" points="20.98 17.11 17.14 11.83 20.99 0 20.98 17.1 20.98 17.11"/><polygon class="cls-2" points="20.98 17.11 31.04 30.96 20.99 23.65 20.99 17.11 20.98 17.11"/><polygon class="cls-3" points="20.99 17.11 20.99 23.65 10.92 30.96 20.98 17.12 20.99 17.11"/><polygon class="cls-4" points="20.98 17.12 27.2 19.14 31.04 30.96 20.98 17.11 20.98 17.12"/><polygon class="cls-5" points="20.99 17.11 24.83 11.83 37.26 11.83 20.99 17.11 20.99 17.11"/><polygon class="cls-6" points="20.98 17.1 20.99 0 24.83 11.83 20.99 17.11 20.98 17.1"/><polygon class="cls-7" points="20.99 17.11 37.26 11.83 27.2 19.14 20.98 17.12 20.99 17.11"/><polygon class="cls-8" points="20.98 17.12 10.92 30.96 14.77 19.14 20.98 17.12 20.98 17.12"/><polygon class="cls-9" points="20.98 17.12 14.77 19.14 4.7 11.83 20.97 17.11 20.98 17.12"/><polygon class="cls-10" points="20.97 17.11 4.7 11.83 17.14 11.83 20.98 17.11 20.97 17.11"/><polygon class="cls-11" points="20.98 44.4 17.14 39.12 20.99 27.29 20.98 44.39 20.98 44.4"/><polygon class="cls-12" points="20.98 44.4 31.04 58.25 20.99 50.94 20.99 44.41 20.98 44.4"/><polygon class="cls-13" points="20.99 44.41 20.99 50.94 10.92 58.25 20.98 44.41 20.99 44.41"/><polygon class="cls-14" points="20.98 44.41 27.2 46.43 31.04 58.25 20.98 44.4 20.98 44.41"/><polygon class="cls-15" points="20.99 44.4 24.83 39.12 37.26 39.12 20.99 44.4 20.99 44.4"/><polygon class="cls-6" points="20.98 44.39 20.99 27.29 24.83 39.12 20.99 44.4 20.98 44.39"/><polygon class="cls-16" points="20.99 44.4 37.26 39.12 27.2 46.43 20.98 44.41 20.99 44.4"/><polygon class="cls-17" points="20.98 44.41 10.92 58.25 14.77 46.43 20.98 44.41 20.98 44.41"/><polygon class="cls-18" points="20.98 44.41 14.77 46.43 4.7 39.12 20.97 44.4 20.98 44.41"/><polygon class="cls-19" points="20.97 44.4 4.7 39.12 17.14 39.12 20.98 44.4 20.97 44.4"/><polygon class="cls-20" points="1.42 69.21 1.42 62.03 1.43 62.03 0 60.6 0 70.64 1.43 69.21 1.42 69.21"/><polygon class="cls-21" points="40.53 62.03 41.97 60.6 0 60.6 1.43 62.03 40.53 62.03"/><polygon class="cls-22" points="40.53 69.21 1.43 69.21 0 70.64 41.97 70.64 40.53 69.21"/><polygon class="cls-6" points="40.53 62.03 40.54 62.03 40.54 69.21 40.53 69.21 41.97 70.64 41.97 60.6 40.53 62.03"/><rect class="cls-23" x="1.42" y="62.03" width="39.12" height="7.18"/></g></g></g></svg>