<svg xmlns="http://www.w3.org/2000/svg" xmlns:xlink="http://www.w3.org/1999/xlink" viewBox="0 0 37.21 69.49"><defs><style>.cls-1{fill:url(#linear-gradient);}.cls-2{fill:url(#linear-gradient-2);}.cls-3{fill:url(#linear-gradient-3);}.cls-4{fill:url(#linear-gradient-4);}.cls-5{fill:url(#linear-gradient-5);}.cls-6{fill:#b0c9d6;}.cls-7{fill:url(#linear-gradient-6);}.cls-8{fill:url(#linear-gradient-7);}.cls-9{fill:url(#linear-gradient-8);}.cls-10{fill:url(#linear-gradient-9);}.cls-11{fill:url(#linear-gradient-10);}.cls-12{fill:url(#linear-gradient-11);}.cls-13{fill:url(#linear-gradient-12);}.cls-14{fill:url(#linear-gradient-13);}.cls-15{fill:url(#linear-gradient-14);}.cls-16{fill:url(#linear-gradient-15);}.cls-17{fill:url(#linear-gradient-16);}.cls-18{fill:url(#linear-gradient-17);}.cls-19{fill:url(#linear-gradient-18);}.cls-20{fill:#def1fa;}.cls-21{fill:url(#linear-gradient-19);}.cls-22{fill:url(#linear-gradient-20);}.cls-23{fill:url(#linear-gradient-21);}.cls-24{fill:url(#linear-gradient-22);}.cls-25{fill:url(#linear-gradient-23);}.cls-26{fill:url(#linear-gradient-24);}</style><linearGradient id="linear-gradient" x1="16.91" y1="1" x2="16.91" y2="14.32" gradientUnits="userSpaceOnUse"><stop offset="0" stop-color="#fafdfe"/><stop offset="1" stop-color="#b0c9d6"/></linearGradient><linearGradient id="linear-gradient-2" x1="18.61" y1="21.28" x2="27.51" y2="21.28" gradientUnits="userSpaceOnUse"><stop offset="0" stop-color="#b8d2e0"/><stop offset="1" stop-color="#b0c9d6"/></linearGradient><linearGradient id="linear-gradient-3" x1="14.16" y1="16.62" x2="14.16" y2="25.79" gradientUnits="userSpaceOnUse"><stop offset="0" stop-color="#b0c9d6"/><stop offset="1" stop-color="#99b1bd"/></linearGradient><linearGradient id="linear-gradient-4" x1="23.06" y1="15.7" x2="23.06" y2="26.25" xlink:href="#linear-gradient-3"/><linearGradient id="linear-gradient-5" x1="30.71" y1="12.81" x2="19.87" y2="12.81" xlink:href="#linear-gradient-2"/><linearGradient id="linear-gradient-6" x1="19.68" y1="13.7" x2="32.04" y2="13.7" gradientUnits="userSpaceOnUse"><stop offset="0" stop-color="#b8d2e0"/><stop offset="1" stop-color="#99b1bd"/></linearGradient><linearGradient id="linear-gradient-7" x1="14.15" y1="27.39" x2="14.15" y2="15.27" gradientUnits="userSpaceOnUse"><stop offset="0" stop-color="#fafdfe"/><stop offset="1" stop-color="#b8d2e0"/></linearGradient><linearGradient id="linear-gradient-8" x1="4.31" y1="13.7" x2="18.58" y2="13.7" gradientUnits="userSpaceOnUse"><stop offset="0" stop-color="#def1fa"/><stop offset="1" stop-color="#99b1bd"/></linearGradient><linearGradient id="linear-gradient-9" x1="5.6" y1="12.81" x2="19.01" y2="12.81" xlink:href="#linear-gradient"/><linearGradient id="linear-gradient-10" x1="16.91" y1="25.16" x2="16.91" y2="38.47" xlink:href="#linear-gradient"/><linearGradient id="linear-gradient-11" x1="18.61" y1="45.44" x2="27.51" y2="45.44" xlink:href="#linear-gradient-2"/><linearGradient id="linear-gradient-12" x1="14.16" y1="40.78" x2="14.16" y2="49.95" xlink:href="#linear-gradient-3"/><linearGradient id="linear-gradient-13" x1="23.06" y1="39.85" x2="23.06" y2="50.41" xlink:href="#linear-gradient-3"/><linearGradient id="linear-gradient-14" x1="30.71" y1="36.97" x2="19.87" y2="36.97" xlink:href="#linear-gradient-2"/><linearGradient id="linear-gradient-15" x1="19.68" y1="37.86" x2="32.04" y2="37.86" xlink:href="#linear-gradient-6"/><linearGradient id="linear-gradient-16" x1="14.15" y1="51.55" x2="14.15" y2="39.43" xlink:href="#linear-gradient-7"/><linearGradient id="linear-gradient-17" x1="4.31" y1="37.86" x2="18.58" y2="37.86" xlink:href="#linear-gradient-8"/><linearGradient id="linear-gradient-18" x1="5.6" y1="36.97" x2="19.01" y2="36.97" xlink:href="#linear-gradient"/><linearGradient id="linear-gradient-19" y1="53.93" x2="37.21" y2="53.93" gradientUnits="userSpaceOnUse"><stop offset="0" stop-color="#fafdfe"/><stop offset="1" stop-color="#def1fa"/></linearGradient><linearGradient id="linear-gradient-20" x1="0" y1="60.35" x2="37.21" y2="60.35" xlink:href="#linear-gradient-3"/><linearGradient id="linear-gradient-21" x1="18.61" y1="54.52" x2="18.61" y2="59.89" gradientUnits="userSpaceOnUse"><stop offset="0" stop-color="#fafdfe"/><stop offset="0.26" stop-color="#dce8ee"/><stop offset="0.54" stop-color="#c4d7e1"/><stop offset="0.79" stop-color="#b5cdd9"/><stop offset="1" stop-color="#b0c9d6"/></linearGradient><linearGradient id="linear-gradient-22" y1="62.53" x2="37.21" y2="62.53" xlink:href="#linear-gradient-19"/><linearGradient id="linear-gradient-23" x1="0" y1="68.96" x2="37.21" y2="68.96" xlink:href="#linear-gradient-3"/><linearGradient id="linear-gradient-24" x1="18.61" y1="63.12" x2="18.61" y2="68.5" xlink:href="#linear-gradient-21"/></defs><g id="Layer_2" data-name="Layer 2"><g id="Artwork"><g id="Commander_Grade_3_" data-name="Commander (Grade 3)"><polygon class="cls-1" points="18.6 15.15 15.2 10.47 18.61 0 18.6 15.14 18.6 15.15"/><polygon class="cls-2" points="18.61 15.15 27.51 27.41 18.61 20.93 18.61 15.15 18.61 15.15"/><polygon class="cls-3" points="18.61 15.15 18.61 20.93 9.7 27.41 18.6 15.15 18.61 15.15"/><polygon class="cls-4" points="18.61 15.15 24.11 16.94 27.51 27.41 18.61 15.15 18.61 15.15"/><polygon class="cls-5" points="18.61 15.15 22.01 10.47 33.02 10.47 18.61 15.15 18.61 15.15"/><polygon class="cls-6" points="18.6 15.14 18.61 0 22.01 10.47 18.61 15.15 18.6 15.14"/><polygon class="cls-7" points="18.61 15.15 33.02 10.47 24.11 16.94 18.61 15.15 18.61 15.15"/><polygon class="cls-8" points="18.6 15.15 9.7 27.41 13.1 16.94 18.6 15.15 18.6 15.15"/><polygon class="cls-9" points="18.6 15.15 13.1 16.94 4.2 10.47 18.6 15.15 18.6 15.15"/><polygon class="cls-10" points="18.6 15.15 4.2 10.47 15.2 10.47 18.6 15.15 18.6 15.15"/><polygon class="cls-11" points="18.6 39.31 15.2 34.63 18.61 24.16 18.6 39.29 18.6 39.31"/><polygon class="cls-12" points="18.61 39.31 27.51 51.57 18.61 45.09 18.61 39.31 18.61 39.31"/><polygon class="cls-13" points="18.61 39.31 18.61 45.09 9.7 51.57 18.6 39.31 18.61 39.31"/><polygon class="cls-14" points="18.61 39.31 24.11 41.1 27.51 51.57 18.61 39.31 18.61 39.31"/><polygon class="cls-15" points="18.61 39.31 22.01 34.63 33.02 34.63 18.61 39.31 18.61 39.31"/><polygon class="cls-6" points="18.6 39.29 18.61 24.16 22.01 34.63 18.61 39.31 18.6 39.29"/><polygon class="cls-16" points="18.61 39.31 33.02 34.63 24.11 41.1 18.61 39.31 18.61 39.31"/><polygon class="cls-17" points="18.6 39.31 9.7 51.57 13.1 41.1 18.6 39.31 18.6 39.31"/><polygon class="cls-18" points="18.6 39.31 13.1 41.1 4.2 34.63 18.6 39.31 18.6 39.31"/><polygon class="cls-19" points="18.6 39.31 4.2 34.63 15.2 34.63 18.6 39.31 18.6 39.31"/><polygon class="cls-20" points="1.06 59.82 1.06 54.47 1.07 54.47 0 53.4 0 60.89 1.07 59.82 1.06 59.82"/><polygon class="cls-21" points="36.14 54.47 37.21 53.4 0 53.4 1.07 54.47 36.14 54.47"/><polygon class="cls-22" points="36.14 59.82 1.07 59.82 0 60.89 37.21 60.89 36.14 59.82"/><polygon class="cls-6" points="36.14 54.47 36.15 54.47 36.15 59.82 36.14 59.82 37.21 60.89 37.21 53.4 36.14 54.47"/><rect class="cls-23" x="1.06" y="54.46" width="35.09" height="5.35"/><polygon class="cls-20" points="1.06 68.42 1.06 63.07 1.07 63.07 0 62 0 69.49 1.07 68.42 1.06 68.42"/><polygon class="cls-24" points="36.14 63.07 37.21 62 0 62 1.07 63.07 36.14 63.07"/><polygon class="cls-25" points="36.14 68.42 1.07 68.42 0 69.49 37.21 69.49 36.14 68.42"/><polygon class="cls-6" points="36.14 63.07 36.15 63.07 36.15 68.42 36.14 68.42 37.21 69.49 37.21 62 36.14 63.07"/><rect class="cls-26" x="1.06" y="63.07" width="35.09" height="5.35"/></g></g></g></svg>