<svg xmlns="http://www.w3.org/2000/svg" xmlns:xlink="http://www.w3.org/1999/xlink" viewBox="0 0 33.46 70.25"><defs><style>.cls-1{fill:url(#linear-gradient);}.cls-2{fill:url(#linear-gradient-2);}.cls-3{fill:url(#linear-gradient-3);}.cls-4{fill:url(#linear-gradient-4);}.cls-5{fill:url(#linear-gradient-5);}.cls-6{fill:#b0c9d6;}.cls-7{fill:url(#linear-gradient-6);}.cls-8{fill:url(#linear-gradient-7);}.cls-9{fill:url(#linear-gradient-8);}.cls-10{fill:url(#linear-gradient-9);}.cls-11{fill:url(#linear-gradient-10);}.cls-12{fill:url(#linear-gradient-11);}.cls-13{fill:url(#linear-gradient-12);}.cls-14{fill:url(#linear-gradient-13);}.cls-15{fill:url(#linear-gradient-14);}.cls-16{fill:url(#linear-gradient-15);}.cls-17{fill:url(#linear-gradient-16);}.cls-18{fill:url(#linear-gradient-17);}.cls-19{fill:url(#linear-gradient-18);}.cls-20{fill:url(#linear-gradient-19);}.cls-21{fill:url(#linear-gradient-20);}.cls-22{fill:url(#linear-gradient-21);}.cls-23{fill:#fc0;}.cls-24{fill:url(#linear-gradient-22);}.cls-25{fill:url(#linear-gradient-23);}.cls-26{fill:url(#linear-gradient-24);}.cls-27{fill:url(#linear-gradient-25);}.cls-28{fill:url(#linear-gradient-26);}.cls-29{fill:url(#linear-gradient-27);}.cls-30{fill:url(#linear-gradient-28);}.cls-31{fill:url(#linear-gradient-29);}.cls-32{fill:url(#linear-gradient-30);}</style><linearGradient id="linear-gradient" x1="15.2" y1="0.9" x2="15.2" y2="12.87" gradientUnits="userSpaceOnUse"><stop offset="0" stop-color="#fafdfe"/><stop offset="1" stop-color="#b0c9d6"/></linearGradient><linearGradient id="linear-gradient-2" x1="16.73" y1="19.13" x2="24.74" y2="19.13" gradientUnits="userSpaceOnUse"><stop offset="0" stop-color="#b8d2e0"/><stop offset="1" stop-color="#b0c9d6"/></linearGradient><linearGradient id="linear-gradient-3" x1="12.73" y1="14.94" x2="12.73" y2="23.19" gradientUnits="userSpaceOnUse"><stop offset="0" stop-color="#b0c9d6"/><stop offset="1" stop-color="#99b1bd"/></linearGradient><linearGradient id="linear-gradient-4" x1="20.73" y1="14.11" x2="20.73" y2="23.61" xlink:href="#linear-gradient-3"/><linearGradient id="linear-gradient-5" x1="27.61" y1="11.52" x2="17.86" y2="11.52" xlink:href="#linear-gradient-2"/><linearGradient id="linear-gradient-6" x1="17.69" y1="12.32" x2="28.81" y2="12.32" gradientUnits="userSpaceOnUse"><stop offset="0" stop-color="#b8d2e0"/><stop offset="1" stop-color="#99b1bd"/></linearGradient><linearGradient id="linear-gradient-7" x1="12.73" y1="24.63" x2="12.73" y2="13.73" gradientUnits="userSpaceOnUse"><stop offset="0" stop-color="#fafdfe"/><stop offset="1" stop-color="#b8d2e0"/></linearGradient><linearGradient id="linear-gradient-8" x1="3.88" y1="12.32" x2="16.71" y2="12.32" gradientUnits="userSpaceOnUse"><stop offset="0" stop-color="#def1fa"/><stop offset="1" stop-color="#99b1bd"/></linearGradient><linearGradient id="linear-gradient-9" x1="5.03" y1="11.52" x2="17.09" y2="11.52" xlink:href="#linear-gradient"/><linearGradient id="linear-gradient-10" x1="15.2" y1="22.62" x2="15.2" y2="34.6" xlink:href="#linear-gradient"/><linearGradient id="linear-gradient-11" x1="16.73" y1="40.86" x2="24.74" y2="40.86" xlink:href="#linear-gradient-2"/><linearGradient id="linear-gradient-12" x1="12.73" y1="36.66" x2="12.73" y2="44.91" xlink:href="#linear-gradient-3"/><linearGradient id="linear-gradient-13" x1="20.73" y1="35.84" x2="20.73" y2="45.33" xlink:href="#linear-gradient-3"/><linearGradient id="linear-gradient-14" x1="27.61" y1="33.24" x2="17.86" y2="33.24" xlink:href="#linear-gradient-2"/><linearGradient id="linear-gradient-15" x1="17.69" y1="34.05" x2="28.81" y2="34.05" xlink:href="#linear-gradient-6"/><linearGradient id="linear-gradient-16" x1="12.73" y1="46.36" x2="12.73" y2="35.45" xlink:href="#linear-gradient-7"/><linearGradient id="linear-gradient-17" x1="3.88" y1="34.05" x2="16.71" y2="34.05" xlink:href="#linear-gradient-8"/><linearGradient id="linear-gradient-18" x1="5.03" y1="33.24" x2="17.09" y2="33.24" xlink:href="#linear-gradient"/><linearGradient id="linear-gradient-19" x1="0.48" y1="48.5" x2="0.48" y2="54.74" gradientUnits="userSpaceOnUse"><stop offset="0" stop-color="#fefae5"/><stop offset="1" stop-color="#fc0"/></linearGradient><linearGradient id="linear-gradient-20" x1="0" y1="48.49" x2="33.46" y2="48.49" xlink:href="#linear-gradient-19"/><linearGradient id="linear-gradient-21" y1="54.27" x2="33.46" y2="54.27" gradientUnits="userSpaceOnUse"><stop offset="0" stop-color="#fc0"/><stop offset="1" stop-color="#e3b600"/></linearGradient><linearGradient id="linear-gradient-22" x1="16.73" y1="49.03" x2="16.73" y2="53.85" xlink:href="#linear-gradient-19"/><linearGradient id="linear-gradient-23" x1="0.48" y1="55.93" x2="0.48" y2="62.55" xlink:href="#linear-gradient-19"/><linearGradient id="linear-gradient-24" x1="0" y1="56.24" x2="33.46" y2="56.24" xlink:href="#linear-gradient-19"/><linearGradient id="linear-gradient-25" y1="62.02" x2="33.46" y2="62.02" xlink:href="#linear-gradient-21"/><linearGradient id="linear-gradient-26" x1="16.73" y1="56.78" x2="16.73" y2="61.61" xlink:href="#linear-gradient-19"/><linearGradient id="linear-gradient-27" x1="0.48" y1="63.63" x2="0.48" y2="70.31" xlink:href="#linear-gradient-19"/><linearGradient id="linear-gradient-28" x1="0" y1="63.99" x2="33.46" y2="63.99" xlink:href="#linear-gradient-19"/><linearGradient id="linear-gradient-29" y1="69.77" x2="33.46" y2="69.77" xlink:href="#linear-gradient-21"/><linearGradient id="linear-gradient-30" x1="16.73" y1="64.53" x2="16.73" y2="69.36" xlink:href="#linear-gradient-19"/></defs><g id="Layer_2" data-name="Layer 2"><g id="Artwork"><g id="Commander_Grade_4_-_Strike_Commander" data-name="Commander (Grade 4) - Strike Commander"><polygon class="cls-1" points="16.73 13.62 13.67 9.41 16.73 0 16.73 13.61 16.73 13.62"/><polygon class="cls-2" points="16.73 13.62 24.74 24.64 16.73 18.82 16.73 13.62 16.73 13.62"/><polygon class="cls-3" points="16.73 13.62 16.73 18.82 8.72 24.64 16.73 13.63 16.73 13.62"/><polygon class="cls-4" points="16.73 13.63 21.68 15.23 24.74 24.64 16.73 13.62 16.73 13.63"/><polygon class="cls-5" points="16.73 13.62 19.79 9.41 29.69 9.41 16.74 13.62 16.73 13.62"/><polygon class="cls-6" points="16.73 13.61 16.73 0 19.79 9.41 16.73 13.62 16.73 13.61"/><polygon class="cls-7" points="16.74 13.62 29.69 9.41 21.68 15.23 16.73 13.63 16.74 13.62"/><polygon class="cls-8" points="16.73 13.63 8.72 24.64 11.78 15.23 16.73 13.63 16.73 13.63"/><polygon class="cls-9" points="16.73 13.63 11.78 15.23 3.77 9.41 16.72 13.62 16.73 13.63"/><polygon class="cls-10" points="16.72 13.62 3.77 9.41 13.67 9.41 16.73 13.62 16.72 13.62"/><polygon class="cls-11" points="16.73 35.34 13.67 31.14 16.73 21.72 16.73 35.33 16.73 35.34"/><polygon class="cls-12" points="16.73 35.34 24.74 46.37 16.73 40.55 16.73 35.35 16.73 35.34"/><polygon class="cls-13" points="16.73 35.35 16.73 40.55 8.72 46.37 16.73 35.35 16.73 35.35"/><polygon class="cls-14" points="16.73 35.35 21.68 36.96 24.74 46.37 16.73 35.34 16.73 35.35"/><polygon class="cls-15" points="16.73 35.34 19.79 31.14 29.69 31.14 16.74 35.34 16.73 35.34"/><polygon class="cls-6" points="16.73 35.33 16.73 21.72 19.79 31.14 16.73 35.34 16.73 35.33"/><polygon class="cls-16" points="16.74 35.34 29.69 31.14 21.68 36.96 16.73 35.35 16.74 35.34"/><polygon class="cls-17" points="16.73 35.35 8.72 46.37 11.78 36.96 16.73 35.35 16.73 35.35"/><polygon class="cls-18" points="16.73 35.35 11.78 36.96 3.77 31.14 16.72 35.34 16.73 35.35"/><polygon class="cls-19" points="16.72 35.34 3.77 31.14 13.67 31.14 16.73 35.34 16.72 35.34"/><polygon class="cls-20" points="0.95 53.79 0.95 48.97 0.96 48.97 0 48.01 0 54.75 0.96 53.79 0.95 53.79"/><polygon class="cls-21" points="32.5 48.97 33.46 48.01 0 48.01 0.96 48.97 32.5 48.97"/><polygon class="cls-22" points="32.5 53.79 0.96 53.79 0 54.75 33.46 54.75 32.5 53.79"/><polygon class="cls-23" points="32.5 48.97 32.51 48.97 32.51 53.79 32.5 53.79 33.46 54.75 33.46 48.01 32.5 48.97"/><rect class="cls-24" x="0.95" y="48.97" width="31.55" height="4.81"/><polygon class="cls-25" points="0.95 61.54 0.95 56.72 0.96 56.72 0 55.76 0 62.5 0.96 61.54 0.95 61.54"/><polygon class="cls-26" points="32.5 56.72 33.46 55.76 0 55.76 0.96 56.72 32.5 56.72"/><polygon class="cls-27" points="32.5 61.54 0.96 61.54 0 62.5 33.46 62.5 32.5 61.54"/><polygon class="cls-23" points="32.5 56.72 32.51 56.72 32.51 61.54 32.5 61.54 33.46 62.5 33.46 55.76 32.5 56.72"/><rect class="cls-28" x="0.95" y="56.72" width="31.55" height="4.81"/><polygon class="cls-29" points="0.95 69.29 0.95 64.47 0.96 64.47 0 63.51 0 70.25 0.96 69.29 0.95 69.29"/><polygon class="cls-30" points="32.5 64.47 33.46 63.51 0 63.51 0.96 64.47 32.5 64.47"/><polygon class="cls-31" points="32.5 69.29 0.96 69.29 0 70.25 33.46 70.25 32.5 69.29"/><polygon class="cls-23" points="32.5 64.47 32.51 64.47 32.51 69.29 32.5 69.29 33.46 70.25 33.46 63.51 32.5 64.47"/><rect class="cls-32" x="0.95" y="64.47" width="31.55" height="4.81"/></g></g></g></svg>